<?xml version="1.0" encoding="iso-8859-1"?>
<!-- Generator: Adobe Illustrator 19.0.0, SVG Export Plug-In . SVG Version: 6.00 Build 0)  -->
<svg version="1.1" id="Capa_1" xmlns="http://www.w3.org/2000/svg" xmlns:xlink="http://www.w3.org/1999/xlink" x="0px" y="0px"
	 viewBox="0 0 511.968 511.968" style="enable-background:new 0 0 511.968 511.968;" xml:space="preserve">
<path style="fill:#AC92EC;" d="M507.968,377.977c0,8.797-7.203,16-15.999,16H379.976c-8.797,0-15.999-7.203-15.999-16V129.993
	c0-8.804,7.202-15.999,15.999-15.999h111.993c8.796,0,15.999,7.195,15.999,15.999L507.968,377.977L507.968,377.977z"/>
<g style="opacity:0.3;">
	<path style="fill:#FFFFFF;" d="M379.976,377.977V129.993c0-8.804,7.202-15.999,15.999-15.999h-15.999
		c-8.797,0-15.999,7.195-15.999,15.999v247.984c0,8.797,7.202,16,15.999,16h15.999C387.178,393.977,379.976,386.774,379.976,377.977
		z"/>
</g>
<g style="opacity:0.2;">
	<path d="M491.969,377.977V129.993c0-8.804-7.203-15.999-15.999-15.999h15.999c8.796,0,15.999,7.195,15.999,15.999v247.984
		c0,8.797-7.203,16-15.999,16H475.97C484.766,393.977,491.969,386.774,491.969,377.977z"/>
</g>
<path style="fill:#AC92EC;" d="M323.979,113.994h-7.999v279.983h7.999c8.797,0,15.999-7.203,15.999-16V129.993
	C339.978,121.189,332.776,113.994,323.979,113.994z"/>
<g style="opacity:0.2;">
	<path d="M323.979,113.994h-7.999c8.796,0,15.999,7.195,15.999,15.999v247.984c0,8.797-7.203,16-15.999,16h7.999
		c8.797,0,15.999-7.203,15.999-16V129.993C339.978,121.189,332.776,113.994,323.979,113.994z"/>
</g>
<rect x="12.004" y="113.995" style="fill:#656D78;" width="303.98" height="279.98"/>
<g style="opacity:0.2;">
	<rect x="107.994" y="130.005" width="31.998" height="231.98"/>
</g>
<rect x="235.984" y="129.995" style="fill:#AAB2BD;" width="79.995" height="263.98"/>
<rect x="12.004" y="217.985" style="fill:#656D78;" width="223.99" height="63.996"/>
<g style="opacity:0.2;">
	<rect x="12.004" y="217.985" style="fill:#FFFFFF;" width="223.99" height="63.996"/>
</g>
<rect x="12.004" y="337.985" style="fill:#5D9CEC;" width="79.995" height="55.997"/>
<g style="opacity:0.2;">
	<rect x="91.994" y="361.975" style="fill:#FFFFFF;" width="143.99" height="15.998"/>
</g>
<path style="fill:#E6E9ED;" d="M451.971,229.986c0,6.625-5.374,12-11.999,12s-11.999-5.375-11.999-12
	c0-6.632,5.374-11.999,11.999-11.999S451.971,223.354,451.971,229.986z"/>
<path style="fill:#FFFFFF;" d="M435.972,229.986c0-5.218,3.352-9.617,8-11.265c-1.258-0.445-2.594-0.734-4-0.734
	c-6.625,0-11.999,5.367-11.999,11.999c0,6.625,5.374,12,11.999,12c1.406,0,2.742-0.289,4-0.734
	C439.324,239.595,435.972,235.205,435.972,229.986z"/>
<g style="opacity:0.2;">
	<path d="M443.972,229.986c0-5.218-3.352-9.617-8-11.265c1.258-0.445,2.594-0.734,4-0.734c6.625,0,11.999,5.367,11.999,11.999
		c0,6.625-5.374,12-11.999,12c-1.406,0-2.742-0.289-4-0.734C440.621,239.595,443.972,235.205,443.972,229.986z"/>
</g>
<g style="opacity:0.2;">
	<rect x="12.004" y="113.995" width="7.999" height="279.98"/>
</g>
<g style="opacity:0.2;">
	<rect x="227.984" y="113.995" width="8" height="279.98"/>
</g>
<g style="opacity:0.3;">
	<rect x="19.994" y="337.985" style="fill:#FFFFFF;" width="71.996" height="7.999"/>
</g>
<g style="opacity:0.3;">
	<rect x="91.994" y="361.975" style="fill:#FFFFFF;" width="143.99" height="7.999"/>
</g>
<g style="opacity:0.3;">
	<rect x="235.984" y="129.995" style="fill:#FFFFFF;" width="7.999" height="263.98"/>
</g>
<g style="opacity:0.2;">
	<rect x="307.984" y="129.995" width="8" height="263.98"/>
</g>
<g style="opacity:0.3;">
	<path style="fill:#FFFFFF;" d="M483.969,369.978h-95.994c-2.21,0-3.999-1.789-3.999-4s1.789-3.999,3.999-3.999h95.994
		c2.211,0,4,1.788,4,3.999S486.18,369.978,483.969,369.978z"/>
</g>
<g style="opacity:0.3;">
	<path style="fill:#FFFFFF;" d="M483.969,345.979h-95.994c-2.21,0-3.999-1.789-3.999-4c0-2.21,1.789-3.999,3.999-3.999h95.994
		c2.211,0,4,1.789,4,3.999C487.969,344.19,486.18,345.979,483.969,345.979z"/>
</g>
<g style="opacity:0.3;">
	<path style="fill:#FFFFFF;" d="M483.969,321.981h-95.994c-2.21,0-3.999-1.789-3.999-4s1.789-4,3.999-4h95.994c2.211,0,4,1.789,4,4
		S486.18,321.981,483.969,321.981z"/>
</g>
<g>
	<path style="fill:#3A3847;" d="M124.234,157.991c-2.211,0-4.039-1.789-4.039-4s1.75-4,3.953-4h0.086c2.203,0,4,1.789,4,4
		S126.437,157.991,124.234,157.991z"/>
	<path style="fill:#3A3847;" d="M124.234,341.979c-2.211,0-4.039-1.788-4.039-3.999s1.75-4,3.953-4h0.086c2.203,0,4,1.789,4,4
		S126.437,341.979,124.234,341.979z"/>
	<path style="fill:#3A3847;" d="M124.234,181.989c-2.211,0-4.039-1.789-4.039-4s1.75-4,3.953-4h0.086c2.203,0,4,1.789,4,4
		S126.437,181.989,124.234,181.989z"/>
	<path style="fill:#3A3847;" d="M124.234,317.981c-2.211,0-4.039-1.789-4.039-4s1.75-4,3.953-4h0.086c2.203,0,4,1.789,4,4
		S126.437,317.981,124.234,317.981z"/>
	<path style="fill:#3A3847;" d="M44.239,269.984c-2.211,0-4.039-1.789-4.039-3.999c0-2.211,1.75-4,3.953-4h0.086
		c2.203,0,4,1.789,4,4C48.239,268.195,46.442,269.984,44.239,269.984z"/>
	<path style="fill:#3A3847;" d="M76.237,269.984c-2.211,0-4.039-1.789-4.039-3.999c0-2.211,1.75-4,3.953-4h0.086
		c2.203,0,4,1.789,4,4C80.237,268.195,78.44,269.984,76.237,269.984z"/>
	<path style="fill:#3A3847;" d="M108.235,269.984c-2.211,0-4.039-1.789-4.039-3.999c0-2.211,1.75-4,3.953-4h0.086
		c2.203,0,4,1.789,4,4C112.235,268.195,110.438,269.984,108.235,269.984z"/>
	<path style="fill:#3A3847;" d="M140.233,269.984c-2.211,0-4.039-1.789-4.039-3.999c0-2.211,1.75-4,3.953-4h0.086
		c2.203,0,4,1.789,4,4C144.233,268.195,142.436,269.984,140.233,269.984z"/>
	<path style="fill:#3A3847;" d="M172.231,269.984c-2.211,0-4.039-1.789-4.039-3.999c0-2.211,1.75-4,3.953-4h0.086
		c2.203,0,4,1.789,4,4C176.231,268.195,174.434,269.984,172.231,269.984z"/>
	<path style="fill:#3A3847;" d="M204.229,269.984c-2.211,0-4.039-1.789-4.039-3.999c0-2.211,1.75-4,3.953-4h0.086
		c2.203,0,4,1.789,4,4C208.229,268.195,206.432,269.984,204.229,269.984z"/>
	<path style="fill:#3A3847;" d="M44.239,237.986c-2.211,0-4.039-1.789-4.039-4s1.75-4,3.953-4h0.086c2.203,0,4,1.789,4,4
		C48.239,236.197,46.442,237.986,44.239,237.986z"/>
	<path style="fill:#3A3847;" d="M76.237,237.986c-2.211,0-4.039-1.789-4.039-4s1.75-4,3.953-4h0.086c2.203,0,4,1.789,4,4
		S78.44,237.986,76.237,237.986z"/>
	<path style="fill:#3A3847;" d="M108.235,237.986c-2.211,0-4.039-1.789-4.039-4s1.75-4,3.953-4h0.086c2.203,0,4,1.789,4,4
		S110.438,237.986,108.235,237.986z"/>
	<path style="fill:#3A3847;" d="M140.233,237.986c-2.211,0-4.039-1.789-4.039-4s1.75-4,3.953-4h0.086c2.203,0,4,1.789,4,4
		S142.436,237.986,140.233,237.986z"/>
	<path style="fill:#3A3847;" d="M172.231,237.986c-2.211,0-4.039-1.789-4.039-4s1.75-4,3.953-4h0.086c2.203,0,4,1.789,4,4
		S174.434,237.986,172.231,237.986z"/>
	<path style="fill:#3A3847;" d="M204.229,237.986c-2.211,0-4.039-1.789-4.039-4s1.75-4,3.953-4h0.086c2.203,0,4,1.789,4,4
		S206.432,237.986,204.229,237.986z"/>
	<path style="fill:#3A3847;" d="M484.212,134c-2.211,0-4.038-1.789-4.038-4s1.75-4,3.952-4h0.086c2.203,0,4,1.789,4,4
		S486.415,134,484.212,134z"/>
	<path style="fill:#3A3847;" d="M484.212,165.99c-2.211,0-4.038-1.789-4.038-4s1.75-4,3.952-4h0.086c2.203,0,4,1.789,4,4
		S486.415,165.99,484.212,165.99z"/>
	<path style="fill:#3A3847;" d="M440.214,269.984c-2.211,0-4.039-1.789-4.039-3.999c0-2.211,1.75-4,3.953-4h0.086
		c2.203,0,4,1.789,4,4C444.214,268.195,442.418,269.984,440.214,269.984z"/>
	<path style="fill:#3A3847;" d="M440.214,285.983c-2.211,0-4.039-1.789-4.039-4s1.75-4,3.953-4h0.086c2.203,0,4,1.789,4,4
		S442.418,285.983,440.214,285.983z"/>
	<path style="fill:#3A3847;" d="M60.238,253.985c-2.211,0-4.039-1.789-4.039-4s1.75-4,3.953-4h0.086c2.203,0,4,1.789,4,4
		S62.441,253.985,60.238,253.985z"/>
	<path style="fill:#3A3847;" d="M92.236,253.985c-2.211,0-4.039-1.789-4.039-4s1.75-4,3.953-4h0.086c2.203,0,4,1.789,4,4
		S94.439,253.985,92.236,253.985z"/>
	<path style="fill:#3A3847;" d="M124.234,253.985c-2.211,0-4.039-1.789-4.039-4s1.75-4,3.953-4h0.086c2.203,0,4,1.789,4,4
		S126.437,253.985,124.234,253.985z"/>
	<path style="fill:#3A3847;" d="M156.232,253.985c-2.211,0-4.039-1.789-4.039-4s1.75-4,3.953-4h0.086c2.203,0,4,1.789,4,4
		S158.435,253.985,156.232,253.985z"/>
	<path style="fill:#3A3847;" d="M188.23,253.985c-2.211,0-4.039-1.789-4.039-4s1.75-4,3.953-4h0.086c2.203,0,4,1.789,4,4
		S190.433,253.985,188.23,253.985z"/>
	<path style="fill:#3A3847;" d="M315.98,117.993H3.999c-2.21,0-3.999-1.789-3.999-4s1.789-4,3.999-4H315.98c2.211,0,4,1.789,4,4
		S318.191,117.993,315.98,117.993z"/>
	<path style="fill:#3A3847;" d="M315.98,397.976H11.999c-2.211,0-4-1.789-4-3.999c0-2.211,1.789-4,4-4H315.98c2.211,0,4,1.789,4,4
		C319.98,396.187,318.191,397.976,315.98,397.976z"/>
	<path style="fill:#3A3847;" d="M11.999,397.976c-2.211,0-4-1.789-4-3.999V113.994c0-2.211,1.789-4,4-4s4,1.789,4,4v279.983
		C15.999,396.187,14.21,397.976,11.999,397.976z"/>
	<path style="fill:#3A3847;" d="M315.98,397.976c-2.211,0-4-1.789-4-3.999V113.994c0-2.211,1.789-4,4-4s4,1.789,4,4v279.983
		C319.98,396.187,318.191,397.976,315.98,397.976z"/>
	<path style="fill:#3A3847;" d="M339.978,133.992c-2.211,0-4-1.789-4-4c0-6.617-5.382-12-11.999-12c-2.21,0-3.999-1.789-3.999-4
		s1.789-4,3.999-4c11.03,0,19.999,8.968,19.999,19.999C343.978,132.204,342.189,133.992,339.978,133.992z"/>
	<path style="fill:#3A3847;" d="M323.979,397.976c-2.21,0-3.999-1.789-3.999-3.999c0-2.211,1.789-4,3.999-4
		c6.617,0,11.999-5.383,11.999-12c0-2.211,1.789-4,4-4s4,1.789,4,4C343.978,389.008,335.009,397.976,323.979,397.976z"/>
	<path style="fill:#3A3847;" d="M339.978,381.977c-2.211,0-4-1.789-4-4V129.993c0-2.211,1.789-4,4-4s4,1.789,4,4v247.984
		C343.978,380.188,342.189,381.977,339.978,381.977z"/>
	<path style="fill:#3A3847;" d="M307.98,133.992H19.998c-2.21,0-3.999-1.789-3.999-4s1.789-4,3.999-4H307.98c2.211,0,4,1.789,4,4
		S310.191,133.992,307.98,133.992z"/>
	<path style="fill:#3A3847;" d="M235.985,389.977c-2.211,0-4-1.789-4-4V137.992c0-2.211,1.789-4,4-4s4,1.789,4,4v247.985
		C239.985,388.188,238.196,389.977,235.985,389.977z"/>
	<path style="fill:#3A3847;" d="M307.98,269.984h-63.996c-2.21,0-3.999-1.789-3.999-3.999c0-2.211,1.789-4,3.999-4h63.996
		c2.211,0,4,1.789,4,4C311.98,268.195,310.191,269.984,307.98,269.984z"/>
	<path style="fill:#3A3847;" d="M275.982,253.985c-2.211,0-4-1.789-4-4V145.992c0-2.211,1.789-4,4-4s4,1.789,4,4v103.993
		C279.982,252.196,278.193,253.985,275.982,253.985z"/>
	<path style="fill:#3A3847;" d="M267.983,237.986h-23.999c-2.21,0-3.999-1.789-3.999-4s1.789-4,3.999-4h23.999
		c2.21,0,3.999,1.789,3.999,4S270.193,237.986,267.983,237.986z"/>
	<path style="fill:#3A3847;" d="M243.984,293.983h-7.999c-2.211,0-4-1.789-4-4s1.789-4,4-4h7.999c2.211,0,4,1.789,4,4
		S246.195,293.983,243.984,293.983z"/>
	<path style="fill:#3A3847;" d="M243.984,325.981h-7.999c-2.211,0-4-1.789-4-4s1.789-4,4-4h7.999c2.211,0,4,1.789,4,4
		S246.195,325.981,243.984,325.981z"/>
	<path style="fill:#3A3847;" d="M243.984,357.979h-7.999c-2.211,0-4-1.789-4-4s1.789-4,4-4h7.999c2.211,0,4,1.789,4,4
		S246.195,357.979,243.984,357.979z"/>
	<path style="fill:#3A3847;" d="M267.983,205.988h-23.999c-2.21,0-3.999-1.789-3.999-4s1.789-4,3.999-4h23.999
		c2.21,0,3.999,1.789,3.999,4S270.193,205.988,267.983,205.988z"/>
	<path style="fill:#3A3847;" d="M267.983,173.99h-23.999c-2.21,0-3.999-1.789-3.999-4s1.789-4,3.999-4h23.999
		c2.21,0,3.999,1.789,3.999,4S270.193,173.99,267.983,173.99z"/>
	<path style="fill:#3A3847;" d="M307.98,237.986h-23.998c-2.211,0-4-1.789-4-4s1.789-4,4-4h23.998c2.211,0,4,1.789,4,4
		S310.191,237.986,307.98,237.986z"/>
	<path style="fill:#3A3847;" d="M307.98,205.988h-23.998c-2.211,0-4-1.789-4-4s1.789-4,4-4h23.998c2.211,0,4,1.789,4,4
		S310.191,205.988,307.98,205.988z"/>
	<path style="fill:#3A3847;" d="M307.98,173.99h-23.998c-2.211,0-4-1.789-4-4s1.789-4,4-4h23.998c2.211,0,4,1.789,4,4
		S310.191,173.99,307.98,173.99z"/>
	<path style="fill:#3A3847;" d="M91.994,341.979H19.998c-2.21,0-3.999-1.788-3.999-3.999s1.789-4,3.999-4h71.996
		c2.211,0,4,1.789,4,4S94.205,341.979,91.994,341.979z"/>
	<path style="fill:#3A3847;" d="M91.994,389.977c-2.211,0-4-1.789-4-4V337.98c0-2.211,1.789-4,4-4s4,1.789,4,4v47.997
		C95.994,388.188,94.205,389.977,91.994,389.977z"/>
	<path style="fill:#3A3847;" d="M227.985,381.977H99.993c-2.21,0-3.999-1.789-3.999-4s1.789-4,3.999-4h127.992c2.211,0,4,1.789,4,4
		S230.196,381.977,227.985,381.977z"/>
	<path style="fill:#3A3847;" d="M227.985,365.978H99.993c-2.21,0-3.999-1.789-3.999-3.999c0-2.211,1.789-4,3.999-4h127.992
		c2.211,0,4,1.789,4,4C231.985,364.189,230.196,365.978,227.985,365.978z"/>
	<path style="fill:#3A3847;" d="M107.993,213.987c-2.211,0-4-1.789-4-4v-71.996c0-2.211,1.789-4,4-4s4,1.789,4,4v71.996
		C111.993,212.199,110.204,213.987,107.993,213.987z"/>
	<path style="fill:#3A3847;" d="M107.993,357.979c-2.211,0-4-1.789-4-4v-63.996c0-2.211,1.789-4,4-4s4,1.789,4,4v63.996
		C111.993,356.19,110.204,357.979,107.993,357.979z"/>
	<path style="fill:#3A3847;" d="M139.991,213.987c-2.211,0-4-1.789-4-4v-71.996c0-2.211,1.789-4,4-4s4,1.789,4,4v71.996
		C143.991,212.199,142.202,213.987,139.991,213.987z"/>
	<path style="fill:#3A3847;" d="M139.991,357.979c-2.211,0-4-1.789-4-4v-63.996c0-2.211,1.789-4,4-4s4,1.789,4,4v63.996
		C143.991,356.19,142.202,357.979,139.991,357.979z"/>
	<path style="fill:#3A3847;" d="M227.985,221.987H19.998c-2.21,0-3.999-1.789-3.999-4s1.789-4,3.999-4h207.987c2.211,0,4,1.789,4,4
		S230.196,221.987,227.985,221.987z"/>
	<path style="fill:#3A3847;" d="M227.985,285.983H19.998c-2.21,0-3.999-1.789-3.999-4s1.789-4,3.999-4h207.987c2.211,0,4,1.789,4,4
		S230.196,285.983,227.985,285.983z"/>
	<path style="fill:#3A3847;" d="M491.969,117.993H379.976c-2.211,0-4-1.789-4-4s1.789-4,4-4h111.993c2.21,0,3.999,1.789,3.999,4
		S494.179,117.993,491.969,117.993z"/>
	<path style="fill:#3A3847;" d="M491.969,397.976H379.976c-2.211,0-4-1.789-4-3.999c0-2.211,1.789-4,4-4h111.993
		c2.21,0,3.999,1.789,3.999,4C495.968,396.187,494.179,397.976,491.969,397.976z"/>
	<path style="fill:#3A3847;" d="M363.977,381.977c-2.211,0-4-1.789-4-4V129.993c0-2.211,1.789-4,4-4c2.21,0,3.999,1.789,3.999,4
		v247.984C367.976,380.188,366.187,381.977,363.977,381.977z"/>
	<path style="fill:#3A3847;" d="M507.968,381.977c-2.211,0-4-1.789-4-4V129.993c0-2.211,1.789-4,4-4s4,1.789,4,4v247.984
		C511.968,380.188,510.179,381.977,507.968,381.977z"/>
	<path style="fill:#3A3847;" d="M379.976,397.976c-11.031,0-19.999-8.968-19.999-19.999c0-2.211,1.789-4,4-4
		c2.21,0,3.999,1.789,3.999,4c0,6.617,5.383,12,12,12c2.211,0,4,1.789,4,4C383.976,396.187,382.187,397.976,379.976,397.976z"/>
	<path style="fill:#3A3847;" d="M363.977,133.992c-2.211,0-4-1.789-4-4c0-11.031,8.968-19.999,19.999-19.999c2.211,0,4,1.789,4,4
		s-1.789,4-4,4c-6.617,0-12,5.382-12,12C367.976,132.204,366.187,133.992,363.977,133.992z"/>
	<path style="fill:#3A3847;" d="M507.968,134c-2.211,0-4-1.789-4-4c0-6.617-5.383-12-11.999-12c-2.211,0-4-1.789-4-4s1.789-4,4-4
		c11.03,0,19.999,8.968,19.999,19.999C511.968,132.212,510.179,134,507.968,134z"/>
	<path style="fill:#3A3847;" d="M491.969,397.976c-2.211,0-4-1.789-4-3.999c0-2.211,1.789-4,4-4c6.616,0,11.999-5.383,11.999-12
		c0-2.211,1.789-4,4-4s4,1.789,4,4C511.968,389.008,503,397.976,491.969,397.976z"/>
	<path style="fill:#3A3847;" d="M483.969,365.978h-95.994c-2.21,0-3.999-1.789-3.999-3.999c0-2.211,1.789-4,3.999-4h95.994
		c2.211,0,4,1.789,4,4C487.969,364.189,486.18,365.978,483.969,365.978z"/>
	<path style="fill:#3A3847;" d="M483.969,341.979h-95.994c-2.21,0-3.999-1.788-3.999-3.999s1.789-4,3.999-4h95.994
		c2.211,0,4,1.789,4,4S486.18,341.979,483.969,341.979z"/>
	<path style="fill:#3A3847;" d="M483.969,317.981h-95.994c-2.21,0-3.999-1.789-3.999-4s1.789-4,3.999-4h95.994c2.211,0,4,1.789,4,4
		S486.18,317.981,483.969,317.981z"/>
	<path style="fill:#3A3847;" d="M499.968,149.991H371.976c-2.211,0-4-1.789-4-4s1.789-4,4-4h127.992c2.211,0,4,1.789,4,4
		S502.179,149.991,499.968,149.991z"/>
	<path style="fill:#3A3847;" d="M499.968,181.989H371.976c-2.211,0-4-1.789-4-4s1.789-4,4-4h127.992c2.211,0,4,1.789,4,4
		S502.179,181.989,499.968,181.989z"/>
	<path style="fill:#3A3847;" d="M439.972,245.985c-8.82,0-15.999-7.179-15.999-15.999c0-8.828,7.179-15.999,15.999-15.999
		s15.999,7.171,15.999,15.999C455.971,238.806,448.793,245.985,439.972,245.985z M439.972,221.987c-4.414,0-8,3.586-8,8
		c0,4.406,3.586,8,8,8s8-3.594,8-8C447.972,225.573,444.386,221.987,439.972,221.987z"/>
	<path style="fill:#3A3847;" d="M43.997,401.976H27.998c-2.211,0-4-1.789-4-4s1.789-3.999,4-3.999h15.999c2.211,0,4,1.788,4,3.999
		S46.208,401.976,43.997,401.976z"/>
	<path style="fill:#3A3847;" d="M299.981,401.976h-15.999c-2.211,0-4-1.789-4-4s1.789-3.999,4-3.999h15.999
		c2.21,0,3.999,1.788,3.999,3.999S302.191,401.976,299.981,401.976z"/>
	<path style="fill:#3A3847;" d="M379.976,401.976c-2.211,0-4-1.789-4-4v-3.999c0-2.211,1.789-4,4-4s4,1.789,4,4v3.999
		C383.976,400.187,382.187,401.976,379.976,401.976z"/>
	<path style="fill:#3A3847;" d="M491.969,401.976c-2.211,0-4-1.789-4-4v-3.999c0-2.211,1.789-4,4-4c2.21,0,3.999,1.789,3.999,4
		v3.999C495.968,400.187,494.179,401.976,491.969,401.976z"/>
</g>
<g>
</g>
<g>
</g>
<g>
</g>
<g>
</g>
<g>
</g>
<g>
</g>
<g>
</g>
<g>
</g>
<g>
</g>
<g>
</g>
<g>
</g>
<g>
</g>
<g>
</g>
<g>
</g>
<g>
</g>
</svg>
