<?xml version="1.0" encoding="iso-8859-1"?>
<!-- Generator: Adobe Illustrator 19.0.0, SVG Export Plug-In . SVG Version: 6.00 Build 0)  -->
<svg version="1.1" id="Capa_1" xmlns="http://www.w3.org/2000/svg" xmlns:xlink="http://www.w3.org/1999/xlink" x="0px" y="0px"
	 viewBox="0 0 511.968 511.968" style="enable-background:new 0 0 511.968 511.968;" xml:space="preserve">
<rect x="215.984" y="443.974" style="fill:#CCD1D9;" width="79.996" height="63.988"/>
<g style="opacity:0.2;">
	<rect x="239.984" y="483.974" width="31.997" height="7.999"/>
</g>
<rect x="247.984" y="411.974" style="fill:#FC6E51;" width="16" height="31.998"/>
<path style="fill:#656D78;" d="M407.974,43.997h-65.793c48.936,29.362,81.793,82.772,81.793,143.991
	c0,92.775-75.215,167.99-167.99,167.99c-92.776,0-167.99-75.215-167.99-167.99c0-61.219,32.857-114.629,81.792-143.991h-65.793
	c-17.601,0-31.998,14.397-31.998,31.998v303.981c0,17.601,14.397,31.998,31.998,31.998h303.981
	c17.602,0,31.998-14.397,31.998-31.998V75.995C439.973,58.394,425.577,43.997,407.974,43.997z"/>
<g style="opacity:0.2;">
	<path d="M407.974,43.997h-65.793c48.936,29.362,81.793,82.772,81.793,143.991c0,92.775-75.215,167.99-167.99,167.99
		c-92.776,0-167.99-75.215-167.99-167.99c0-61.219,32.857-114.629,81.792-143.991h-65.793c-17.601,0-31.998,14.397-31.998,31.998
		v303.981c0,17.601,14.397,31.998,31.998,31.998h303.981c17.602,0,31.998-14.397,31.998-31.998V75.995
		C439.973,58.394,425.577,43.997,407.974,43.997z"/>
</g>
<g style="opacity:0.2;">
	<path style="fill:#FFFFFF;" d="M87.995,379.976V75.995c0-17.601,14.397-31.998,31.998-31.998h-15.999
		c-17.601,0-31.998,14.397-31.998,31.998v303.981c0,17.601,14.397,31.998,31.998,31.998h15.999
		C102.393,411.974,87.995,397.577,87.995,379.976z"/>
</g>
<g style="opacity:0.2;">
	<path d="M423.974,379.976V75.995c0-17.601-14.398-31.998-31.998-31.998h15.998c17.602,0,31.998,14.397,31.998,31.998v303.981
		c0,17.601-14.396,31.998-31.998,31.998h-15.998C409.577,411.974,423.974,397.577,423.974,379.976z"/>
</g>
<g>
	<polygon style="fill:#FC6E51;" points="159.99,462.971 159.99,483.97 106.001,411.974 122.165,411.974 	"/>
	<polygon style="fill:#FC6E51;" points="351.978,462.971 351.978,483.97 405.966,411.974 389.805,411.974 	"/>
	<path style="fill:#FC6E51;" d="M183.988,491.969c-4.422,0-8-3.577-8-7.999v-71.996H159.99v71.996
		c0,13.265,10.734,23.998,23.999,23.998h31.998v-15.999H183.988z"/>
	<path style="fill:#FC6E51;" d="M327.98,491.969c4.422,0,7.998-3.577,7.998-7.999v-71.996h16v71.996
		c0,13.265-10.734,23.998-23.998,23.998h-31.998v-15.999H327.98z"/>
</g>
<path style="fill:#656D78;" d="M407.974,4H103.993C86.393,4,71.995,18.397,71.995,35.998v303.981
	c0,17.601,14.397,31.998,31.998,31.998h303.981c17.602,0,31.998-14.397,31.998-31.998V35.998C439.973,18.397,425.577,4,407.974,4z
	 M255.984,355.978c-92.776,0-167.99-75.215-167.99-167.99c0-92.779,75.214-167.989,167.99-167.989
	c92.775,0,167.99,75.21,167.99,167.989C423.974,280.763,348.759,355.978,255.984,355.978z"/>
<g style="opacity:0.2;">
	<path style="fill:#FFFFFF;" d="M87.995,339.979V35.998C87.995,18.397,102.392,4,119.993,4h-15.999
		C86.393,4,71.995,18.397,71.995,35.998v303.981c0,17.601,14.397,31.998,31.998,31.998h15.999
		C102.393,371.977,87.995,357.58,87.995,339.979z"/>
</g>
<g style="opacity:0.2;">
	<path d="M423.974,339.979V35.998C423.974,18.397,409.576,4,391.977,4h15.998c17.602,0,31.998,14.397,31.998,31.998v303.981
		c0,17.601-14.396,31.998-31.998,31.998h-15.998C409.577,371.977,423.974,357.58,423.974,339.979z"/>
</g>
<g>
	<path style="fill:#FFCE54;" d="M381.75,242.133c-13.852-8-39.701,4.781-39.701,4.781l-49.285-28.092l-22.781,15.085
		c0,0,31.945,81.213,51.615,79.424c39.591-3.592,66.011-49.347,66.011-49.347S395.609,250.132,381.75,242.133z"/>
	<path style="fill:#FFCE54;" d="M365.759,106.145c-13.852,7.996-15.711,36.771-15.711,36.771l-48.964,28.639l1.67,27.268
		c0,0,86.309,12.945,94.59-4.984c16.686-36.084-9.734-81.843-9.734-81.843S379.617,98.142,365.759,106.145z"/>
	<path style="fill:#FFCE54;" d="M239.993,51.997c0,15.995,23.991,31.99,23.991,31.99l0.32,56.73l24.451,12.183
		c0,0,54.363-68.269,42.982-84.405c-22.914-32.494-75.746-32.49-75.746-32.49S239.993,35.998,239.993,51.997z"/>
</g>
<g style="opacity:0.2;">
	<path d="M381.75,242.133c-4.438-2.563-10.102-2.98-15.758-2.383c2.797,0.336,5.453,1.051,7.758,2.383
		c13.859,7.999,5.859,21.851,5.859,21.851s-24.639,42.481-61.934,48.699c1.352,0.531,2.664,0.766,3.922,0.648
		c39.592-3.592,66.012-49.347,66.012-49.347S395.609,250.132,381.75,242.133z"/>
</g>
<g style="opacity:0.2;">
	<path d="M387.609,111.997c0,0-6.344-10.933-17.5-7.707c6.125,1.917,9.5,7.707,9.5,7.707s26.42,45.759,9.734,81.843
		c-3.148,6.82-17.602,9.167-34.287,9.464c19.873,0.336,38.639-1.57,42.287-9.464C414.03,157.755,387.609,111.997,387.609,111.997z"
		/>
</g>
<g style="opacity:0.2;">
	<path d="M331.738,68.496c-22.914-32.494-75.746-32.49-75.746-32.49s-1.008,0-2.516,0.25c14.078,1,51.824,6.101,70.261,32.24
		c9.992,14.163-30.646,68.46-40.74,81.534l5.758,2.871C288.755,152.901,343.12,84.631,331.738,68.496z"/>
</g>
<g>
	<path style="fill:#FFCE54;" d="M130.218,133.843c13.851,7.999,39.701-4.785,39.701-4.785l49.294,28.088l22.772-15.085
		c0,0-31.944-81.214-51.606-79.425c-39.599,3.594-66.011,49.353-66.011,49.353S116.359,125.843,130.218,133.843z"/>
	<path style="fill:#FFCE54;" d="M146.21,269.827c13.851-7.991,15.71-36.771,15.71-36.771l48.965-28.643l-1.671-27.264
		c0,0-86.307-12.944-94.588,4.98c-16.686,36.091,9.734,81.847,9.734,81.847S132.359,277.835,146.21,269.827z"/>
	<path style="fill:#FFCE54;" d="M271.974,323.98c0-15.999-23.998-31.998-23.998-31.998l-0.313-56.724l-24.452-12.187
		c0,0-54.364,68.277-42.982,84.409c22.913,32.498,75.746,32.49,75.746,32.49S271.982,339.979,271.974,323.98z"/>
</g>
<g style="opacity:0.5;">
	<path style="fill:#FFFFFF;" d="M138.218,133.843c-13.858-8-5.852-21.854-5.852-21.854S156.998,69.5,194.3,63.281
		c-1.351-0.523-2.664-0.758-3.921-0.645c-39.599,3.594-66.011,49.353-66.011,49.353s-8.008,13.854,5.851,21.854
		c4.438,2.562,10.102,2.98,15.757,2.382C143.178,135.89,140.523,135.175,138.218,133.843z"/>
</g>
<g style="opacity:0.5;">
	<path style="fill:#FFFFFF;" d="M132.359,263.976c0,0-26.42-45.756-9.733-81.847c3.148-6.82,17.601-9.164,34.279-9.46
		c-19.866-0.336-38.631,1.57-42.279,9.46c-16.686,36.091,9.734,81.847,9.734,81.847s6.351,10.937,17.507,7.71
		C135.734,269.764,132.359,263.976,132.359,263.976z"/>
</g>
<g style="opacity:0.5;">
	<path style="fill:#FFFFFF;" d="M188.231,307.481c-9.992-14.155,30.646-68.461,40.739-81.538l-5.757-2.871
		c0,0-54.364,68.277-42.982,84.409c22.913,32.498,75.746,32.49,75.746,32.49s1.008,0,2.508-0.25
		C244.406,338.721,206.66,333.62,188.231,307.481z"/>
</g>
<circle style="fill:#ED5565;" cx="255.984" cy="187.984" r="47.997"/>
<g style="opacity:0.3;">
	<path style="fill:#FFFFFF;" d="M215.986,187.988c0-25.154,19.366-45.759,43.998-47.794c-1.32-0.109-2.648-0.203-4-0.203
		c-26.506,0-47.997,21.491-47.997,47.997c0,26.506,21.491,47.997,47.997,47.997c1.352,0,2.68-0.094,4-0.203
		C235.354,233.747,215.986,213.143,215.986,187.988z"/>
</g>
<g style="opacity:0.3;">
	<path d="M295.982,187.988c0,25.155-19.367,45.759-43.998,47.794c1.32,0.109,2.648,0.203,4,0.203
		c26.506,0,47.996-21.491,47.996-47.997s-21.49-47.997-47.996-47.997c-1.352,0-2.679,0.094-4,0.203
		C276.616,142.229,295.982,162.834,295.982,187.988z"/>
</g>
<path style="fill:#656D78;" d="M263.984,187.988c0,4.418-3.578,8-8,8c-4.421,0-8-3.582-8-8c0-4.417,3.578-7.999,8-7.999
	S263.984,183.57,263.984,187.988z"/>
<g>
	<path style="fill:#AAB2BD;" d="M111.993,43.997c0,4.418-3.578,8-8,8s-8-3.582-8-8c0-4.417,3.578-7.999,8-7.999
		S111.993,39.579,111.993,43.997z"/>
	<path style="fill:#AAB2BD;" d="M407.974,43.997c0,4.418-3.578,8-8,8c-4.42,0-7.998-3.582-7.998-8c0-4.417,3.578-7.999,7.998-7.999
		C404.396,35.998,407.974,39.579,407.974,43.997z"/>
	<path style="fill:#AAB2BD;" d="M111.993,331.979c0,4.422-3.578,8-8,8s-8-3.578-8-8c0-4.421,3.578-7.999,8-7.999
		S111.993,327.558,111.993,331.979z"/>
	<path style="fill:#AAB2BD;" d="M407.974,331.979c0,4.422-3.578,8-8,8c-4.42,0-7.998-3.578-7.998-8c0-4.421,3.578-7.999,7.998-7.999
		C404.396,323.98,407.974,327.558,407.974,331.979z"/>
</g>
<g style="opacity:0.2;">
	<polygon points="128.102,419.974 122.165,411.974 106.001,411.974 112.001,419.974 	"/>
</g>
<g style="opacity:0.2;">
	<polygon points="383.977,419.974 389.914,411.974 406.077,411.974 400.077,419.974 	"/>
</g>
<g style="opacity:0.2;">
	<rect x="159.994" y="411.974" width="15.999" height="8"/>
</g>
<g style="opacity:0.2;">
	<rect x="247.984" y="411.974" width="16" height="8"/>
</g>
<g style="opacity:0.2;">
	<rect x="295.984" y="491.974" width="7.998" height="15.999"/>
</g>
<g style="opacity:0.2;">
	<rect x="207.984" y="491.974" width="8" height="15.999"/>
</g>
<g style="opacity:0.2;">
	<rect x="335.974" y="411.974" width="16" height="8"/>
</g>
<g style="opacity:0.7;">
	<rect x="215.984" y="443.974" style="fill:#FFFFFF;" width="8" height="63.996"/>
</g>
<g style="opacity:0.2;">
	<rect x="287.984" y="443.974" width="8" height="63.996"/>
</g>
<g>
	<path style="fill:#3A3847;" d="M207.988,511.968h-23.999c-2.211,0-4-1.789-4-4s1.789-4,4-4h23.999c2.21,0,4,1.789,4,4
		S210.197,511.968,207.988,511.968z"/>
	<path style="fill:#3A3847;" d="M159.99,487.97c-2.21,0-4-1.789-4-4v-63.996c0-2.211,1.789-4,4-4s4,1.789,4,4v63.996
		C163.99,486.181,162.201,487.97,159.99,487.97z"/>
	<path style="fill:#3A3847;" d="M175.99,487.97c-2.21,0-4-1.789-4-4v-63.996c0-2.211,1.789-4,4-4s4,1.789,4,4v63.996
		C179.988,486.181,178.199,487.97,175.99,487.97z"/>
	<path style="fill:#3A3847;" d="M183.988,511.968c-15.437,0-27.998-12.562-27.998-27.998c0-2.211,1.789-4,4-4s4,1.789,4,4
		c0,11.03,8.969,19.998,19.999,19.998c2.211,0,4,1.789,4,4S186.199,511.968,183.988,511.968z"/>
	<path style="fill:#3A3847;" d="M183.988,495.969c-6.617,0-11.999-5.383-11.999-11.999c0-2.211,1.789-4,4-4s4,1.789,4,4
		c0,2.203,1.797,4,4,4c2.211,0,4,1.789,4,3.999C187.988,494.18,186.199,495.969,183.988,495.969z"/>
	<path style="fill:#3A3847;" d="M351.978,487.97c-2.211,0-4-1.789-4-4v-63.996c0-2.211,1.789-4,4-4s4,1.789,4,4v63.996
		C355.978,486.181,354.189,487.97,351.978,487.97z"/>
	<path style="fill:#3A3847;" d="M335.978,487.97c-2.209,0-3.998-1.789-3.998-4v-63.996c0-2.211,1.789-4,3.998-4c2.211,0,4,1.789,4,4
		v63.996C339.978,486.181,338.189,487.97,335.978,487.97z"/>
	<path style="fill:#3A3847;" d="M360.245,477.017c-0.836,0-1.68-0.266-2.398-0.797c-1.766-1.328-2.125-3.828-0.805-5.602
		l39.732-53.043c1.334-1.773,3.842-2.109,5.6-0.805c1.766,1.328,2.125,3.828,0.805,5.602l-39.73,53.043
		C362.659,476.463,361.456,477.017,360.245,477.017z"/>
	<path style="fill:#3A3847;" d="M359.714,456.363c-0.836,0-1.68-0.266-2.398-0.797c-1.766-1.328-2.125-3.828-0.805-5.602
		l24.264-32.389c1.336-1.773,3.844-2.109,5.602-0.805c1.766,1.328,2.125,3.828,0.805,5.602l-24.264,32.389
		C362.128,455.808,360.923,456.363,359.714,456.363z"/>
	<path style="fill:#3A3847;" d="M151.725,477.017c-1.211,0-2.414-0.555-3.203-1.602l-39.731-53.043
		c-1.32-1.773-0.961-4.273,0.805-5.602c1.757-1.313,4.265-0.969,5.601,0.805l39.732,53.043c1.32,1.773,0.961,4.273-0.805,5.602
		C153.404,476.752,152.561,477.017,151.725,477.017z"/>
	<path style="fill:#3A3847;" d="M151.96,456.363c-1.219,0-2.43-0.563-3.219-1.625l-23.967-32.389
		c-1.313-1.766-0.938-4.281,0.836-5.594c1.781-1.305,4.281-0.938,5.601,0.844l23.968,32.389c1.313,1.766,0.938,4.281-0.836,5.594
		C153.624,456.113,152.787,456.363,151.96,456.363z"/>
	<path style="fill:#3A3847;" d="M327.98,511.968c-2.211,0-4-1.789-4-4s1.789-4,4-4c11.029,0,19.998-8.968,19.998-19.998
		c0-2.211,1.789-4,4-4s4,1.789,4,4C355.978,499.407,343.417,511.968,327.98,511.968z"/>
	<path style="fill:#3A3847;" d="M327.98,495.969c-2.211,0-4-1.789-4-4c0-2.21,1.789-3.999,4-3.999c2.203,0,4-1.797,4-4
		c0-2.211,1.789-4,3.998-4c2.211,0,4,1.789,4,4C339.978,490.587,334.595,495.969,327.98,495.969z"/>
	<path style="fill:#3A3847;" d="M207.988,495.969h-23.999c-2.211,0-4-1.789-4-4c0-2.21,1.789-3.999,4-3.999h23.999
		c2.21,0,4,1.789,4,3.999C211.986,494.18,210.197,495.969,207.988,495.969z"/>
	<path style="fill:#3A3847;" d="M407.974,375.976H103.993c-19.851,0-35.998-16.146-35.998-35.997V35.998
		C67.995,16.147,84.143,0,103.993,0h303.981c19.852,0,35.998,16.147,35.998,35.998v303.981
		C443.973,359.83,427.827,375.976,407.974,375.976z M103.993,7.999c-15.437,0-27.998,12.562-27.998,27.999v303.981
		c0,15.437,12.562,27.998,27.998,27.998h303.981c15.438,0,27.998-12.562,27.998-27.998V35.998c0-15.437-12.561-27.999-27.998-27.999
		C407.974,7.999,103.993,7.999,103.993,7.999z"/>
	<path style="fill:#3A3847;" d="M407.974,415.974H103.993c-19.851,0-35.998-16.147-35.998-35.998c0-2.211,1.789-4,4-4s4,1.789,4,4
		c0,15.437,12.562,27.998,27.998,27.998h303.981c15.438,0,27.998-12.562,27.998-27.998c0-2.211,1.789-4,4-4s4,1.789,4,4
		C443.973,399.827,427.827,415.974,407.974,415.974z"/>
	<path style="fill:#3A3847;" d="M71.995,383.976c-2.211,0-4-1.789-4-4v-7.999c0-2.211,1.789-4,4-4s4,1.789,4,4v7.999
		C75.995,382.187,74.206,383.976,71.995,383.976z"/>
	<path style="fill:#3A3847;" d="M439.973,383.976c-2.211,0-4-1.789-4-4v-7.999c0-2.211,1.789-4,4-4s4,1.789,4,4v7.999
		C443.973,382.187,442.184,383.976,439.973,383.976z"/>
	<path style="fill:#3A3847;" d="M295.982,511.961h-79.996c-2.211,0-4-1.789-4-4v-63.988c0-2.211,1.789-4,4-4h79.996
		c2.211,0,4,1.789,4,4v63.988C299.982,510.172,298.194,511.961,295.982,511.961z M219.986,503.961h71.996v-55.988h-71.996
		L219.986,503.961L219.986,503.961z"/>
	<path style="fill:#3A3847;" d="M327.98,495.969h-24c-2.209,0-3.998-1.789-3.998-4c0-2.21,1.789-3.999,3.998-3.999h24
		c2.211,0,4,1.789,4,3.999C331.98,494.18,330.191,495.969,327.98,495.969z"/>
	<path style="fill:#3A3847;" d="M327.98,511.968h-24c-2.209,0-3.998-1.789-3.998-4s1.789-4,3.998-4h24c2.211,0,4,1.789,4,4
		S330.191,511.968,327.98,511.968z"/>
	<path style="fill:#3A3847;" d="M143.992,391.976c-2.21,0-4-1.789-4-4v-15.999c0-2.211,1.789-4,4-4s4,1.789,4,4v15.999
		C147.99,390.187,146.201,391.976,143.992,391.976z"/>
	<path style="fill:#3A3847;" d="M199.988,391.976c-2.211,0-4-1.789-4-4v-15.999c0-2.211,1.789-4,4-4s4,1.789,4,4v15.999
		C203.988,390.187,202.199,391.976,199.988,391.976z"/>
	<path style="fill:#3A3847;" d="M255.984,391.976c-2.21,0-4-1.789-4-4v-15.999c0-2.211,1.789-4,4-4s4,1.789,4,4v15.999
		C259.984,390.187,258.195,391.976,255.984,391.976z"/>
	<path style="fill:#3A3847;" d="M311.98,391.976c-2.211,0-4-1.789-4-4v-15.999c0-2.211,1.789-4,4-4s4,1.789,4,4v15.999
		C315.98,390.187,314.191,391.976,311.98,391.976z"/>
	<path style="fill:#3A3847;" d="M367.977,391.976c-2.209,0-3.998-1.789-3.998-4v-15.999c0-2.211,1.789-4,3.998-4
		c2.211,0,4,1.789,4,4v15.999C371.977,390.187,370.188,391.976,367.977,391.976z"/>
	<path style="fill:#3A3847;" d="M255.984,359.978c-94.838,0-171.99-77.152-171.99-171.99c0-94.834,77.152-171.989,171.99-171.989
		s171.99,77.155,171.99,171.989C427.974,282.826,350.823,359.978,255.984,359.978z M255.984,23.998
		c-90.424,0-163.99,73.566-163.99,163.99s73.565,163.99,163.99,163.99c90.424,0,163.99-73.566,163.99-163.99
		S346.409,23.998,255.984,23.998z"/>
	<path style="fill:#3A3847;" d="M255.984,239.985c-28.67,0-51.997-23.327-51.997-51.997s23.326-51.997,51.997-51.997
		c28.67,0,51.996,23.327,51.996,51.997C307.98,216.658,284.655,239.985,255.984,239.985z M255.984,143.991
		c-24.256,0-43.998,19.737-43.998,43.997c0,24.261,19.741,43.998,43.998,43.998c24.256,0,43.998-19.737,43.998-43.998
		C299.982,163.728,280.241,143.991,255.984,143.991z"/>
	<path style="fill:#3A3847;" d="M399.974,55.996c-6.615,0-11.998-5.382-11.998-12c0-6.616,5.383-11.999,11.998-11.999
		c6.617,0,12,5.383,12,11.999C411.974,50.614,406.591,55.996,399.974,55.996z M399.974,39.997c-2.201,0-3.998,1.793-3.998,4
		s1.797,4,3.998,4c2.203,0,4-1.793,4-4S402.177,39.997,399.974,39.997z"/>
	<path style="fill:#3A3847;" d="M399.974,343.978c-6.615,0-11.998-5.382-11.998-11.999c0-6.616,5.383-11.999,11.998-11.999
		c6.617,0,12,5.383,12,11.999C411.974,338.596,406.591,343.978,399.974,343.978z M399.974,327.98c-2.201,0-3.998,1.797-3.998,3.999
		c0,2.203,1.797,4,3.998,4c2.203,0,4-1.797,4-4C403.974,329.777,402.177,327.98,399.974,327.98z"/>
	<path style="fill:#3A3847;" d="M103.993,343.978c-6.617,0-11.999-5.382-11.999-11.999c0-6.616,5.382-11.999,11.999-11.999
		s11.999,5.383,11.999,11.999C115.993,338.596,110.611,343.978,103.993,343.978z M103.993,327.98c-2.203,0-4,1.797-4,3.999
		c0,2.203,1.797,4,4,4s4-1.797,4-4C107.993,329.777,106.197,327.98,103.993,327.98z"/>
	<path style="fill:#3A3847;" d="M103.993,55.996c-6.617,0-11.999-5.382-11.999-12c0-6.616,5.382-11.999,11.999-11.999
		s11.999,5.383,11.999,11.999C115.993,50.614,110.611,55.996,103.993,55.996z M103.993,39.997c-2.203,0-4,1.793-4,4s1.797,4,4,4
		s4-1.793,4-4S106.197,39.997,103.993,39.997z"/>
	<path style="fill:#3A3847;" d="M297.982,143.991c-0.891,0-1.781-0.293-2.531-0.898c-1.711-1.398-1.961-3.918-0.57-5.628
		c17.943-22.01,40.223-57.243,33.584-66.664c-21.477-30.452-71.973-30.804-72.481-30.804c-1.984,0.023-12,0.707-12,12
		c0,11.37,16.039,24.549,22.218,28.67c1.109,0.742,1.781,1.992,1.781,3.328v39.997c0,2.211-1.789,4-4,4s-4-1.789-4-4V86.068
		c-5.875-4.277-23.999-18.721-23.999-34.072c0-15.819,13.085-19.999,19.999-19.999c2.242,0,55.184,0.391,79.01,34.193
		c12.5,17.729-26.061,66.691-33.91,76.327C300.296,143.487,299.138,143.991,297.982,143.991z"/>
	<path style="fill:#3A3847;" d="M255.984,343.978c-2.242,0-55.184-0.391-79.011-34.192c-12.5-17.726,26.053-66.684,33.912-76.32
		c1.398-1.715,3.914-1.965,5.633-0.574c1.711,1.398,1.961,3.917,0.57,5.628c-17.944,22.011-40.216,57.243-33.584,66.656
		c21.476,30.451,71.972,30.803,72.48,30.803c1.984-0.023,12-0.703,12-11.999c0-11.375-16.039-24.546-22.218-28.67
		c-1.109-0.742-1.781-1.992-1.781-3.328v-39.99c0-2.21,1.789-4,4-4s4,1.789,4,4v37.912c5.875,4.281,23.998,18.726,23.998,34.076
		C275.982,339.799,262.898,343.978,255.984,343.978z"/>
	<path style="fill:#3A3847;" d="M204.559,153.061c-0.68,0-1.367-0.172-2-0.535l-32.842-18.963
		c-6.648,2.941-28.217,11.405-41.505,3.746c-13.695-7.91-10.773-21.327-7.312-27.315c1.117-1.941,27.92-47.595,69.113-51.333
		c21.538-2.031,44.732,55.919,49.146,67.535c0.781,2.066-0.258,4.375-2.32,5.16c-2.047,0.789-4.375-0.242-5.164-2.316
		c-9.952-26.174-28.936-62.434-40.458-62.434c-0.164,0-0.32,0.008-0.484,0.023c-37.099,3.367-62.652,46.923-62.91,47.364
		c-0.969,1.73-5.382,10.741,4.39,16.386c9.796,5.664,29.28-1.625,35.936-4.902c1.211-0.602,2.617-0.547,3.773,0.121l34.638,19.999
		c1.914,1.105,2.57,3.551,1.461,5.464C207.285,152.342,205.934,153.061,204.559,153.061z"/>
	<path style="fill:#3A3847;" d="M320.879,317.363c-21.287,0-43.725-56.152-48.068-67.582c-0.781-2.066,0.258-4.375,2.32-5.16
		c2.055-0.785,4.375,0.246,5.164,2.316c9.953,26.17,28.928,62.434,40.459,62.434c0.164,0,0.32-0.008,0.484-0.023
		c37.021-3.359,62.652-46.927,62.91-47.368c0.969-1.727,5.383-10.738-4.398-16.382c-9.875-5.703-29.279,1.613-35.928,4.901
		c-1.203,0.594-2.617,0.543-3.773-0.121l-34.639-19.999c-1.914-1.105-2.57-3.55-1.461-5.464c1.102-1.918,3.547-2.563,5.461-1.465
		l32.842,18.964c6.641-2.957,28.201-11.433,41.498-3.746c6.969,4.023,10.563,10.281,10.117,17.628
		c-0.313,5.254-2.539,9.25-2.797,9.688c-1.117,1.937-27.928,47.59-69.113,51.332C321.598,317.347,321.238,317.363,320.879,317.363z"
		/>
	<path style="fill:#3A3847;" d="M137.757,276.358c-8.335,0-14.358-6.047-16.858-10.382c-1.125-1.945-27.264-47.975-9.906-85.519
		c9.101-19.683,70.785-10.777,83.065-8.793c2.18,0.352,3.664,2.406,3.305,4.586c-0.352,2.191-2.445,3.656-4.585,3.313
		c-28.022-4.527-69.683-6.211-74.519,4.253c-15.608,33.748,9.312,77.722,9.57,78.16c1.008,1.711,6.609,10.038,16.382,4.397
		c9.843-5.679,13.242-26.162,13.718-33.576c0.085-1.336,0.835-2.539,1.992-3.207l34.638-19.999c1.898-1.102,4.359-0.461,5.461,1.465
		c1.109,1.914,0.453,4.359-1.461,5.464l-32.842,18.959c-0.766,7.23-4.218,30.151-17.507,37.83
		C144.436,275.483,140.93,276.358,137.757,276.358z"/>
	<path style="fill:#3A3847;" d="M360.792,208.038c-18.141,0-36.725-2.738-42.881-3.734c-2.18-0.355-3.664-2.406-3.305-4.589
		c0.352-2.183,2.438-3.64,4.586-3.308c28.006,4.527,69.691,6.218,74.52-4.246c15.607-33.748-9.313-77.729-9.57-78.167
		c-1-1.707-6.625-10.031-16.391-4.387c-9.811,5.66-13.225,26.151-13.709,33.564c-0.086,1.336-0.836,2.539-1.992,3.207
		l-34.639,20.006c-1.914,1.098-4.367,0.453-5.461-1.464c-1.109-1.914-0.453-4.359,1.461-5.465l32.842-18.968
		c0.766-7.229,4.211-30.139,17.5-37.81c13.717-7.925,23.865,1.328,27.318,7.316c1.125,1.941,27.264,47.981,9.904,85.526
		C396.438,205.331,378.828,208.038,360.792,208.038z"/>
	<path style="fill:#3A3847;" d="M255.984,167.989c-2.21,0-4-1.789-4-4v-8c0-2.21,1.789-4,4-4s4,1.789,4,4v8
		C259.984,166.2,258.195,167.989,255.984,167.989z"/>
	<path style="fill:#3A3847;" d="M255.984,223.986c-2.21,0-4-1.789-4-4v-8.007c0-2.211,1.789-4,4-4s4,1.789,4,4v8.007
		C259.984,222.197,258.195,223.986,255.984,223.986z"/>
	<path style="fill:#3A3847;" d="M243.984,171.2c-1.375,0-2.718-0.715-3.46-2l-4-6.921c-1.109-1.91-0.453-4.359,1.46-5.465
		c1.883-1.105,4.351-0.461,5.46,1.465l4,6.922c1.109,1.91,0.453,4.359-1.461,5.464C245.359,171.028,244.664,171.2,243.984,171.2z"/>
	<path style="fill:#3A3847;" d="M271.982,219.697c-1.375,0-2.725-0.719-3.459-2l-4-6.929c-1.109-1.914-0.453-4.359,1.461-5.465
		c1.898-1.098,4.357-0.453,5.459,1.465l4,6.93c1.109,1.914,0.453,4.358-1.461,5.464
		C273.349,219.525,272.663,219.697,271.982,219.697z"/>
	<path style="fill:#3A3847;" d="M235.204,179.981c-0.68,0-1.367-0.172-2-0.535l-6.93-4c-1.914-1.105-2.57-3.551-1.46-5.464
		c1.102-1.914,3.546-2.559,5.46-1.465l6.93,4c1.914,1.105,2.57,3.551,1.46,5.465C237.932,179.262,236.579,179.981,235.204,179.981z"
		/>
	<path style="fill:#3A3847;" d="M283.694,207.979c-0.68,0-1.367-0.172-2-0.535l-6.93-4c-1.914-1.105-2.57-3.55-1.461-5.464
		c1.102-1.914,3.555-2.559,5.461-1.465l6.93,4c1.914,1.105,2.57,3.55,1.461,5.464C286.421,207.26,285.069,207.979,283.694,207.979z"
		/>
	<path style="fill:#3A3847;" d="M231.986,191.98h-8c-2.21,0-4-1.789-4-4c0-2.21,1.789-4,4-4h8c2.211,0,4,1.789,4,4
		S234.197,191.98,231.986,191.98z"/>
	<path style="fill:#3A3847;" d="M287.982,191.98h-8.008c-2.211,0-4-1.789-4-4c0-2.21,1.789-4,4-4h8.008c2.211,0,4,1.789,4,4
		S290.194,191.98,287.982,191.98z"/>
	<path style="fill:#3A3847;" d="M228.275,207.979c-1.375,0-2.718-0.715-3.46-2c-1.109-1.91-0.453-4.359,1.46-5.464l6.922-4
		c1.883-1.109,4.352-0.461,5.46,1.465c1.109,1.91,0.453,4.358-1.46,5.464l-6.922,4C229.65,207.807,228.954,207.979,228.275,207.979z
		"/>
	<path style="fill:#3A3847;" d="M276.755,179.989c-1.375,0-2.719-0.715-3.461-2c-1.109-1.91-0.453-4.359,1.461-5.465l6.938-4.007
		c1.906-1.105,4.352-0.453,5.461,1.465c1.109,1.91,0.453,4.359-1.461,5.464l-6.938,4.008
		C278.124,179.817,277.435,179.989,276.755,179.989z"/>
	<path style="fill:#3A3847;" d="M239.986,219.697c-0.68,0-1.367-0.172-1.992-0.531c-1.914-1.105-2.578-3.55-1.476-5.464l3.992-6.938
		c1.102-1.922,3.554-2.566,5.46-1.473c1.914,1.105,2.578,3.551,1.477,5.465l-3.992,6.937
		C242.712,218.978,241.368,219.697,239.986,219.697z"/>
	<path style="fill:#3A3847;" d="M267.977,171.208c-0.68,0-1.375-0.172-2-0.539c-1.914-1.105-2.57-3.55-1.461-5.464l4.008-6.93
		c1.109-1.918,3.576-2.566,5.459-1.457c1.914,1.105,2.57,3.551,1.461,5.465l-4.008,6.929
		C270.694,170.493,269.352,171.208,267.977,171.208z"/>
	<path style="fill:#3A3847;" d="M255.984,199.987c-6.617,0-12-5.382-12-12c0-6.616,5.383-11.999,12-11.999s12,5.383,12,11.999
		C267.984,194.605,262.602,199.987,255.984,199.987z M255.984,183.988c-2.203,0-4,1.793-4,4s1.797,4,4,4s4-1.793,4-4
		S258.188,183.988,255.984,183.988z"/>
	<path style="fill:#3A3847;" d="M247.984,447.972c-2.211,0-4-1.789-4-4v-23.998c0-2.211,1.789-4,4-4s4,1.789,4,4v23.998
		C251.984,446.183,250.195,447.972,247.984,447.972z"/>
	<path style="fill:#3A3847;" d="M263.984,447.972c-2.211,0-4-1.789-4-4v-23.998c0-2.211,1.789-4,4-4s4,1.789,4,4v23.998
		C267.984,446.183,266.195,447.972,263.984,447.972z"/>
	<path style="fill:#3A3847;" d="M239.986,495.969c-2.21,0-4-1.789-4-4v-7.999c0-2.211,1.789-4,4-4s4,1.789,4,4v7.999
		C243.984,494.18,242.195,495.969,239.986,495.969z"/>
	<path style="fill:#3A3847;" d="M271.982,487.97h-31.997c-2.21,0-4-1.789-4-4s1.789-4,4-4h31.997c2.211,0,4,1.789,4,4
		S274.194,487.97,271.982,487.97z"/>
	<path style="fill:#3A3847;" d="M271.982,495.969c-2.209,0-3.998-1.789-3.998-4v-7.999c0-2.211,1.789-4,3.998-4c2.211,0,4,1.789,4,4
		v7.999C275.982,494.18,274.194,495.969,271.982,495.969z"/>
	<path style="fill:#3A3847;" d="M263.984,471.97h-16c-2.211,0-4-1.789-4-3.999c0-2.211,1.789-4,4-4h16c2.211,0,4,1.789,4,4
		C267.984,470.181,266.195,471.97,263.984,471.97z"/>
</g>
<g>
</g>
<g>
</g>
<g>
</g>
<g>
</g>
<g>
</g>
<g>
</g>
<g>
</g>
<g>
</g>
<g>
</g>
<g>
</g>
<g>
</g>
<g>
</g>
<g>
</g>
<g>
</g>
<g>
</g>
</svg>
