<?xml version="1.0" encoding="iso-8859-1"?>
<!-- Generator: Adobe Illustrator 19.0.0, SVG Export Plug-In . SVG Version: 6.00 Build 0)  -->
<svg version="1.1" id="Capa_1" xmlns="http://www.w3.org/2000/svg" xmlns:xlink="http://www.w3.org/1999/xlink" x="0px" y="0px"
	 viewBox="0 0 511.942 511.942" style="enable-background:new 0 0 511.942 511.942;" xml:space="preserve">
<path style="fill:#656D78;" d="M163.638,283.171c-0.641,39.995-8.491,120.877-3.656,160.778
	c5.819,47.994,39.995,55.994,39.995,55.994L163.638,283.171z"/>
<path style="fill:#E6E9ED;" d="M263.97,243.973v23.997c0,4.397-3.602,7.999-7.999,7.999c-4.406,0-7.999-3.602-7.999-7.999v-23.997
	c0-4.398,3.593-8,7.999-8C260.368,235.973,263.97,239.575,263.97,243.973z"/>
<path style="fill:#FFFFFF;" d="M255.971,235.973c-4.406,0-7.999,3.601-7.999,8v7.999c0-4.398,3.593-7.999,7.999-7.999
	c4.397,0,7.999,3.601,7.999,7.999v-7.999C263.97,239.575,260.368,235.973,255.971,235.973z"/>
<g style="opacity:0.2;">
	<path d="M255.971,275.969c4.405,0,7.999-3.602,7.999-7.999v-7.999c0,4.397-3.594,7.999-7.999,7.999
		c-4.398,0-7.999-3.602-7.999-7.999v7.999C247.972,272.367,251.573,275.969,255.971,275.969z"/>
</g>
<path style="fill:#AC92EC;" d="M167.981,235.973c14.475-27.356,87.99-55.994,87.99-55.994s73.585,28.638,87.99,55.994
	c21.271,40.23-31.997,222.294-31.997,263.97c0,0-15.998,7.999-55.993,7.999s-55.994-7.999-55.994-7.999
	C199.977,458.268,146.781,276.203,167.981,235.973z M255.971,235.973c-4.406,0-7.999,3.601-7.999,8v23.997
	c0,4.397,3.593,7.999,7.999,7.999c4.397,0,7.999-3.602,7.999-7.999v-23.997C263.97,239.575,260.368,235.973,255.971,235.973z"/>
<g style="opacity:0.2;">
	<path d="M161.505,330.619c10.194,63.328,28.896,137.64,30.355,165.996c4.773,2.547,8.116,3.328,8.116,3.328l-36.338-216.772
		C163.435,295.78,162.521,312.45,161.505,330.619z"/>
</g>
<path style="fill:#656D78;" d="M348.671,283.171c0.641,39.995,8.483,120.877,3.656,160.778
	c-5.828,47.994-39.996,55.994-39.996,55.994L348.671,283.171z"/>
<g style="opacity:0.2;">
	<path d="M350.796,330.627c-10.187,63.328-28.888,137.64-30.355,165.988c-4.766,2.547-8.109,3.328-8.109,3.328l36.339-216.772
		C348.874,295.78,349.781,312.457,350.796,330.627z"/>
</g>
<g style="opacity:0.3;">
	<path style="fill:#FFFFFF;" d="M215.976,499.944c0-41.676-53.197-223.74-31.997-263.97c11.554-21.833,60.61-44.432,79.991-52.689
		c-4.905-2.09-7.999-3.305-7.999-3.305s-73.516,28.638-87.99,55.994c-21.2,40.23,31.996,222.294,31.996,263.97
		c0,0,15.999,7.999,55.994,7.999c2.789,0,5.437-0.047,7.999-0.125C229.849,506.857,215.976,499.944,215.976,499.944z"/>
</g>
<g style="opacity:0.2;">
	<path d="M295.966,499.944c0-41.676,53.197-223.74,31.996-263.97c-10.186-19.251-49.541-39.101-71.991-49.186l8.022-3.499
		c19.467,8.3,68.438,30.898,79.968,52.685c21.2,40.23-31.997,222.294-31.997,263.97c0,0-15.998,7.999-55.993,7.999
		c-2.789,0-5.437-0.047-7.999-0.125C282.093,506.857,295.966,499.944,295.966,499.944z"/>
</g>
<g>
	<path style="fill:#3A3847;" d="M255.971,167.981c-2.211,0-4-1.789-4-4v-23.997c0-2.211,1.789-4,4-4s3.999,1.789,3.999,4v23.997
		C259.97,166.193,258.182,167.981,255.971,167.981z"/>
	<path style="fill:#3A3847;" d="M255.971,31.997c-2.211,0-4-1.789-4-4V4c0-2.211,1.789-4,4-4s3.999,1.789,3.999,4v23.997
		C259.97,30.208,258.182,31.997,255.971,31.997z"/>
	<path style="fill:#3A3847;" d="M255.971,143.984c-2.211,0-4-1.789-4-3.999c0-15.436,12.562-27.997,27.997-27.997
		c2.211,0,4,1.789,4,4c0,2.21-1.789,3.999-4,3.999c-11.029,0-19.998,8.972-19.998,19.998
		C259.97,142.195,258.182,143.984,255.971,143.984z"/>
	<path style="fill:#3A3847;" d="M231.974,55.994c-2.195,0-3.984-1.773-4-3.977c-0.016-2.207,1.766-4.011,3.977-4.022
		c11.178-0.066,19.935-8.851,19.935-19.998c0-2.211,1.789-4,4-4s3.999,1.789,3.999,4c0,15.346-12.506,27.907-27.887,27.997
		C231.99,55.994,231.982,55.994,231.974,55.994z"/>
	<path style="fill:#3A3847;" d="M367.958,119.987c-2.211,0-4-1.789-4-3.999c0-2.211,1.789-4,4-4c6.616,0,11.998-5.382,11.998-11.999
		c0-2.21,1.789-4,4-4s4,1.789,4,4C387.956,111.015,378.988,119.987,367.958,119.987z"/>
	<path style="fill:#3A3847;" d="M383.956,103.989c-2.211,0-4-1.789-4-4c0-6.617-5.382-11.999-11.998-11.999c-2.211,0-4-1.789-4-4
		s1.789-4,4-4c11.029,0,19.998,8.972,19.998,19.998C387.956,102.2,386.167,103.989,383.956,103.989z"/>
	<path style="fill:#3A3847;" d="M367.958,119.987h-87.99c-2.211,0-3.999-1.789-3.999-3.999c0-2.211,1.788-4,3.999-4h87.99
		c2.211,0,4,1.789,4,4C371.958,118.198,370.169,119.987,367.958,119.987z"/>
	<path style="fill:#3A3847;" d="M367.958,87.991H143.984c-2.211,0-4-1.789-4-4s1.789-4,4-4h223.975c2.211,0,4,1.789,4,4
		S370.169,87.991,367.958,87.991z"/>
	<path style="fill:#3A3847;" d="M127.986,71.992c-2.211,0-4-1.789-4-4c0-11.026,8.968-19.997,19.998-19.997c2.211,0,4,1.789,4,3.999
		c0,2.211-1.789,4-4,4c-6.616,0-11.999,5.382-11.999,11.998C131.985,70.203,130.197,71.992,127.986,71.992z"/>
	<path style="fill:#3A3847;" d="M143.984,87.991c-11.03,0-19.998-8.972-19.998-19.998c0-2.21,1.789-3.999,4-3.999
		s3.999,1.789,3.999,3.999c0,6.617,5.383,11.999,11.999,11.999c2.211,0,4,1.789,4,4S146.195,87.991,143.984,87.991z"/>
	<path style="fill:#3A3847;" d="M231.974,55.994h-87.99c-2.211,0-4-1.789-4-4c0-2.21,1.789-3.999,4-3.999h87.904
		c2.21,0,4.046,1.789,4.046,3.999C235.934,54.205,234.184,55.994,231.974,55.994z"/>
	<path style="fill:#3A3847;" d="M199.977,503.943c-2.21,0-3.999-1.788-3.999-3.999c0-14.187-6.491-45.831-14.006-82.476
		c-14.241-69.476-31.974-155.942-17.529-183.357c14.998-28.353,87.021-56.666,90.075-57.857c2.055-0.796,4.375,0.211,5.179,2.273
		c0.805,2.059-0.219,4.379-2.272,5.18c-0.719,0.281-72.297,28.411-85.904,54.138c-13.108,24.877,5.038,113.39,18.287,178.016
		c7.608,37.073,14.17,69.086,14.17,84.084C203.977,502.155,202.188,503.943,199.977,503.943z"/>
	<path style="fill:#3A3847;" d="M311.964,503.943c-2.21,0-3.999-1.788-3.999-3.999c0-14.99,6.569-46.979,14.17-84.021
		c13.272-64.649,31.45-153.193,18.287-178.078c-13.553-25.743-85.178-53.856-85.904-54.138c-2.055-0.801-3.078-3.117-2.273-5.176
		c0.797-2.058,3.125-3.081,5.18-2.277c3.062,1.191,75.147,29.504,90.075,57.857c14.498,27.419-3.257,113.913-17.529,183.42
		c-7.515,36.613-14.006,68.242-14.006,82.413C315.964,502.155,314.175,503.943,311.964,503.943z"/>
	<path style="fill:#3A3847;" d="M327.962,495.944c-1.585,0-3.085-0.953-3.71-2.516c-0.82-2.046,0.172-4.374,2.227-5.202
		c0.133-0.055,17.834-8.007,21.505-44.675c2.656-26.598,2.016-38.995,1.125-56.157c-0.438-8.53-0.938-18.209-1.148-31.372
		c-0.031-2.202,1.727-4.03,3.938-4.062c2.016,0.031,4.03,1.727,4.062,3.937c0.203,13.015,0.703,22.623,1.141,31.091
		c0.906,17.506,1.563,30.152-1.164,57.36c-4.187,41.925-25.583,50.947-26.489,51.314
		C328.962,495.85,328.454,495.944,327.962,495.944z"/>
	<path style="fill:#3A3847;" d="M183.971,495.944c-0.492,0-0.992-0.094-1.477-0.281c-0.905-0.367-22.302-9.39-26.488-51.314
		c-2.727-27.231-2.07-39.894-1.164-57.407c0.438-8.46,0.93-18.045,1.141-31.044c0.039-2.202,1.937-3.843,4.062-3.937
		c2.211,0.031,3.969,1.859,3.938,4.062c-0.211,13.14-0.711,22.811-1.156,31.333c-0.883,17.162-1.523,29.567,1.133,56.196
		c3.671,36.668,21.372,44.62,21.544,44.698c2.016,0.859,2.992,3.188,2.148,5.21C187.018,495.006,185.534,495.944,183.971,495.944z"
		/>
	<path style="fill:#3A3847;" d="M255.971,511.942c-40.472,0-57.095-8.077-57.782-8.421c-1.977-0.984-2.773-3.39-1.789-5.366
		c0.992-1.977,3.397-2.758,5.351-1.797l0,0c0.156,0.07,15.975,7.585,54.221,7.585c38.604,0,54.057-7.499,54.205-7.577
		c1.983-0.984,4.374-0.188,5.366,1.789c0.984,1.977,0.188,4.382-1.789,5.366C313.066,503.865,296.443,511.942,255.971,511.942z"/>
	<path style="fill:#3A3847;" d="M255.971,495.944c-15.334,0-29.044-1.156-40.761-3.438c-2.164-0.422-3.586-2.515-3.164-4.687
		s2.555-3.601,4.694-3.155c11.21,2.171,24.412,3.28,39.23,3.28c14.92,0,28.114-1.109,39.222-3.28
		c2.195-0.422,4.281,0.976,4.695,3.155c0.43,2.164-0.984,4.265-3.148,4.687C285.124,494.787,271.407,495.944,255.971,495.944z"/>
	<path style="fill:#3A3847;" d="M255.971,223.975c-2.211,0-4-1.789-4-4v-23.998c0-2.21,1.789-3.999,4-3.999s3.999,1.789,3.999,3.999
		v23.998C259.97,222.186,258.182,223.975,255.971,223.975z"/>
	<path style="fill:#3A3847;" d="M255.971,279.969c-6.616,0-11.999-5.383-11.999-11.999v-23.997c0-6.617,5.383-11.999,11.999-11.999
		s11.999,5.382,11.999,11.999v23.997C267.97,274.586,262.587,279.969,255.971,279.969z M255.971,239.973c-2.203,0-4,1.793-4,4
		v23.997c0,2.202,1.797,3.999,4,3.999s3.999-1.797,3.999-3.999v-23.997C259.97,241.766,258.174,239.973,255.971,239.973z"/>
	<path style="fill:#3A3847;" d="M255.971,383.956c-2.211,0-4-1.788-4-3.999v-87.99c0-2.211,1.789-4,4-4s3.999,1.789,3.999,4v87.99
		C259.97,382.168,258.182,383.956,255.971,383.956z"/>
</g>
<g>
</g>
<g>
</g>
<g>
</g>
<g>
</g>
<g>
</g>
<g>
</g>
<g>
</g>
<g>
</g>
<g>
</g>
<g>
</g>
<g>
</g>
<g>
</g>
<g>
</g>
<g>
</g>
<g>
</g>
</svg>
