<?xml version="1.0" encoding="iso-8859-1"?>
<!-- Generator: Adobe Illustrator 19.0.0, SVG Export Plug-In . SVG Version: 6.00 Build 0)  -->
<svg version="1.1" id="Capa_1" xmlns="http://www.w3.org/2000/svg" xmlns:xlink="http://www.w3.org/1999/xlink" x="0px" y="0px"
	 viewBox="0 0 511.969 511.969" style="enable-background:new 0 0 511.969 511.969;" xml:space="preserve">
<polygon style="fill:#967ADC;" points="379.977,391.961 331.98,343.964 331.98,15.984 379.977,63.98 "/>
<g style="opacity:0.2;">
	<polygon points="363.978,47.982 363.978,375.961 379.977,391.961 379.977,63.98 	"/>
</g>
<path style="fill:#656D78;" d="M499.977,143.975c0-22.092-17.913-40.001-40.005-40.001c-0.016,0-0.023,0.004-0.039,0.004H355.978
	v15.999v15.999v15.999v15.999v15.999h63.996v87.995h15.999v55.997h15.999v63.996h15.999V263.969h15.999v207.986h15.999v-327.89
	C499.969,144.035,499.977,144.007,499.977,143.975z"/>
<rect x="3.995" y="15.984" style="fill:#AC92EC;" width="327.98" height="327.98"/>
<circle style="fill:#656D78;" cx="167.985" cy="179.975" r="123.99"/>
<g style="opacity:0.2;">
	<path d="M59.997,179.973c0-65.781,51.258-119.446,115.993-123.59c-2.656-0.168-5.3-0.402-8-0.402
		c-68.48,0-123.992,55.512-123.992,123.993c0,68.48,55.512,123.992,123.992,123.992c2.699,0,5.344-0.234,8-0.406
		C111.256,299.419,59.997,245.755,59.997,179.973z"/>
</g>
<polygon style="fill:#967ADC;" points="2.289,343.964 50.286,391.961 378.266,391.961 330.269,343.964 "/>
<g style="opacity:0.3;">
	<polygon style="fill:#FFFFFF;" points="2.289,343.964 50.286,391.961 66.285,391.961 18.288,343.964 	"/>
</g>
<g style="opacity:0.2;">
	<polygon points="314.262,343.964 362.259,391.961 378.258,391.961 330.261,343.964 	"/>
</g>
<g>
	<circle style="fill:#CCD1D9;" cx="43.995" cy="55.982" r="8"/>
	<path style="fill:#CCD1D9;" d="M299.982,55.982c0,4.417-3.578,8-8,8c-4.421,0-7.999-3.582-7.999-8s3.578-8,7.999-8
		C296.404,47.982,299.982,51.563,299.982,55.982z"/>
	<path style="fill:#CCD1D9;" d="M51.997,303.965c0,4.422-3.582,7.999-7.999,7.999c-4.418,0-8-3.577-8-7.999s3.582-7.999,8-7.999
		S51.997,299.544,51.997,303.965z"/>
	<path style="fill:#CCD1D9;" d="M299.982,303.965c0,4.422-3.578,7.999-8,7.999c-4.421,0-7.999-3.577-7.999-7.999
		s3.578-7.999,7.999-7.999C296.404,295.966,299.982,299.544,299.982,303.965z"/>
</g>
<polygon style="fill:#AAB2BD;" points="363.978,311.965 347.979,295.966 347.979,271.967 363.978,287.966 "/>
<polygon style="fill:#656D78;" points="363.978,335.964 347.979,319.965 347.979,295.966 363.978,311.965 "/>
<g style="opacity:0.2;">
	<rect x="419.975" y="183.975" style="fill:#FFFFFF;" width="8" height="87.995"/>
</g>
<g style="opacity:0.2;">
	<rect x="435.975" y="167.975" style="fill:#FFFFFF;" width="8" height="159.99"/>
</g>
<g style="opacity:0.2;">
	<rect x="451.975" y="151.964" style="fill:#FFFFFF;" width="8" height="239.99"/>
</g>
<g style="opacity:0.2;">
	<rect x="467.975" y="143.975" style="fill:#FFFFFF;" width="8" height="119.99"/>
</g>
<g style="opacity:0.2;">
	<rect x="483.975" y="143.975" style="fill:#FFFFFF;" width="8" height="327.98"/>
</g>
<g style="opacity:0.2;">
	<rect x="355.975" y="175.975" style="fill:#FFFFFF;" width="71.996" height="8"/>
</g>
<g style="opacity:0.2;">
	<rect x="355.975" y="159.975" style="fill:#FFFFFF;" width="87.995" height="8"/>
</g>
<g style="opacity:0.2;">
	<rect x="355.975" y="143.975" style="fill:#FFFFFF;" width="103.99" height="8"/>
</g>
<g style="opacity:0.2;">
	<rect x="355.975" y="127.975" style="fill:#FFFFFF;" width="103.99" height="8"/>
</g>
<g style="opacity:0.2;">
	<rect x="355.975" y="111.975" style="fill:#FFFFFF;" width="103.99" height="8"/>
</g>
<g style="opacity:0.2;">
	<path style="fill:#FFFFFF;" d="M467.971,143.967c0,0.004,0,0.004,0,0.004l8,0.004c0,0,0-0.004,0-0.008
		c0-8.824-7.18-15.999-15.999-15.999v8C464.385,135.968,467.971,139.557,467.971,143.967z"/>
</g>
<g style="opacity:0.2;">
	<path style="fill:#FFFFFF;" d="M459.972,111.978v8c13.233,0,23.998,10.765,23.998,23.999h8
		C491.97,126.333,477.62,111.978,459.972,111.978z"/>
</g>
<rect x="411.975" y="271.965" style="fill:#5D9CEC;" width="23.998" height="15.999"/>
<g>
	<rect x="467.975" y="263.965" style="fill:#A0D468;" width="15.999" height="23.998"/>
	<rect x="435.975" y="327.965" style="fill:#A0D468;" width="15.999" height="23.998"/>
</g>
<rect x="475.975" y="471.954" style="fill:#FFCE54;" width="31.998" height="23.999"/>
<rect x="419.975" y="391.965" style="fill:#48CFAD;" width="63.996" height="31.998"/>
<g style="opacity:0.3;">
	<rect x="3.995" y="15.984" style="fill:#FFFFFF;" width="15.999" height="327.98"/>
</g>
<g style="opacity:0.2;">
	<rect x="315.985" y="15.984" width="15.999" height="327.98"/>
</g>
<g style="opacity:0.3;">
	<polygon style="fill:#FFFFFF;" points="355.978,279.966 347.979,271.967 347.979,295.966 347.979,319.965 355.978,327.965 	"/>
</g>
<g>
	<path style="fill:#3A3847;" d="M68.235,363.962c-2.207,0-4.039-1.789-4.039-3.999c0-2.211,1.75-4,3.96-4h0.078c2.211,0,4,1.789,4,4
		C72.235,362.172,70.445,363.962,68.235,363.962z"/>
	<path style="fill:#3A3847;" d="M84.234,379.961c-2.207,0-4.039-1.789-4.039-4c0-2.21,1.75-3.999,3.96-3.999h0.078
		c2.211,0,4,1.789,4,3.999C88.234,378.172,86.444,379.961,84.234,379.961z"/>
	<path style="fill:#3A3847;" d="M116.232,379.961c-2.207,0-4.039-1.789-4.039-4c0-2.21,1.75-3.999,3.96-3.999h0.078
		c2.211,0,4,1.789,4,3.999C120.232,378.172,118.443,379.961,116.232,379.961z"/>
	<path style="fill:#3A3847;" d="M100.233,363.962c-2.207,0-4.039-1.789-4.039-3.999c0-2.211,1.75-4,3.96-4h0.078
		c2.211,0,4,1.789,4,4C104.233,362.172,102.443,363.962,100.233,363.962z"/>
	<path style="fill:#3A3847;" d="M132.231,363.962c-2.207,0-4.039-1.789-4.039-3.999c0-2.211,1.75-4,3.96-4h0.078
		c2.211,0,4,1.789,4,4C136.231,362.172,134.442,363.962,132.231,363.962z"/>
	<path style="fill:#3A3847;" d="M148.23,379.961c-2.207,0-4.039-1.789-4.039-4c0-2.21,1.75-3.999,3.96-3.999h0.078
		c2.211,0,4,1.789,4,3.999C152.23,378.172,150.441,379.961,148.23,379.961z"/>
	<path style="fill:#3A3847;" d="M180.228,379.961c-2.207,0-4.039-1.789-4.039-4c0-2.21,1.75-3.999,3.96-3.999h0.078
		c2.211,0,4,1.789,4,3.999C184.228,378.172,182.439,379.961,180.228,379.961z"/>
	<path style="fill:#3A3847;" d="M164.229,363.962c-2.207,0-4.039-1.789-4.039-3.999c0-2.211,1.75-4,3.96-4h0.078
		c2.211,0,4,1.789,4,4C168.229,362.172,166.44,363.962,164.229,363.962z"/>
	<path style="fill:#3A3847;" d="M196.227,363.962c-2.207,0-4.039-1.789-4.039-3.999c0-2.211,1.75-4,3.96-4h0.078
		c2.211,0,4,1.789,4,4C200.227,362.172,198.438,363.962,196.227,363.962z"/>
	<path style="fill:#3A3847;" d="M212.226,379.961c-2.207,0-4.039-1.789-4.039-4c0-2.21,1.75-3.999,3.96-3.999h0.078
		c2.211,0,4,1.789,4,3.999C216.226,378.172,214.437,379.961,212.226,379.961z"/>
	<path style="fill:#3A3847;" d="M244.224,379.961c-2.207,0-4.039-1.789-4.039-4c0-2.21,1.75-3.999,3.96-3.999h0.078
		c2.211,0,4,1.789,4,3.999C248.224,378.172,246.435,379.961,244.224,379.961z"/>
	<path style="fill:#3A3847;" d="M228.225,363.962c-2.207,0-4.039-1.789-4.039-3.999c0-2.211,1.75-4,3.96-4h0.078
		c2.211,0,4,1.789,4,4C232.225,362.172,230.436,363.962,228.225,363.962z"/>
	<path style="fill:#3A3847;" d="M260.222,363.962c-2.207,0-4.038-1.789-4.038-3.999c0-2.211,1.75-4,3.959-4h0.078
		c2.211,0,4.004,1.789,4.004,4C264.226,362.172,262.433,363.962,260.222,363.962z"/>
	<path style="fill:#3A3847;" d="M276.225,379.961c-2.211,0-4.039-1.789-4.039-4c0-2.21,1.75-3.999,3.953-3.999h0.086
		c2.203,0,4,1.789,4,3.999C280.225,378.172,278.428,379.961,276.225,379.961z"/>
	<path style="fill:#3A3847;" d="M308.223,379.961c-2.211,0-4.039-1.789-4.039-4c0-2.21,1.75-3.999,3.953-3.999h0.086
		c2.203,0,4,1.789,4,3.999C312.223,378.172,310.426,379.961,308.223,379.961z"/>
	<path style="fill:#3A3847;" d="M292.224,363.962c-2.211,0-4.038-1.789-4.038-3.999c0-2.211,1.75-4,3.952-4h0.086
		c2.203,0,4,1.789,4,4C296.224,362.172,294.427,363.962,292.224,363.962z"/>
	<path style="fill:#3A3847;" d="M331.98,347.964H4c-2.21,0-4-1.789-4-4V15.984c0-2.211,1.789-4,4-4h327.98
		c2.21,0,3.999,1.789,3.999,4v327.979C335.979,346.173,334.19,347.964,331.98,347.964z M8,339.964h319.98V19.984H8V339.964z"/>
	<path style="fill:#3A3847;" d="M379.977,395.961H51.997c-2.21,0-4-1.789-4-3.999c0-2.211,1.789-4,4-4h323.98V191.973
		c0-2.211,1.789-4,4-4s4,1.789,4,4v199.988C383.977,394.172,382.188,395.961,379.977,395.961z"/>
	<path style="fill:#3A3847;" d="M51.997,395.961c-1.023,0-2.046-0.391-2.828-1.172L1.173,346.792c-1.563-1.563-1.563-4.094,0-5.655
		c1.562-1.563,4.093-1.563,5.656,0l47.997,47.997c1.563,1.563,1.563,4.094,0,5.655C54.044,395.569,53.021,395.961,51.997,395.961z"
		/>
	<path style="fill:#3A3847;" d="M379.977,395.961c-1.023,0-2.047-0.391-2.828-1.172l-47.997-47.997
		c-1.563-1.563-1.563-4.094,0-5.655c1.563-1.563,4.094-1.563,5.655,0l47.998,47.997c1.563,1.563,1.563,4.094,0,5.655
		C382.024,395.569,381.001,395.961,379.977,395.961z"/>
	<path style="fill:#3A3847;" d="M379.977,67.981c-1.023,0-2.047-0.391-2.828-1.172l-47.997-47.997c-1.563-1.563-1.563-4.094,0-5.656
		s4.094-1.563,5.655,0l47.998,47.997c1.563,1.563,1.563,4.094,0,5.656C382.024,67.59,381.001,67.981,379.977,67.981z"/>
	<path style="fill:#3A3847;" d="M100.584,99.596c-1.176,0-2.336-0.512-3.128-1.5c-1.379-1.727-1.098-4.242,0.625-5.625
		c20.03-16.022,44.205-24.49,69.91-24.49c2.211,0,4,1.789,4,4s-1.789,4-4,4c-23.87,0-46.317,7.863-64.91,22.741
		C102.342,99.311,101.459,99.596,100.584,99.596z"/>
	<path style="fill:#3A3847;" d="M59.997,183.973c-2.211,0-4-1.789-4-4c0-25.565,8.839-50.567,24.889-70.402
		c1.386-1.719,3.91-1.98,5.625-0.594c1.719,1.391,1.984,3.91,0.594,5.625c-14.901,18.417-23.108,41.63-23.108,65.371
		C63.997,182.184,62.208,183.973,59.997,183.973z"/>
	<path style="fill:#3A3847;" d="M89.124,88.292c-1.156,0-2.297-0.496-3.09-1.453c-1.406-1.703-1.164-4.226,0.539-5.632
		c22.839-18.847,51.755-29.225,81.417-29.225c2.211,0,4,1.789,4,4s-1.789,4-4,4c-27.811,0-54.915,9.73-76.323,27.397
		C90.921,87.991,90.019,88.292,89.124,88.292z"/>
	<path style="fill:#3A3847;" d="M43.998,183.973c-2.211,0-4-1.789-4-4c0-29.616,10.354-58.5,29.154-81.327
		c1.398-1.699,3.914-1.957,5.629-0.543c1.707,1.402,1.949,3.921,0.543,5.628c-17.62,21.397-27.327,48.474-27.327,76.242
		C47.998,182.184,46.209,183.973,43.998,183.973z"/>
	<path style="fill:#3A3847;" d="M111.982,110.994c-1.199,0-2.386-0.539-3.175-1.563c-1.348-1.75-1.016-4.261,0.734-5.609
		c16.889-12.98,37.103-19.842,58.449-19.842c2.211,0,4,1.789,4,4s-1.789,4-4,4c-19.569,0-38.095,6.289-53.575,18.187
		C113.689,110.724,112.83,110.994,111.982,110.994z"/>
	<path style="fill:#3A3847;" d="M75.996,183.973c-2.211,0-4-1.789-4-4c0-21.351,6.863-41.561,19.843-58.45
		c1.348-1.758,3.855-2.082,5.609-0.734c1.75,1.347,2.082,3.859,0.734,5.609c-11.897,15.479-18.186,34.006-18.186,53.575
		C79.996,182.184,78.207,183.973,75.996,183.973z"/>
	<path style="fill:#3A3847;" d="M123.411,122.423c-1.238,0-2.461-0.574-3.242-1.652c-1.297-1.785-0.898-4.289,0.891-5.585
		c13.71-9.949,29.939-15.206,46.931-15.206c2.211,0,4,1.789,4,4s-1.789,4-4,4c-15.292,0-29.896,4.73-42.235,13.683
		C125.048,122.176,124.224,122.423,123.411,122.423z"/>
	<path style="fill:#3A3847;" d="M91.995,183.973c-2.211,0-4-1.789-4-4c0-16.995,5.262-33.225,15.21-46.927
		c1.301-1.785,3.789-2.191,5.59-0.887c1.785,1.301,2.183,3.8,0.887,5.589c-8.957,12.327-13.687,26.928-13.687,42.224
		C95.995,182.184,94.206,183.973,91.995,183.973z"/>
	<path style="fill:#3A3847;" d="M134.91,133.914c-1.297,0-2.57-0.629-3.34-1.793c-1.219-1.84-0.715-4.32,1.129-5.543
		c10.472-6.933,22.675-10.601,35.291-10.601c2.211,0,4,1.789,4,4s-1.789,4-4,4c-11.038,0-21.718,3.207-30.877,9.273
		C136.434,133.699,135.668,133.914,134.91,133.914z"/>
	<path style="fill:#3A3847;" d="M107.994,183.973c-2.211,0-4-1.789-4-4c0-12.597,3.668-24.8,10.604-35.291
		c1.215-1.844,3.695-2.355,5.543-1.129c1.844,1.219,2.348,3.699,1.129,5.543c-6.07,9.175-9.277,19.854-9.277,30.877
		C111.994,182.184,110.205,183.973,107.994,183.973z"/>
	<path style="fill:#3A3847;" d="M146.538,145.553c-1.402,0-2.761-0.738-3.496-2.047c-1.078-1.93-0.387-4.367,1.543-5.445
		c7.125-3.98,15.218-6.085,23.405-6.085c2.211,0,4,1.789,4,4s-1.789,4-4,4c-6.824,0-13.569,1.754-19.507,5.07
		C147.866,145.389,147.198,145.553,146.538,145.553z"/>
	<path style="fill:#3A3847;" d="M123.993,183.973c-2.211,0-4-1.789-4-4c0-8.203,2.105-16.296,6.082-23.405
		c1.082-1.93,3.508-2.625,5.445-1.539c1.93,1.082,2.617,3.52,1.539,5.445c-3.316,5.921-5.066,12.663-5.066,19.499
		C127.993,182.184,126.204,183.973,123.993,183.973z"/>
	<path style="fill:#3A3847;" d="M158.592,157.6c-1.644,0-3.183-1.02-3.769-2.656c-0.738-2.082,0.348-4.371,2.426-5.112
		c3.457-1.23,7.073-1.855,10.741-1.855c2.211,0,4,1.789,4,4s-1.789,4-4,4c-2.75,0-5.461,0.469-8.054,1.395
		C159.491,157.525,159.038,157.6,158.592,157.6z"/>
	<path style="fill:#3A3847;" d="M139.992,183.973c-2.211,0-4-1.789-4-4c0-3.688,0.621-7.305,1.848-10.75
		c0.742-2.082,3.008-3.168,5.113-2.426c2.078,0.742,3.164,3.031,2.426,5.113c-0.922,2.578-1.387,5.289-1.387,8.063
		C143.992,182.184,142.203,183.973,139.992,183.973z"/>
	<path style="fill:#3A3847;" d="M107.994,59.98H67.996c-2.21,0-4-1.789-4-4s1.789-4,4-4h39.998c2.21,0,4,1.789,4,4
		S110.205,59.98,107.994,59.98z"/>
	<path style="fill:#3A3847;" d="M43.998,123.977c-2.211,0-4-1.789-4-4V79.98c0-2.211,1.789-4,4-4c2.21,0,4,1.789,4,4v39.998
		C47.998,122.188,46.209,123.977,43.998,123.977z"/>
	<path style="fill:#3A3847;" d="M43.998,67.981c-6.617,0-12-5.383-12-12s5.382-12,12-12c6.616,0,11.999,5.383,11.999,12
		S50.614,67.981,43.998,67.981z M43.998,51.982c-2.207,0-4,1.793-4,4s1.793,4,4,4s4-1.793,4-4S46.205,51.982,43.998,51.982z"/>
	<path style="fill:#3A3847;" d="M155.991,171.973c-1.023,0-2.047-0.391-2.828-1.172L46.822,64.465c-1.562-1.563-1.562-4.094,0-5.656
		c1.563-1.562,4.093-1.562,5.656,0l106.341,106.338c1.563,1.562,1.563,4.093,0,5.655
		C158.038,171.583,157.015,171.973,155.991,171.973z"/>
	<path style="fill:#3A3847;" d="M275.983,183.973c-2.211,0-4-1.789-4-4c0-23.87-7.866-46.317-22.74-64.91
		c-1.379-1.727-1.098-4.242,0.625-5.625c1.73-1.387,4.246-1.09,5.625,0.625c16.021,20.03,24.49,44.204,24.49,69.91
		C279.983,182.184,278.194,183.973,275.983,183.973z"/>
	<path style="fill:#3A3847;" d="M235.873,99.979c-0.883,0-1.77-0.293-2.512-0.891C214.94,84.187,191.727,75.98,167.99,75.98
		c-2.211,0-4-1.789-4-4s1.789-4,4-4c25.561,0,50.563,8.839,70.402,24.889c1.719,1.391,1.984,3.906,0.594,5.625
		C238.197,99.471,237.041,99.979,235.873,99.979z"/>
	<path style="fill:#3A3847;" d="M291.982,183.973c-2.21,0-3.999-1.789-3.999-4c0-27.807-9.727-54.911-27.397-76.324
		c-1.406-1.707-1.164-4.226,0.539-5.632c1.711-1.398,4.234-1.156,5.633,0.539c18.843,22.842,29.225,51.758,29.225,81.417
		C295.982,182.184,294.193,183.973,291.982,183.973z"/>
	<path style="fill:#3A3847;" d="M246.771,88.222c-0.895,0-1.793-0.297-2.539-0.914c-21.397-17.62-48.474-27.327-76.241-27.327
		c-2.211,0-4-1.789-4-4s1.789-4,4-4c29.615,0,58.5,10.354,81.327,29.154c1.707,1.402,1.949,3.922,0.543,5.628
		C249.071,87.726,247.927,88.222,246.771,88.222z"/>
	<path style="fill:#3A3847;" d="M259.984,183.973c-2.21,0-3.999-1.789-3.999-4c0-19.565-6.289-38.092-18.186-53.575
		c-1.348-1.754-1.016-4.262,0.734-5.609c1.766-1.344,4.265-1.008,5.609,0.734c12.98,16.893,19.842,37.107,19.842,58.45
		C263.984,182.184,262.195,183.973,259.984,183.973z"/>
	<path style="fill:#3A3847;" d="M223.999,110.994c-0.848,0-1.707-0.27-2.433-0.828c-15.484-11.897-34.01-18.187-53.575-18.187
		c-2.211,0-4-1.789-4-4s1.789-4,4-4c21.343,0,41.556,6.862,58.449,19.842c1.75,1.348,2.082,3.855,0.734,5.609
		C226.385,110.455,225.198,110.994,223.999,110.994z"/>
	<path style="fill:#3A3847;" d="M243.985,183.973c-2.21,0-4-1.789-4-4c0-15.292-4.73-29.897-13.683-42.236
		c-1.296-1.785-0.898-4.289,0.891-5.585c1.781-1.301,4.289-0.891,5.586,0.891c9.948,13.71,15.206,29.939,15.206,46.931
		C247.985,182.184,246.196,183.973,243.985,183.973z"/>
	<path style="fill:#3A3847;" d="M212.566,122.43c-0.813,0-1.637-0.246-2.348-0.761c-12.331-8.957-26.936-13.691-42.228-13.691
		c-2.211,0-4-1.789-4-4s1.789-4,4-4c16.995,0,33.221,5.261,46.931,15.214c1.785,1.301,2.184,3.8,0.887,5.589
		C215.023,121.86,213.804,122.43,212.566,122.43z"/>
	<path style="fill:#3A3847;" d="M227.986,183.973c-2.21,0-4-1.789-4-4c0-11.035-3.207-21.714-9.277-30.877
		c-1.219-1.84-0.715-4.32,1.129-5.543c1.84-1.227,4.32-0.715,5.543,1.129c6.937,10.476,10.604,22.678,10.604,35.291
		C231.986,182.184,230.197,183.973,227.986,183.973z"/>
	<path style="fill:#3A3847;" d="M201.07,133.914c-0.758,0-1.523-0.215-2.203-0.664c-9.175-6.066-19.851-9.273-30.877-9.273
		c-2.211,0-4-1.789-4-4s1.789-4,4-4c12.597,0,24.803,3.664,35.291,10.601c1.844,1.219,2.348,3.699,1.129,5.543
		C203.641,133.285,202.367,133.914,201.07,133.914z"/>
	<path style="fill:#3A3847;" d="M211.987,183.973c-2.21,0-4-1.789-4-4c0-6.832-1.754-13.574-5.07-19.499
		c-1.078-1.926-0.391-4.363,1.539-5.445c1.925-1.078,4.367-0.383,5.445,1.539c3.98,7.113,6.085,15.206,6.085,23.405
		C215.987,182.184,214.198,183.973,211.987,183.973z"/>
	<path style="fill:#3A3847;" d="M189.439,145.553c-0.66,0-1.332-0.164-1.953-0.512c-5.914-3.313-12.656-5.066-19.495-5.066
		c-2.211,0-4-1.789-4-4s1.789-4,4-4c8.207,0,16.3,2.105,23.409,6.089c1.926,1.078,2.613,3.516,1.531,5.445
		C192.2,144.82,190.84,145.553,189.439,145.553z"/>
	<path style="fill:#3A3847;" d="M195.988,183.973c-2.21,0-4-1.789-4-4c0-2.758-0.469-5.469-1.391-8.055
		c-0.738-2.082,0.348-4.371,2.426-5.113c2.085-0.742,4.367,0.344,5.113,2.426c1.227,3.453,1.852,7.066,1.852,10.742
		C199.988,182.184,198.199,183.973,195.988,183.973z"/>
	<path style="fill:#3A3847;" d="M177.396,157.591c-0.445,0-0.898-0.074-1.344-0.23c-2.578-0.922-5.289-1.387-8.062-1.387
		c-2.211,0-4-1.789-4-4s1.789-4,4-4c3.688,0,7.304,0.621,10.749,1.848c2.078,0.742,3.164,3.031,2.426,5.112
		C180.579,156.572,179.04,157.591,177.396,157.591z"/>
	<path style="fill:#3A3847;" d="M291.982,123.977c-2.21,0-3.999-1.789-3.999-4V79.98c0-2.211,1.789-4,3.999-4c2.211,0,4,1.789,4,4
		v39.998C295.982,122.188,294.193,123.977,291.982,123.977z"/>
	<path style="fill:#3A3847;" d="M267.984,59.98h-39.998c-2.21,0-4-1.789-4-4s1.789-4,4-4h39.998c2.21,0,3.999,1.789,3.999,4
		S270.194,59.98,267.984,59.98z"/>
	<path style="fill:#3A3847;" d="M291.982,67.981c-6.616,0-11.999-5.383-11.999-12s5.383-12,11.999-12
		c6.617,0,11.999,5.383,11.999,12S298.599,67.981,291.982,67.981z M291.982,51.982c-2.202,0-3.999,1.793-3.999,4s1.797,4,3.999,4
		c2.203,0,4-1.793,4-4S294.185,51.982,291.982,51.982z"/>
	<path style="fill:#3A3847;" d="M179.989,171.973c-1.023,0-2.046-0.391-2.828-1.172c-1.563-1.562-1.563-4.093,0-5.655
		L283.499,58.809c1.563-1.562,4.094-1.562,5.656,0c1.562,1.563,1.562,4.094,0,5.656L182.818,170.801
		C182.036,171.583,181.013,171.973,179.989,171.973z"/>
	<path style="fill:#3A3847;" d="M167.99,291.966c-2.211,0-4-1.789-4-4s1.789-4,4-4c23.87,0,46.317-7.866,64.91-22.74
		c1.734-1.379,4.242-1.102,5.625,0.625c1.379,1.727,1.098,4.241-0.625,5.624C217.87,283.499,193.696,291.966,167.99,291.966z"/>
	<path style="fill:#3A3847;" d="M251.982,251.859c-0.883,0-1.773-0.293-2.512-0.891c-1.719-1.39-1.984-3.91-0.594-5.624
		c14.901-18.417,23.107-41.631,23.107-65.371c0-2.211,1.789-4,4-4s4,1.789,4,4c0,25.564-8.836,50.567-24.889,70.401
		C254.305,251.352,253.15,251.859,251.982,251.859z"/>
	<path style="fill:#3A3847;" d="M167.99,307.965c-2.211,0-4-1.789-4-4s1.789-4,4-4c27.811,0,54.915-9.726,76.323-27.396
		c1.707-1.414,4.223-1.164,5.633,0.539c1.406,1.703,1.164,4.227-0.539,5.632C226.568,297.585,197.652,307.965,167.99,307.965z"/>
	<path style="fill:#3A3847;" d="M263.738,262.758c-0.895,0-1.793-0.297-2.539-0.914c-1.707-1.402-1.949-3.922-0.543-5.629
		c17.624-21.397,27.327-48.474,27.327-76.241c0-2.211,1.789-4,3.999-4c2.211,0,4,1.789,4,4c0,29.615-10.351,58.5-29.154,81.327
		C266.039,262.262,264.89,262.758,263.738,262.758z"/>
	<path style="fill:#3A3847;" d="M167.99,275.967c-2.211,0-4-1.789-4-4s1.789-4,4-4c19.569,0,38.095-6.288,53.575-18.186
		c1.761-1.344,4.265-1.008,5.608,0.734c1.348,1.75,1.016,4.262-0.734,5.609C209.55,269.108,189.337,275.967,167.99,275.967z"/>
	<path style="fill:#3A3847;" d="M240.966,239.986c-0.852,0-1.707-0.27-2.434-0.828c-1.75-1.348-2.082-3.859-0.734-5.609
		c11.898-15.48,18.187-34.006,18.187-53.575c0-2.211,1.789-4,3.999-4c2.211,0,4,1.789,4,4c0,21.35-6.862,41.56-19.842,58.449
		C243.353,239.447,242.165,239.986,240.966,239.986z"/>
	<path style="fill:#3A3847;" d="M167.99,259.969c-2.211,0-4-1.789-4-4s1.789-4,4-4c15.292,0,29.896-4.73,42.235-13.683
		c1.781-1.305,4.289-0.898,5.586,0.891c1.297,1.785,0.898,4.289-0.891,5.586C201.211,254.712,184.982,259.969,167.99,259.969z"/>
	<path style="fill:#3A3847;" d="M229.533,228.548c-0.813,0-1.637-0.246-2.348-0.762c-1.785-1.301-2.183-3.801-0.887-5.59
		c8.957-12.327,13.687-26.928,13.687-42.224c0-2.211,1.789-4,4-4s4,1.789,4,4c0,16.995-5.262,33.225-15.21,46.927
		C231.99,227.979,230.772,228.548,229.533,228.548z"/>
	<path style="fill:#3A3847;" d="M167.99,243.969c-2.211,0-4-1.789-4-4s1.789-4,4-4c11.038,0,21.718-3.207,30.877-9.272
		c1.832-1.223,4.32-0.719,5.543,1.129c1.219,1.84,0.715,4.32-1.129,5.542C192.809,240.301,180.607,243.969,167.99,243.969z"/>
	<path style="fill:#3A3847;" d="M218.042,217.057c-0.758,0-1.523-0.215-2.203-0.664c-1.844-1.219-2.348-3.699-1.129-5.542
		c6.07-9.175,9.277-19.854,9.277-30.877c0-2.211,1.789-4,4-4s4,1.789,4,4c0,12.597-3.668,24.799-10.604,35.291
		C220.612,216.428,219.339,217.057,218.042,217.057z"/>
	<path style="fill:#3A3847;" d="M167.99,227.97c-2.211,0-4-1.789-4-4s1.789-4,4-4c6.824,0,13.569-1.754,19.507-5.07
		c1.926-1.078,4.363-0.383,5.441,1.539c1.078,1.929,0.387,4.367-1.543,5.445C184.271,225.865,176.177,227.97,167.99,227.97z"/>
	<path style="fill:#3A3847;" d="M206.41,205.424c-0.66,0-1.332-0.164-1.949-0.508c-1.93-1.082-2.617-3.519-1.539-5.445
		c3.316-5.921,5.066-12.664,5.066-19.499c0-2.211,1.789-4,4-4s4,1.789,4,4c0,8.202-2.105,16.296-6.082,23.404
		C209.172,204.686,207.812,205.424,206.41,205.424z"/>
	<path style="fill:#3A3847;" d="M167.99,211.971c-2.211,0-4-1.789-4-4s1.789-4,4-4c2.75,0,5.461-0.469,8.054-1.395
		c2.093-0.734,4.367,0.348,5.113,2.426c0.738,2.082-0.348,4.371-2.426,5.113C175.275,211.346,171.658,211.971,167.99,211.971z"/>
	<path style="fill:#3A3847;" d="M194.371,193.38c-0.445,0-0.898-0.074-1.343-0.23c-2.078-0.742-3.164-3.031-2.426-5.113
		c0.922-2.578,1.387-5.289,1.387-8.062c0-2.211,1.789-4,4-4s4,1.789,4,4c0,3.687-0.621,7.304-1.848,10.749
		C197.555,192.359,196.016,193.38,194.371,193.38z"/>
	<path style="fill:#3A3847;" d="M267.984,307.965h-39.998c-2.21,0-4-1.789-4-4s1.789-4,4-4h39.998c2.21,0,3.999,1.789,3.999,4
		S270.194,307.965,267.984,307.965z"/>
	<path style="fill:#3A3847;" d="M291.982,283.966c-2.21,0-3.999-1.789-3.999-4v-39.997c0-2.211,1.789-4,3.999-4c2.211,0,4,1.789,4,4
		v39.997C295.982,282.177,294.193,283.966,291.982,283.966z"/>
	<path style="fill:#3A3847;" d="M291.982,315.965c-6.616,0-11.999-5.383-11.999-11.999s5.383-11.999,11.999-11.999
		c6.617,0,11.999,5.383,11.999,11.999S298.599,315.965,291.982,315.965z M291.982,299.965c-2.202,0-3.999,1.797-3.999,4
		s1.797,4,3.999,4c2.203,0,4-1.797,4-4S294.185,299.965,291.982,299.965z"/>
	<path style="fill:#3A3847;" d="M286.335,302.31c-1.023,0-2.047-0.391-2.828-1.172L177.162,194.8c-1.563-1.563-1.563-4.094,0-5.656
		c1.562-1.563,4.093-1.563,5.656,0l106.345,106.338c1.562,1.563,1.562,4.093,0,5.655C288.381,301.919,287.358,302.31,286.335,302.31
		z"/>
	<path style="fill:#3A3847;" d="M83.616,251.382c-1.176,0-2.335-0.516-3.128-1.5c-16.022-20.03-24.491-44.205-24.491-69.91
		c0-2.211,1.789-4,4-4c2.21,0,4,1.789,4,4c0,23.869,7.863,46.317,22.741,64.91c1.379,1.726,1.098,4.242-0.625,5.624
		C85.374,251.098,84.491,251.382,83.616,251.382z"/>
	<path style="fill:#3A3847;" d="M167.99,291.966c-25.561,0-50.563-8.836-70.402-24.89c-1.719-1.39-1.984-3.905-0.594-5.624
		c1.386-1.715,3.898-1.977,5.625-0.594c18.421,14.897,41.634,23.107,65.371,23.107c2.211,0,4,1.789,4,4
		S170.201,291.966,167.99,291.966z"/>
	<path style="fill:#3A3847;" d="M72.313,262.844c-1.156,0-2.297-0.496-3.09-1.453c-18.847-22.843-29.225-51.759-29.225-81.417
		c0-2.211,1.789-4,4-4c2.21,0,4,1.789,4,4c0,27.807,9.73,54.91,27.397,76.323c1.406,1.707,1.164,4.227-0.539,5.633
		C74.11,262.543,73.207,262.844,72.313,262.844z"/>
	<path style="fill:#3A3847;" d="M167.99,307.965c-29.615,0-58.5-10.351-81.327-29.155c-1.707-1.405-1.949-3.921-0.543-5.624
		c1.398-1.703,3.918-1.961,5.629-0.547c21.397,17.624,48.474,27.326,76.241,27.326c2.211,0,4,1.789,4,4
		S170.201,307.965,167.99,307.965z"/>
	<path style="fill:#3A3847;" d="M95.014,239.986c-1.203,0-2.386-0.539-3.175-1.563c-12.98-16.894-19.843-37.107-19.843-58.449
		c0-2.211,1.789-4,4-4c2.21,0,4,1.789,4,4c0,19.565,6.289,38.091,18.186,53.575c1.348,1.753,1.016,4.261-0.734,5.609
		C96.721,239.715,95.862,239.986,95.014,239.986z"/>
	<path style="fill:#3A3847;" d="M167.99,275.967c-21.343,0-41.556-6.859-58.449-19.843c-1.75-1.348-2.082-3.855-0.734-5.609
		c1.351-1.742,3.855-2.078,5.608-0.734c15.484,11.898,34.01,18.186,53.575,18.186c2.211,0,4,1.789,4,4
		S170.201,275.967,167.99,275.967z"/>
	<path style="fill:#3A3847;" d="M106.443,228.557c-1.238,0-2.461-0.574-3.242-1.652c-9.948-13.71-15.206-29.939-15.206-46.931
		c0-2.211,1.789-4,4-4c2.21,0,4,1.789,4,4c0,15.292,4.73,29.896,13.683,42.235c1.296,1.785,0.898,4.289-0.891,5.586
		C108.08,228.311,107.256,228.557,106.443,228.557z"/>
	<path style="fill:#3A3847;" d="M167.99,259.969c-16.995,0-33.221-5.262-46.931-15.214c-1.785-1.301-2.184-3.801-0.887-5.59
		c1.293-1.789,3.789-2.188,5.59-0.887c12.331,8.957,26.936,13.69,42.228,13.69c2.211,0,4,1.789,4,4
		C171.99,258.179,170.201,259.969,167.99,259.969z"/>
	<path style="fill:#3A3847;" d="M117.939,217.057c-1.297,0-2.57-0.629-3.34-1.793c-6.937-10.476-10.604-22.678-10.604-35.291
		c0-2.211,1.789-4,4-4c2.21,0,4,1.789,4,4c0,11.034,3.207,21.713,9.277,30.877c1.219,1.84,0.715,4.32-1.129,5.542
		C119.462,216.842,118.696,217.057,117.939,217.057z"/>
	<path style="fill:#3A3847;" d="M167.99,243.969c-12.597,0-24.803-3.664-35.291-10.601c-1.844-1.219-2.348-3.699-1.129-5.542
		c1.219-1.848,3.691-2.352,5.543-1.129c9.175,6.066,19.851,9.272,30.877,9.272c2.211,0,4,1.789,4,4S170.201,243.969,167.99,243.969z
		"/>
	<path style="fill:#3A3847;" d="M129.575,205.424c-1.402,0-2.762-0.738-3.496-2.047c-3.98-7.112-6.085-15.206-6.085-23.404
		c0-2.211,1.789-4,4-4c2.21,0,4,1.789,4,4c0,6.831,1.754,13.573,5.07,19.499c1.078,1.926,0.391,4.363-1.539,5.445
		C130.906,205.26,130.235,205.424,129.575,205.424z"/>
	<path style="fill:#3A3847;" d="M167.99,227.97c-8.207,0-16.3-2.105-23.409-6.09c-1.926-1.078-2.613-3.516-1.531-5.445
		c1.074-1.93,3.496-2.621,5.445-1.531c5.914,3.312,12.656,5.066,19.495,5.066c2.211,0,4,1.789,4,4S170.201,227.97,167.99,227.97z"/>
	<path style="fill:#3A3847;" d="M141.613,193.371c-1.645,0-3.184-1.02-3.77-2.656c-1.227-3.453-1.852-7.066-1.852-10.741
		c0-2.211,1.789-4,4-4c2.21,0,4,1.789,4,4c0,2.757,0.469,5.468,1.391,8.054c0.738,2.082-0.348,4.371-2.426,5.113
		C142.511,193.298,142.058,193.371,141.613,193.371z"/>
	<path style="fill:#3A3847;" d="M167.99,211.971c-3.688,0-7.304-0.621-10.749-1.848c-2.078-0.742-3.164-3.031-2.426-5.113
		c0.742-2.082,3.008-3.171,5.113-2.426c2.578,0.922,5.289,1.387,8.062,1.387c2.211,0,4,1.789,4,4S170.201,211.971,167.99,211.971z"
		/>
	<path style="fill:#3A3847;" d="M43.998,283.966c-2.211,0-4-1.789-4-4v-39.997c0-2.211,1.789-4,4-4c2.21,0,4,1.789,4,4v39.997
		C47.998,282.177,46.209,283.966,43.998,283.966z"/>
	<path style="fill:#3A3847;" d="M107.994,307.965H67.996c-2.21,0-4-1.789-4-4s1.789-4,4-4h39.998c2.21,0,4,1.789,4,4
		S110.205,307.965,107.994,307.965z"/>
	<path style="fill:#3A3847;" d="M43.998,315.965c-6.617,0-12-5.383-12-11.999s5.382-11.999,12-11.999
		c6.616,0,11.999,5.383,11.999,11.999S50.614,315.965,43.998,315.965z M43.998,299.965c-2.207,0-4,1.797-4,4s1.793,4,4,4
		s4-1.797,4-4S46.205,299.965,43.998,299.965z"/>
	<path style="fill:#3A3847;" d="M49.654,302.31c-1.023,0-2.047-0.391-2.828-1.172c-1.562-1.563-1.562-4.093,0-5.655l106.337-106.338
		c1.563-1.563,4.094-1.563,5.656,0c1.563,1.563,1.563,4.094,0,5.656L52.482,301.138C51.7,301.919,50.677,302.31,49.654,302.31z"/>
	<path style="fill:#3A3847;" d="M363.978,339.964c-1.023,0-2.047-0.391-2.828-1.172l-15.999-15.999
		c-1.563-1.563-1.563-4.094,0-5.656s4.094-1.563,5.656,0l15.998,15.999c1.563,1.563,1.563,4.094,0,5.656
		C366.024,339.573,365.002,339.964,363.978,339.964z"/>
	<path style="fill:#3A3847;" d="M363.978,339.964c-2.211,0-4-1.789-4-4v-47.997c0-2.211,1.789-4,4-4c2.21,0,3.999,1.789,3.999,4
		v47.997C367.977,338.174,366.188,339.964,363.978,339.964z"/>
	<path style="fill:#3A3847;" d="M363.978,291.966c-1.023,0-2.047-0.391-2.828-1.172l-15.999-15.999
		c-1.563-1.563-1.563-4.094,0-5.656s4.094-1.563,5.656,0l15.998,15.999c1.563,1.563,1.563,4.094,0,5.656
		C366.024,291.577,365.002,291.966,363.978,291.966z"/>
	<path style="fill:#3A3847;" d="M347.979,323.965c-2.211,0-4-1.789-4-4v-47.997c0-2.211,1.789-4,4-4s4,1.789,4,4v47.997
		C351.979,322.176,350.19,323.965,347.979,323.965z"/>
	<path style="fill:#3A3847;" d="M363.978,315.965c-1.023,0-2.047-0.391-2.828-1.172l-15.999-15.999
		c-1.563-1.562-1.563-4.093,0-5.655s4.094-1.563,5.656,0l15.998,15.999c1.563,1.562,1.563,4.093,0,5.655
		C366.024,315.574,365.002,315.965,363.978,315.965z"/>
	<path style="fill:#3A3847;" d="M459.972,107.978H355.978c-2.21,0-3.999-1.789-3.999-4s1.789-4,3.999-4h103.994
		c2.21,0,3.999,1.789,3.999,4S462.182,107.978,459.972,107.978z"/>
	<path style="fill:#3A3847;" d="M459.972,123.977H355.978c-2.21,0-3.999-1.789-3.999-4s1.789-4,3.999-4h103.994
		c2.21,0,3.999,1.789,3.999,4S462.182,123.977,459.972,123.977z"/>
	<path style="fill:#3A3847;" d="M499.969,147.975c-2.211,0-4-1.789-4-4c0-19.851-16.146-35.998-35.997-35.998c-2.211,0-4-1.789-4-4
		s1.789-4,4-4c24.256,0,43.997,19.737,43.997,43.997C503.969,146.186,502.18,147.975,499.969,147.975z"/>
	<path style="fill:#3A3847;" d="M379.977,99.979c-2.211,0-4-1.789-4-4V63.98c0-2.211,1.789-4,4-4s4,1.789,4,4v31.998
		C383.977,98.19,382.188,99.979,379.977,99.979z"/>
	<path style="fill:#3A3847;" d="M483.97,147.975c-2.21,0-3.999-1.789-3.999-4c0-11.026-8.969-19.999-19.999-19.999
		c-2.211,0-4-1.789-4-4s1.789-4,4-4c15.437,0,27.998,12.562,27.998,27.998C487.97,146.186,486.181,147.975,483.97,147.975z"/>
	<path style="fill:#3A3847;" d="M483.97,475.956c-2.21,0-3.999-1.789-3.999-4v-327.98c0-2.211,1.789-4,3.999-4c2.211,0,4,1.789,4,4
		v327.979C487.97,474.167,486.181,475.956,483.97,475.956z"/>
	<path style="fill:#3A3847;" d="M499.969,475.956c-2.211,0-4-1.789-4-4v-327.98c0-2.211,1.789-4,4-4s4,1.789,4,4v327.979
		C503.969,474.167,502.18,475.956,499.969,475.956z"/>
	<path style="fill:#3A3847;" d="M507.969,475.956h-31.998c-2.211,0-4-1.789-4-4c0-2.21,1.789-3.999,4-3.999h31.998
		c2.211,0,4,1.789,4,3.999C511.969,474.167,510.18,475.956,507.969,475.956z"/>
	<path style="fill:#3A3847;" d="M507.969,499.954c-2.211,0-4-1.789-4-4v-23.999c0-2.21,1.789-3.999,4-3.999s4,1.789,4,3.999v23.999
		C511.969,498.165,510.18,499.954,507.969,499.954z"/>
	<path style="fill:#3A3847;" d="M507.969,499.954h-31.998c-2.211,0-4-1.789-4-4s1.789-4,4-4h31.998c2.211,0,4,1.789,4,4
		S510.18,499.954,507.969,499.954z"/>
	<path style="fill:#3A3847;" d="M475.971,499.954c-2.211,0-4-1.789-4-4v-23.999c0-2.21,1.789-3.999,4-3.999s4,1.789,4,3.999v23.999
		C479.971,498.165,478.182,499.954,475.971,499.954z"/>
	<path style="fill:#3A3847;" d="M459.972,139.975H355.978c-2.21,0-3.999-1.789-3.999-4s1.789-4,3.999-4h103.994
		c2.21,0,3.999,1.789,3.999,4S462.182,139.975,459.972,139.975z"/>
	<path style="fill:#3A3847;" d="M467.971,147.975c-2.211,0-4-1.789-4-4c0-2.207-1.797-4-3.999-4c-2.211,0-4-1.789-4-4s1.789-4,4-4
		c6.616,0,11.999,5.382,11.999,11.999C471.971,146.186,470.182,147.975,467.971,147.975z"/>
	<path style="fill:#3A3847;" d="M467.971,291.966c-2.211,0-4-1.789-4-4V143.975c0-2.211,1.789-4,4-4s4,1.789,4,4v143.991
		C471.971,290.177,470.182,291.966,467.971,291.966z"/>
	<path style="fill:#3A3847;" d="M475.971,267.967h-8c-2.211,0-4-1.789-4-3.999c0-2.211,1.789-4,4-4h8c2.211,0,4,1.789,4,4
		C479.971,266.178,478.182,267.967,475.971,267.967z"/>
	<path style="fill:#3A3847;" d="M475.971,291.966h-8c-2.211,0-4-1.789-4-4s1.789-4,4-4h8c2.211,0,4,1.789,4,4
		S478.182,291.966,475.971,291.966z"/>
	<path style="fill:#3A3847;" d="M451.972,155.975h-95.994c-2.21,0-3.999-1.789-3.999-4s1.789-4,3.999-4h95.994c2.211,0,4,1.789,4,4
		S454.183,155.975,451.972,155.975z"/>
	<path style="fill:#3A3847;" d="M435.973,171.973h-79.995c-2.21,0-3.999-1.789-3.999-4s1.789-4,3.999-4h79.995c2.211,0,4,1.789,4,4
		S438.184,171.973,435.973,171.973z"/>
	<path style="fill:#3A3847;" d="M451.972,395.961c-2.21,0-3.999-1.789-3.999-3.999V151.975c0-2.21,1.789-4,3.999-4
		c2.211,0,4,1.789,4,4v239.986C455.972,394.172,454.183,395.961,451.972,395.961z"/>
	<path style="fill:#3A3847;" d="M475.971,427.958h-55.997c-2.21,0-3.999-1.789-3.999-3.999v-31.998c0-2.211,1.789-4,3.999-4h55.997
		c2.211,0,4,1.789,4,4c0,2.21-1.789,3.999-4,3.999h-51.997v23.999h51.997c2.211,0,4,1.789,4,4
		C479.971,426.169,478.182,427.958,475.971,427.958z"/>
	<path style="fill:#3A3847;" d="M467.971,395.961c-2.211,0-4-1.789-4-3.999v-95.994c0-2.211,1.789-4,4-4s4,1.789,4,4v95.994
		C471.971,394.172,470.182,395.961,467.971,395.961z"/>
	<path style="fill:#3A3847;" d="M491.97,499.986c-2.211,0-4-1.789-4-4v-8.03c0-2.211,1.789-4,4-4c2.21,0,3.999,1.789,3.999,4v8.03
		C495.969,498.197,494.18,499.986,491.97,499.986z"/>
	<path style="fill:#3A3847;" d="M475.971,411.96h-39.998c-2.211,0-4-1.789-4-4c0-2.21,1.789-3.999,4-3.999h39.998
		c2.211,0,4,1.789,4,3.999C479.971,410.171,478.182,411.96,475.971,411.96z"/>
	<path style="fill:#3A3847;" d="M435.973,355.964c-2.211,0-4-1.789-4-4V167.975c0-2.21,1.789-4,4-4s4,1.789,4,4v183.989
		C439.973,354.173,438.184,355.964,435.973,355.964z"/>
	<path style="fill:#3A3847;" d="M443.973,355.964h-8c-2.211,0-4-1.789-4-4s1.789-4,4-4h8c2.211,0,4,1.789,4,4
		S446.184,355.964,443.973,355.964z"/>
	<path style="fill:#3A3847;" d="M443.973,331.964h-8c-2.211,0-4-1.789-4-3.999c0-2.211,1.789-4,4-4h8c2.211,0,4,1.789,4,4
		C447.973,330.174,446.184,331.964,443.973,331.964z"/>
	<path style="fill:#3A3847;" d="M419.974,187.973h-63.996c-2.21,0-3.999-1.789-3.999-4s1.789-4,3.999-4h63.996c2.211,0,4,1.789,4,4
		S422.185,187.973,419.974,187.973z"/>
	<path style="fill:#3A3847;" d="M411.975,291.966c-2.211,0-4-1.789-4-4v-15.999c0-2.211,1.789-4,4-4h4v-83.995
		c0-2.21,1.789-4,3.999-4c2.211,0,4,1.789,4,4v87.995c0,2.211-1.789,4-4,4h-3.999v11.999
		C415.975,290.177,414.186,291.966,411.975,291.966z"/>
	<path style="fill:#3A3847;" d="M427.974,291.966h-15.999c-2.211,0-4-1.789-4-4s1.789-4,4-4h15.999c2.21,0,3.999,1.789,3.999,4
		S430.184,291.966,427.974,291.966z"/>
	<path style="fill:#3A3847;" d="M427.974,275.967h-8c-2.21,0-3.999-1.789-3.999-4s1.789-4,3.999-4h8c2.21,0,3.999,1.789,3.999,4
		S430.184,275.967,427.974,275.967z"/>
</g>
<g>
</g>
<g>
</g>
<g>
</g>
<g>
</g>
<g>
</g>
<g>
</g>
<g>
</g>
<g>
</g>
<g>
</g>
<g>
</g>
<g>
</g>
<g>
</g>
<g>
</g>
<g>
</g>
<g>
</g>
</svg>
