<?xml version="1.0" encoding="iso-8859-1"?>
<!-- Generator: Adobe Illustrator 19.0.0, SVG Export Plug-In . SVG Version: 6.00 Build 0)  -->
<svg version="1.1" id="Capa_1" xmlns="http://www.w3.org/2000/svg" xmlns:xlink="http://www.w3.org/1999/xlink" x="0px" y="0px"
	 viewBox="0 0 511.969 511.969" style="enable-background:new 0 0 511.969 511.969;" xml:space="preserve">
<g>
	<path style="fill:#3A3847;" d="M12.241,267.976c-2.211,0-4.039-1.789-4.039-3.999c0-2.211,1.75-4,3.953-4h0.086
		c2.203,0,4,1.789,4,4C16.241,266.187,14.444,267.976,12.241,267.976z"/>
	<path style="fill:#3A3847;" d="M52.238,251.977c-2.211,0-4.038-1.789-4.038-4s1.75-4,3.952-4h0.086c2.203,0,4,1.789,4,4
		S54.441,251.977,52.238,251.977z"/>
	<path style="fill:#3A3847;" d="M92.236,251.977c-2.211,0-4.039-1.789-4.039-4s1.75-4,3.953-4h0.086c2.203,0,4,1.789,4,4
		S94.439,251.977,92.236,251.977z"/>
	<path style="fill:#3A3847;" d="M124.234,251.977c-2.211,0-4.039-1.789-4.039-4s1.75-4,3.953-4h0.086c2.203,0,4,1.789,4,4
		S126.437,251.977,124.234,251.977z"/>
	<path style="fill:#3A3847;" d="M164.231,251.977c-2.211,0-4.038-1.789-4.038-4s1.75-4,3.952-4h0.086c2.203,0,4,1.789,4,4
		S166.434,251.977,164.231,251.977z"/>
	<path style="fill:#3A3847;" d="M196.229,251.977c-2.211,0-4.038-1.789-4.038-4s1.75-4,3.952-4h0.086c2.203,0,4,1.789,4,4
		S198.432,251.977,196.229,251.977z"/>
	<path style="fill:#3A3847;" d="M236.227,251.977c-2.211,0-4.039-1.789-4.039-4s1.75-4,3.953-4h0.086c2.203,0,4,1.789,4,4
		S238.43,251.977,236.227,251.977z"/>
	<path style="fill:#3A3847;" d="M316.222,251.977c-2.211,0-4.039-1.789-4.039-4s1.75-4,3.953-4h0.086c2.203,0,4,1.789,4,4
		S318.425,251.977,316.222,251.977z"/>
	<path style="fill:#3A3847;" d="M348.22,251.977c-2.211,0-4.039-1.789-4.039-4s1.75-4,3.953-4h0.086c2.203,0,4,1.789,4,4
		S350.423,251.977,348.22,251.977z"/>
	<path style="fill:#3A3847;" d="M388.217,251.977c-2.211,0-4.038-1.789-4.038-4s1.75-4,3.952-4h0.086c2.203,0,4,1.789,4,4
		S390.421,251.977,388.217,251.977z"/>
	<path style="fill:#3A3847;" d="M420.215,251.977c-2.211,0-4.038-1.789-4.038-4s1.75-4,3.952-4h0.086c2.203,0,4,1.789,4,4
		S422.419,251.977,420.215,251.977z"/>
	<path style="fill:#3A3847;" d="M460.213,251.977c-2.211,0-4.039-1.789-4.039-4s1.75-4,3.953-4h0.086c2.202,0,3.999,1.789,3.999,4
		S462.416,251.977,460.213,251.977z"/>
	<path style="fill:#3A3847;" d="M500.211,267.976c-2.211,0-4.039-1.789-4.039-3.999c0-2.211,1.75-4,3.953-4h0.086
		c2.203,0,4,1.789,4,4C504.211,266.187,502.414,267.976,500.211,267.976z"/>
</g>
<rect x="51.994" y="175.985" style="fill:#656D78;" width="39.998" height="47.997"/>
<g style="opacity:0.3;">
	<rect x="51.994" y="175.985" style="fill:#FFFFFF;" width="8" height="39.998"/>
</g>
<g style="opacity:0.2;">
	<rect x="83.994" y="175.985" width="8" height="39.998"/>
</g>
<rect x="123.994" y="175.985" style="fill:#656D78;" width="39.997" height="47.997"/>
<g style="opacity:0.3;">
	<rect x="123.994" y="175.985" style="fill:#FFFFFF;" width="7.999" height="39.998"/>
</g>
<g style="opacity:0.2;">
	<rect x="155.994" y="175.985" width="7.999" height="39.998"/>
</g>
<rect x="195.984" y="175.985" style="fill:#656D78;" width="39.998" height="47.997"/>
<g style="opacity:0.3;">
	<rect x="195.984" y="175.985" style="fill:#FFFFFF;" width="8" height="39.998"/>
</g>
<g style="opacity:0.2;">
	<rect x="227.984" y="175.985" width="8" height="39.998"/>
</g>
<rect x="275.984" y="175.985" style="fill:#656D78;" width="39.998" height="47.997"/>
<g style="opacity:0.3;">
	<rect x="275.984" y="175.985" style="fill:#FFFFFF;" width="8" height="39.998"/>
</g>
<g style="opacity:0.2;">
	<rect x="307.984" y="175.985" width="8" height="39.998"/>
</g>
<rect x="347.974" y="175.985" style="fill:#656D78;" width="39.997" height="47.997"/>
<g style="opacity:0.3;">
	<rect x="347.974" y="175.985" style="fill:#FFFFFF;" width="7.999" height="39.998"/>
</g>
<g style="opacity:0.2;">
	<rect x="379.974" y="175.985" width="7.999" height="39.998"/>
</g>
<rect x="419.974" y="175.985" style="fill:#656D78;" width="39.998" height="47.997"/>
<g style="opacity:0.3;">
	<rect x="419.974" y="175.985" style="fill:#FFFFFF;" width="8" height="39.998"/>
</g>
<g style="opacity:0.2;">
	<rect x="451.974" y="175.985" width="8" height="39.998"/>
</g>
<path style="fill:#A0D468;" d="M99.993,279.983H83.994H67.995H51.996H35.997H3.999v-39.997c4.398,0,8-3.602,8-8s-3.602-8-8-8v-8
	c4.398,0,8-3.601,8-8s-3.602-8-8-8v-55.997h503.97v55.997c-4.398,0-8,3.601-8,8s3.602,8,8,8v8c-4.398,0-8,3.602-8,8s3.602,8,8,8
	v39.997H483.97h-15.999h-15.999h-15.999h-15.999h-16h-15.999h-15.999h-15.999h-15.999h-15.999H307.98h-15.999h-15.999v-15.998
	c0-4.398-3.602-8-7.999-8c-4.398,0-8,3.602-8,8v15.998h-15.999h-15.999h-15.999h-15.999h-15.999h-15.999H147.99h-15.999h-15.999
	H99.993z M459.971,223.987V175.99h-39.998v47.997L459.971,223.987L459.971,223.987z M387.975,223.987V175.99h-39.997v47.997
	L387.975,223.987L387.975,223.987z M315.98,223.987V175.99h-39.998v47.997L315.98,223.987L315.98,223.987z M235.985,223.987V175.99
	h-39.998v47.997L235.985,223.987L235.985,223.987z M163.989,223.987V175.99h-39.997v47.997L163.989,223.987L163.989,223.987z
	 M91.994,223.987V175.99H51.996v47.997L91.994,223.987L91.994,223.987z"/>
<g>
	<rect x="3.994" y="263.985" style="fill:#FFCE54;" width="255.98" height="15.998"/>
	<rect x="275.984" y="263.985" style="fill:#FFCE54;" width="231.99" height="15.998"/>
</g>
<g style="opacity:0.5;">
	<rect x="3.994" y="143.995" style="fill:#FFFFFF;" width="8" height="55.997"/>
</g>
<g style="opacity:0.2;">
	<rect x="499.964" y="143.995" width="8" height="55.997"/>
</g>
<g style="opacity:0.1;">
	<path d="M99.993,287.983H83.994H67.995H51.996H35.997H3.999v-39.998c4.398,0,8-3.601,8-8s-3.602-8-8-8v-8c4.398,0,8-3.602,8-8
		s-3.602-8-8-8v-55.997h503.97v55.997c-4.398,0-8,3.602-8,8s3.602,8,8,8v8c-4.398,0-8,3.601-8,8s3.602,8,8,8v39.998H483.97h-15.999
		h-15.999h-15.999h-15.999h-16h-15.999h-15.999h-15.999h-15.999h-15.999H307.98h-15.999h-15.999v-15.999
		c0-4.398-3.602-7.999-7.999-7.999c-4.398,0-8,3.601-8,7.999v15.999h-15.999h-15.999h-15.999h-15.999h-15.999h-15.999H147.99
		h-15.999h-15.999H99.993z"/>
</g>
<g>
	<path style="fill:#3A3847;" d="M12.241,355.971c-2.211,0-4.039-1.789-4.039-4s1.75-4,3.953-4h0.086c2.203,0,4,1.789,4,4
		S14.444,355.971,12.241,355.971z"/>
	<path style="fill:#3A3847;" d="M52.238,339.972c-2.211,0-4.038-1.789-4.038-4s1.75-4,3.952-4h0.086c2.203,0,4,1.789,4,4
		S54.441,339.972,52.238,339.972z"/>
	<path style="fill:#3A3847;" d="M92.236,339.972c-2.211,0-4.039-1.789-4.039-4s1.75-4,3.953-4h0.086c2.203,0,4,1.789,4,4
		S94.439,339.972,92.236,339.972z"/>
	<path style="fill:#3A3847;" d="M124.234,339.972c-2.211,0-4.039-1.789-4.039-4s1.75-4,3.953-4h0.086c2.203,0,4,1.789,4,4
		S126.437,339.972,124.234,339.972z"/>
	<path style="fill:#3A3847;" d="M164.231,339.972c-2.211,0-4.038-1.789-4.038-4s1.75-4,3.952-4h0.086c2.203,0,4,1.789,4,4
		S166.434,339.972,164.231,339.972z"/>
	<path style="fill:#3A3847;" d="M196.229,339.972c-2.211,0-4.038-1.789-4.038-4s1.75-4,3.952-4h0.086c2.203,0,4,1.789,4,4
		S198.432,339.972,196.229,339.972z"/>
	<path style="fill:#3A3847;" d="M236.227,339.972c-2.211,0-4.039-1.789-4.039-4s1.75-4,3.953-4h0.086c2.203,0,4,1.789,4,4
		S238.43,339.972,236.227,339.972z"/>
	<path style="fill:#3A3847;" d="M316.222,339.972c-2.211,0-4.039-1.789-4.039-4s1.75-4,3.953-4h0.086c2.203,0,4,1.789,4,4
		S318.425,339.972,316.222,339.972z"/>
	<path style="fill:#3A3847;" d="M348.22,339.972c-2.211,0-4.039-1.789-4.039-4s1.75-4,3.953-4h0.086c2.203,0,4,1.789,4,4
		S350.423,339.972,348.22,339.972z"/>
	<path style="fill:#3A3847;" d="M388.217,339.972c-2.211,0-4.038-1.789-4.038-4s1.75-4,3.952-4h0.086c2.203,0,4,1.789,4,4
		S390.421,339.972,388.217,339.972z"/>
	<path style="fill:#3A3847;" d="M420.215,339.972c-2.211,0-4.038-1.789-4.038-4s1.75-4,3.952-4h0.086c2.203,0,4,1.789,4,4
		S422.419,339.972,420.215,339.972z"/>
	<path style="fill:#3A3847;" d="M460.213,339.972c-2.211,0-4.039-1.789-4.039-4s1.75-4,3.953-4h0.086c2.202,0,3.999,1.789,3.999,4
		S462.416,339.972,460.213,339.972z"/>
	<path style="fill:#3A3847;" d="M500.211,355.971c-2.211,0-4.039-1.789-4.039-4s1.75-4,3.953-4h0.086c2.203,0,4,1.789,4,4
		S502.414,355.971,500.211,355.971z"/>
</g>
<rect x="51.994" y="255.985" style="fill:#656D78;" width="39.998" height="55.996"/>
<g style="opacity:0.3;">
	<rect x="51.994" y="255.985" style="fill:#FFFFFF;" width="8" height="55.996"/>
</g>
<g style="opacity:0.2;">
	<rect x="83.994" y="255.985" width="8" height="55.996"/>
</g>
<rect x="123.994" y="255.985" style="fill:#656D78;" width="39.997" height="55.996"/>
<g style="opacity:0.3;">
	<rect x="123.994" y="255.985" style="fill:#FFFFFF;" width="7.999" height="55.996"/>
</g>
<g style="opacity:0.2;">
	<rect x="155.994" y="255.985" width="7.999" height="55.996"/>
</g>
<rect x="195.984" y="255.985" style="fill:#656D78;" width="39.998" height="55.996"/>
<g style="opacity:0.3;">
	<rect x="195.984" y="255.985" style="fill:#FFFFFF;" width="8" height="55.996"/>
</g>
<g style="opacity:0.2;">
	<rect x="227.984" y="255.985" width="8" height="55.996"/>
</g>
<rect x="275.984" y="255.985" style="fill:#656D78;" width="39.998" height="55.996"/>
<g style="opacity:0.3;">
	<rect x="275.984" y="255.985" style="fill:#FFFFFF;" width="8" height="55.996"/>
</g>
<g style="opacity:0.2;">
	<rect x="307.984" y="255.985" width="8" height="55.996"/>
</g>
<rect x="347.974" y="255.985" style="fill:#656D78;" width="39.997" height="55.996"/>
<g style="opacity:0.3;">
	<rect x="347.974" y="255.985" style="fill:#FFFFFF;" width="7.999" height="55.996"/>
</g>
<g style="opacity:0.2;">
	<rect x="379.974" y="255.985" width="7.999" height="55.996"/>
</g>
<rect x="419.974" y="255.985" style="fill:#656D78;" width="39.998" height="55.996"/>
<g style="opacity:0.3;">
	<rect x="419.974" y="255.985" style="fill:#FFFFFF;" width="8" height="55.996"/>
</g>
<g style="opacity:0.2;">
	<rect x="451.974" y="255.985" width="8" height="55.996"/>
</g>
<path style="fill:#A0D468;" d="M99.993,367.978H83.994H67.995H51.996H35.997H3.999v-39.997c4.398,0,8-3.602,8-8s-3.602-8-8-8
	v-15.998c4.398,0,8-3.602,8-8s-3.602-8-8-8v-55.996h503.97v55.996c-4.398,0-8,3.602-8,8s3.602,8,8,8v15.998c-4.398,0-8,3.602-8,8
	s3.602,8,8,8v39.997H483.97h-15.999h-15.999h-15.999h-15.999h-16h-15.999h-15.999h-15.999h-15.999h-15.999H307.98h-15.999h-15.999
	v-15.999c0-4.398-3.602-8-7.999-8c-4.398,0-8,3.602-8,8v15.999h-15.999h-15.999h-15.999h-15.999h-15.999h-15.999H147.99h-15.999
	h-15.999H99.993z M459.971,311.981v-55.996h-39.998v55.996H459.971z M387.975,311.981v-55.996h-39.997v55.996H387.975z
	 M315.98,311.981v-55.996h-39.998v55.996H315.98z M235.985,311.981v-55.996h-39.998v55.996H235.985z M163.989,311.981v-55.996
	h-39.997v55.996H163.989z M91.994,311.981v-55.996H51.996v55.996H91.994z"/>
<g>
	<rect x="3.994" y="351.975" style="fill:#FFCE54;" width="255.98" height="15.999"/>
	<rect x="275.984" y="351.975" style="fill:#FFCE54;" width="231.99" height="15.999"/>
</g>
<g style="opacity:0.5;">
	<rect x="3.994" y="223.985" style="fill:#FFFFFF;" width="8" height="55.996"/>
	<rect x="3.994" y="295.985" style="fill:#FFFFFF;" width="8" height="15.998"/>
	<rect x="3.994" y="327.985" style="fill:#FFFFFF;" width="8" height="39.997"/>
</g>
<g style="opacity:0.2;">
	<rect x="499.964" y="223.985" width="8" height="55.996"/>
	<rect x="499.964" y="295.985" width="8" height="15.998"/>
	<rect x="499.964" y="327.985" width="8" height="39.997"/>
</g>
<g>
	<path style="fill:#3A3847;" d="M507.968,227.987H3.999c-2.21,0-3.999-1.789-3.999-4s1.789-4,3.999-4h503.97c2.211,0,4,1.789,4,4
		S510.179,227.987,507.968,227.987z"/>
	<path style="fill:#3A3847;" d="M3.999,283.983c-2.21,0-3.999-1.789-3.999-4v-55.996c0-2.211,1.789-4,3.999-4c2.211,0,4,1.789,4,4
		v55.996C7.999,282.194,6.21,283.983,3.999,283.983z"/>
	<path style="fill:#3A3847;" d="M3.999,371.978c-2.21,0-3.999-1.789-3.999-4v-39.997c0-2.211,1.789-4,3.999-4c2.211,0,4,1.789,4,4
		v39.997C7.999,370.189,6.21,371.978,3.999,371.978z"/>
	<path style="fill:#3A3847;" d="M3.999,331.98c-2.21,0-3.999-1.789-3.999-3.999c0-2.211,1.789-4,3.999-4c2.203,0,4-1.797,4-4
		s-1.797-4-4-4c-2.21,0-3.999-1.789-3.999-4c0-2.21,1.789-3.999,3.999-3.999c6.617,0,12,5.382,12,11.999S10.616,331.98,3.999,331.98
		z"/>
	<path style="fill:#3A3847;" d="M3.999,299.982c-2.21,0-3.999-1.789-3.999-3.999c0-2.211,1.789-4,3.999-4c2.203,0,4-1.797,4-4
		s-1.797-4-4-4c-2.21,0-3.999-1.789-3.999-4c0-2.21,1.789-3.999,3.999-3.999c6.617,0,12,5.382,12,11.999
		S10.616,299.982,3.999,299.982z"/>
	<path style="fill:#3A3847;" d="M3.999,315.981c-2.21,0-3.999-1.789-3.999-4v-15.998c0-2.211,1.789-4,3.999-4c2.211,0,4,1.789,4,4
		v15.998C7.999,314.192,6.21,315.981,3.999,315.981z"/>
	<path style="fill:#3A3847;" d="M507.968,283.983c-2.211,0-4-1.789-4-4v-55.996c0-2.211,1.789-4,4-4s4,1.789,4,4v55.996
		C511.968,282.194,510.179,283.983,507.968,283.983z"/>
	<path style="fill:#3A3847;" d="M507.968,371.978c-2.211,0-4-1.789-4-4v-39.997c0-2.211,1.789-4,4-4s4,1.789,4,4v39.997
		C511.968,370.189,510.179,371.978,507.968,371.978z"/>
	<path style="fill:#3A3847;" d="M507.968,331.98c-6.617,0-12-5.382-12-11.999s5.383-11.999,12-11.999c2.211,0,4,1.789,4,3.999
		c0,2.211-1.789,4-4,4c-2.203,0-4,1.797-4,4s1.797,4,4,4c2.211,0,4,1.789,4,4C511.968,330.191,510.179,331.98,507.968,331.98z"/>
	<path style="fill:#3A3847;" d="M507.968,299.982c-6.617,0-12-5.382-12-11.999s5.383-11.999,12-11.999c2.211,0,4,1.789,4,3.999
		c0,2.211-1.789,4-4,4c-2.203,0-4,1.797-4,4s1.797,4,4,4c2.211,0,4,1.789,4,4C511.968,298.193,510.179,299.982,507.968,299.982z"/>
	<path style="fill:#3A3847;" d="M507.968,315.981c-2.211,0-4-1.789-4-4v-15.998c0-2.211,1.789-4,4-4s4,1.789,4,4v15.998
		C511.968,314.192,510.179,315.981,507.968,315.981z"/>
	<path style="fill:#3A3847;" d="M91.994,315.981H51.996c-2.21,0-3.999-1.789-3.999-4v-55.996c0-2.211,1.789-4,3.999-4h39.998
		c2.211,0,4,1.789,4,4v55.996C95.994,314.192,94.205,315.981,91.994,315.981z M55.996,307.982h31.998v-47.997H55.996V307.982z"/>
	<path style="fill:#3A3847;" d="M163.989,315.981h-39.997c-2.211,0-4-1.789-4-4v-55.996c0-2.211,1.789-4,4-4h39.997
		c2.211,0,4,1.789,4,4v55.996C167.989,314.192,166.2,315.981,163.989,315.981z M127.992,307.982h31.998v-47.997h-31.998V307.982z"/>
	<path style="fill:#3A3847;" d="M235.985,315.981h-39.998c-2.21,0-3.999-1.789-3.999-4v-55.996c0-2.211,1.789-4,3.999-4h39.998
		c2.211,0,4,1.789,4,4v55.996C239.985,314.192,238.196,315.981,235.985,315.981z M199.987,307.982h31.998v-47.997h-31.998V307.982z"
		/>
	<path style="fill:#3A3847;" d="M315.98,315.981h-39.998c-2.211,0-4-1.789-4-4v-55.996c0-2.211,1.789-4,4-4h39.998
		c2.211,0,4,1.789,4,4v55.996C319.98,314.192,318.191,315.981,315.98,315.981z M279.982,307.982h31.998v-47.997h-31.998V307.982z"/>
	<path style="fill:#3A3847;" d="M387.975,315.981h-39.997c-2.211,0-4-1.789-4-4v-55.996c0-2.211,1.789-4,4-4h39.997
		c2.211,0,4,1.789,4,4v55.996C391.975,314.192,390.186,315.981,387.975,315.981z M351.978,307.982h31.998v-47.997h-31.998V307.982z"
		/>
	<path style="fill:#3A3847;" d="M459.971,315.981h-39.998c-2.21,0-3.999-1.789-3.999-4v-55.996c0-2.211,1.789-4,3.999-4h39.998
		c2.21,0,3.999,1.789,3.999,4v55.996C463.97,314.192,462.181,315.981,459.971,315.981z M423.973,307.982h31.998v-47.997h-31.998
		V307.982z"/>
	<path style="fill:#3A3847;" d="M275.982,355.979c-2.211,0-4-1.789-4-4c0-2.203-1.797-4-3.999-4c-2.203,0-4,1.797-4,4
		c0,2.211-1.789,4-4,4c-2.21,0-3.999-1.789-3.999-4c0-6.617,5.382-11.999,11.999-11.999c6.616,0,11.999,5.382,11.999,11.999
		C279.982,354.19,278.193,355.979,275.982,355.979z"/>
	<path style="fill:#3A3847;" d="M507.968,371.978H275.982c-2.211,0-4-1.789-4-4s1.789-4,4-4h231.986c2.211,0,4,1.789,4,4
		S510.179,371.978,507.968,371.978z"/>
	<path style="fill:#3A3847;" d="M275.982,371.978c-2.211,0-4-1.789-4-4v-15.999c0-2.211,1.789-4,4-4s4,1.789,4,4v15.999
		C279.982,370.189,278.193,371.978,275.982,371.978z"/>
	<path style="fill:#3A3847;" d="M259.983,371.978c-2.21,0-3.999-1.789-3.999-4v-15.999c0-2.211,1.789-4,3.999-4c2.211,0,4,1.789,4,4
		v15.999C263.983,370.189,262.194,371.978,259.983,371.978z"/>
	<path style="fill:#3A3847;" d="M259.983,371.978H3.999c-2.21,0-3.999-1.789-3.999-4s1.789-4,3.999-4h255.984c2.211,0,4,1.789,4,4
		S262.194,371.978,259.983,371.978z"/>
	<path style="fill:#3A3847;" d="M35.997,371.978c-2.21,0-3.999-1.789-3.999-4v-7.999c0-2.211,1.789-4,3.999-4c2.211,0,4,1.789,4,4
		v7.999C39.997,370.189,38.208,371.978,35.997,371.978z"/>
	<path style="fill:#3A3847;" d="M51.996,371.978c-2.21,0-3.999-1.789-3.999-4v-7.999c0-2.211,1.789-4,3.999-4c2.211,0,4,1.789,4,4
		v7.999C55.996,370.189,54.207,371.978,51.996,371.978z"/>
	<path style="fill:#3A3847;" d="M67.995,371.978c-2.21,0-3.999-1.789-3.999-4v-7.999c0-2.211,1.789-4,3.999-4c2.211,0,4,1.789,4,4
		v7.999C71.995,370.189,70.206,371.978,67.995,371.978z"/>
	<path style="fill:#3A3847;" d="M83.994,371.978c-2.21,0-3.999-1.789-3.999-4v-7.999c0-2.211,1.789-4,3.999-4c2.211,0,4,1.789,4,4
		v7.999C87.994,370.189,86.205,371.978,83.994,371.978z"/>
	<path style="fill:#3A3847;" d="M99.993,371.978c-2.21,0-3.999-1.789-3.999-4v-7.999c0-2.211,1.789-4,3.999-4c2.211,0,4,1.789,4,4
		v7.999C103.993,370.189,102.204,371.978,99.993,371.978z"/>
	<path style="fill:#3A3847;" d="M115.992,371.978c-2.21,0-3.999-1.789-3.999-4v-7.999c0-2.211,1.789-4,3.999-4c2.211,0,4,1.789,4,4
		v7.999C119.992,370.189,118.203,371.978,115.992,371.978z"/>
	<path style="fill:#3A3847;" d="M131.991,371.978c-2.21,0-3.999-1.789-3.999-4v-7.999c0-2.211,1.789-4,3.999-4c2.211,0,4,1.789,4,4
		v7.999C135.991,370.189,134.202,371.978,131.991,371.978z"/>
	<path style="fill:#3A3847;" d="M147.99,371.978c-2.21,0-3.999-1.789-3.999-4v-7.999c0-2.211,1.789-4,3.999-4c2.211,0,4,1.789,4,4
		v7.999C151.99,370.189,150.201,371.978,147.99,371.978z"/>
	<path style="fill:#3A3847;" d="M163.989,371.978c-2.21,0-3.999-1.789-3.999-4v-7.999c0-2.211,1.789-4,3.999-4c2.211,0,4,1.789,4,4
		v7.999C167.989,370.189,166.2,371.978,163.989,371.978z"/>
	<path style="fill:#3A3847;" d="M179.988,371.978c-2.21,0-3.999-1.789-3.999-4v-7.999c0-2.211,1.789-4,3.999-4c2.211,0,4,1.789,4,4
		v7.999C183.988,370.189,182.199,371.978,179.988,371.978z"/>
	<path style="fill:#3A3847;" d="M195.987,371.978c-2.21,0-3.999-1.789-3.999-4v-7.999c0-2.211,1.789-4,3.999-4c2.211,0,4,1.789,4,4
		v7.999C199.987,370.189,198.198,371.978,195.987,371.978z"/>
	<path style="fill:#3A3847;" d="M211.986,371.978c-2.21,0-3.999-1.789-3.999-4v-7.999c0-2.211,1.789-4,3.999-4c2.211,0,4,1.789,4,4
		v7.999C215.986,370.189,214.197,371.978,211.986,371.978z"/>
	<path style="fill:#3A3847;" d="M227.985,371.978c-2.21,0-3.999-1.789-3.999-4v-7.999c0-2.211,1.789-4,3.999-4c2.211,0,4,1.789,4,4
		v7.999C231.985,370.189,230.196,371.978,227.985,371.978z"/>
	<path style="fill:#3A3847;" d="M243.984,371.978c-2.21,0-3.999-1.789-3.999-4v-7.999c0-2.211,1.789-4,3.999-4c2.211,0,4,1.789,4,4
		v7.999C247.984,370.189,246.195,371.978,243.984,371.978z"/>
	<path style="fill:#3A3847;" d="M291.981,371.978c-2.21,0-3.999-1.789-3.999-4v-7.999c0-2.211,1.789-4,3.999-4c2.211,0,4,1.789,4,4
		v7.999C295.981,370.189,294.192,371.978,291.981,371.978z"/>
	<path style="fill:#3A3847;" d="M307.98,371.978c-2.211,0-4-1.789-4-4v-7.999c0-2.211,1.789-4,4-4s4,1.789,4,4v7.999
		C311.98,370.189,310.191,371.978,307.98,371.978z"/>
	<path style="fill:#3A3847;" d="M323.979,371.978c-2.21,0-3.999-1.789-3.999-4v-7.999c0-2.211,1.789-4,3.999-4c2.211,0,4,1.789,4,4
		v7.999C327.979,370.189,326.19,371.978,323.979,371.978z"/>
	<path style="fill:#3A3847;" d="M339.978,371.978c-2.211,0-4-1.789-4-4v-7.999c0-2.211,1.789-4,4-4s4,1.789,4,4v7.999
		C343.978,370.189,342.189,371.978,339.978,371.978z"/>
	<path style="fill:#3A3847;" d="M355.977,371.978c-2.21,0-3.999-1.789-3.999-4v-7.999c0-2.211,1.789-4,3.999-4c2.211,0,4,1.789,4,4
		v7.999C359.977,370.189,358.188,371.978,355.977,371.978z"/>
	<path style="fill:#3A3847;" d="M371.976,371.978c-2.211,0-4-1.789-4-4v-7.999c0-2.211,1.789-4,4-4s4,1.789,4,4v7.999
		C375.976,370.189,374.187,371.978,371.976,371.978z"/>
	<path style="fill:#3A3847;" d="M387.975,371.978c-2.21,0-3.999-1.789-3.999-4v-7.999c0-2.211,1.789-4,3.999-4c2.211,0,4,1.789,4,4
		v7.999C391.975,370.189,390.186,371.978,387.975,371.978z"/>
	<path style="fill:#3A3847;" d="M403.974,371.978c-2.211,0-4-1.789-4-4v-7.999c0-2.211,1.789-4,4-4s4,1.789,4,4v7.999
		C407.974,370.189,406.185,371.978,403.974,371.978z"/>
	<path style="fill:#3A3847;" d="M419.973,371.978c-2.21,0-3.999-1.789-3.999-4v-7.999c0-2.211,1.789-4,3.999-4c2.211,0,4,1.789,4,4
		v7.999C423.973,370.189,422.184,371.978,419.973,371.978z"/>
	<path style="fill:#3A3847;" d="M435.972,371.978c-2.211,0-4-1.789-4-4v-7.999c0-2.211,1.789-4,4-4s4,1.789,4,4v7.999
		C439.972,370.189,438.183,371.978,435.972,371.978z"/>
	<path style="fill:#3A3847;" d="M451.971,371.978c-2.21,0-3.999-1.789-3.999-4v-7.999c0-2.211,1.789-4,3.999-4c2.211,0,4,1.789,4,4
		v7.999C455.971,370.189,454.182,371.978,451.971,371.978z"/>
	<path style="fill:#3A3847;" d="M467.97,371.978c-2.211,0-4-1.789-4-4v-7.999c0-2.211,1.789-4,4-4s4,1.789,4,4v7.999
		C471.97,370.189,470.181,371.978,467.97,371.978z"/>
	<path style="fill:#3A3847;" d="M483.969,371.978c-2.21,0-3.999-1.789-3.999-4v-7.999c0-2.211,1.789-4,3.999-4c2.211,0,4,1.789,4,4
		v7.999C487.969,370.189,486.18,371.978,483.969,371.978z"/>
	<path style="fill:#3A3847;" d="M507.968,147.992H3.999c-2.21,0-3.999-1.789-3.999-4s1.789-4,3.999-4h503.97c2.211,0,4,1.789,4,4
		S510.179,147.992,507.968,147.992z"/>
	<path style="fill:#3A3847;" d="M3.999,203.988c-2.21,0-3.999-1.789-3.999-4v-55.997c0-2.211,1.789-4,3.999-4c2.211,0,4,1.789,4,4
		v55.997C7.999,202.199,6.21,203.988,3.999,203.988z"/>
	<path style="fill:#3A3847;" d="M3.999,219.987c-2.21,0-3.999-1.789-3.999-4s1.789-4,3.999-4c2.203,0,4-1.797,4-4s-1.797-4-4-4
		c-2.21,0-3.999-1.789-3.999-4s1.789-4,3.999-4c6.617,0,12,5.382,12,11.999S10.616,219.987,3.999,219.987z"/>
	<path style="fill:#3A3847;" d="M507.968,203.988c-2.211,0-4-1.789-4-4v-55.997c0-2.211,1.789-4,4-4s4,1.789,4,4v55.997
		C511.968,202.199,510.179,203.988,507.968,203.988z"/>
	<path style="fill:#3A3847;" d="M507.968,219.987c-6.617,0-12-5.382-12-11.999s5.383-11.999,12-11.999c2.211,0,4,1.789,4,4
		s-1.789,4-4,4c-2.203,0-4,1.797-4,4s1.797,4,4,4c2.211,0,4,1.789,4,4S510.179,219.987,507.968,219.987z"/>
	<path style="fill:#3A3847;" d="M91.994,219.987c-2.211,0-4-1.789-4-4v-35.998H55.996v35.998c0,2.21-1.789,4-4,4
		c-2.21,0-3.999-1.789-3.999-4v-39.998c0-2.211,1.789-4,3.999-4h39.998c2.211,0,4,1.789,4,4v39.998
		C95.994,218.198,94.205,219.987,91.994,219.987z"/>
	<path style="fill:#3A3847;" d="M163.989,219.987c-2.21,0-3.999-1.789-3.999-4v-35.998h-31.998v35.998c0,2.21-1.789,4-4,4
		s-4-1.789-4-4v-39.998c0-2.211,1.789-4,4-4h39.997c2.211,0,4,1.789,4,4v39.998C167.989,218.198,166.2,219.987,163.989,219.987z"/>
	<path style="fill:#3A3847;" d="M235.985,219.987c-2.211,0-4-1.789-4-4v-35.998h-31.998v35.998c0,2.21-1.789,4-4,4
		c-2.21,0-3.999-1.789-3.999-4v-39.998c0-2.211,1.789-4,3.999-4h39.998c2.211,0,4,1.789,4,4v39.998
		C239.985,218.198,238.196,219.987,235.985,219.987z"/>
	<path style="fill:#3A3847;" d="M315.98,219.987c-2.211,0-4-1.789-4-4v-35.998h-31.998v35.998c0,2.21-1.789,4-4,4s-4-1.789-4-4
		v-39.998c0-2.211,1.789-4,4-4h39.998c2.211,0,4,1.789,4,4v39.998C319.98,218.198,318.191,219.987,315.98,219.987z"/>
	<path style="fill:#3A3847;" d="M387.975,219.987c-2.21,0-3.999-1.789-3.999-4v-35.998h-31.998v35.998c0,2.21-1.789,4-4,4
		s-4-1.789-4-4v-39.998c0-2.211,1.789-4,4-4h39.997c2.211,0,4,1.789,4,4v39.998C391.975,218.198,390.186,219.987,387.975,219.987z"
		/>
	<path style="fill:#3A3847;" d="M459.971,219.987c-2.211,0-4-1.789-4-4v-35.998h-31.998v35.998c0,2.21-1.789,4-4,4
		c-2.21,0-3.999-1.789-3.999-4v-39.998c0-2.211,1.789-4,3.999-4h39.998c2.21,0,3.999,1.789,3.999,4v39.998
		C463.97,218.198,462.181,219.987,459.971,219.987z"/>
</g>
<g style="opacity:0.2;">
	<rect x="3.994" y="215.985" width="503.97" height="8"/>
</g>
<g>
</g>
<g>
</g>
<g>
</g>
<g>
</g>
<g>
</g>
<g>
</g>
<g>
</g>
<g>
</g>
<g>
</g>
<g>
</g>
<g>
</g>
<g>
</g>
<g>
</g>
<g>
</g>
<g>
</g>
</svg>
