<?xml version="1.0" encoding="iso-8859-1"?>
<!-- Generator: Adobe Illustrator 19.0.0, SVG Export Plug-In . SVG Version: 6.00 Build 0)  -->
<svg version="1.1" id="Capa_1" xmlns="http://www.w3.org/2000/svg" xmlns:xlink="http://www.w3.org/1999/xlink" x="0px" y="0px"
	 viewBox="0 0 511.969 511.969" style="enable-background:new 0 0 511.969 511.969;" xml:space="preserve">
<rect x="35.994" y="103.995" style="fill:#656D78;" width="31.998" height="23.999"/>
<rect x="83.994" y="111.995" style="fill:#AC92EC;" width="423.98" height="15.999"/>
<g>
	<rect x="35.994" y="351.975" style="fill:#A0D468;" width="15.999" height="15.999"/>
	<rect x="99.994" y="351.975" style="fill:#A0D468;" width="31.998" height="23.998"/>
	<rect x="147.994" y="351.975" style="fill:#A0D468;" width="111.99" height="23.998"/>
</g>
<rect x="19.994" y="127.995" style="fill:#CCD1D9;" width="31.998" height="223.99"/>
<rect x="51.994" y="127.995" style="fill:#5D9CEC;" width="455.97" height="223.99"/>
<circle style="fill:#656D78;" cx="171.984" cy="239.985" r="87.995"/>
<g style="opacity:0.3;">
	<path d="M91.994,239.986c0-47.247,37.264-85.687,83.995-87.792c-1.336-0.063-2.648-0.203-4-0.203
		c-48.599,0-87.995,39.396-87.995,87.995s39.396,87.995,87.995,87.995c1.352,0,2.664-0.141,4-0.203
		C129.257,325.669,91.994,287.233,91.994,239.986z"/>
</g>
<circle style="fill:#656D78;" cx="387.974" cy="239.985" r="87.995"/>
<g style="opacity:0.3;">
	<path d="M307.98,239.986c0-47.247,37.264-85.687,83.995-87.792c-1.336-0.063-2.648-0.203-4-0.203
		c-48.599,0-87.994,39.396-87.994,87.995s39.396,87.995,87.994,87.995c1.352,0,2.664-0.141,4-0.203
		C345.244,325.669,307.98,287.233,307.98,239.986z"/>
</g>
<path style="fill:#3A3847;" d="M36.239,187.989c-2.211,0-4.038-1.789-4.038-4s1.75-4,3.952-4h0.086c2.203,0,4,1.789,4,4
	S38.442,187.989,36.239,187.989z"/>
<path style="fill:#AAB2BD;" d="M410.857,240.224l1.117-0.238c31.998,0,47.997-8,47.997-8s4.241-15.999-8-31.998
	c-14.319,21.518-41.599,23.76-47.036,23.999v-0.961c22.64-22.639,28.318-39.595,28.318-39.595s-8.319-14.319-28.318-16.96
	c4.719,23.518-10.241,43.197-15.28,49.036h-1.68c-0.078-31.678-7.999-47.517-7.999-47.517s-15.999-4.238-31.998,8
	c21.357,14.237,23.678,41.279,23.92,46.958l-0.883,0.078c-22.639-22.639-39.599-28.318-39.599-28.318s-14.319,8.319-16.96,28.318
	c25.123-5.039,45.763,12.319,50.083,16.159l-0.563,0.801c-31.998,0-47.997,8-47.997,8s-4.242,16,7.999,31.998
	c14.241-21.357,41.279-23.678,46.958-23.92l0.078,0.883c-22.639,22.639-28.318,39.6-28.318,39.6s8.32,14.311,28.318,16.951
	c-5.039-25.115,12.32-45.747,16.163-50.07l0.797,0.559c0,31.998,8,47.996,8,47.996s15.999,4.234,31.998-7.999
	c-21.522-14.319-23.757-41.599-23.999-47.036h0.961c22.64,22.639,39.6,28.318,39.6,28.318s14.319-8.319,16.96-28.318
	C434.855,262.305,413.177,242.384,410.857,240.224z M387.975,255.985c-8.796,0-15.999-7.199-15.999-15.999
	s7.203-15.999,15.999-15.999c8.883,0,15.999,7.199,15.999,15.999S396.858,255.985,387.975,255.985z"/>
<g>
	<path style="fill:#CCD1D9;" d="M387.975,223.987c8.883,0,15.999,7.199,15.999,15.999s-7.116,15.999-15.999,15.999
		c-8.796,0-15.999-7.199-15.999-15.999S379.179,223.987,387.975,223.987z"/>
	<path style="fill:#CCD1D9;" d="M171.989,223.987c8.796,0,15.999,7.199,15.999,15.999s-7.203,15.999-15.999,15.999
		c-8.797,0-15.999-7.199-15.999-15.999S163.192,223.987,171.989,223.987z"/>
</g>
<path style="fill:#FFFFFF;" d="M163.989,239.986c0-7.414,5.133-13.632,12-15.429c-1.289-0.336-2.609-0.57-4-0.57
	c-8.797,0-15.999,7.199-15.999,15.999s7.202,15.999,15.999,15.999c1.391,0,2.711-0.234,4-0.57
	C169.122,253.618,163.989,247.4,163.989,239.986z"/>
<g style="opacity:0.3;">
	<path d="M179.988,239.986c0,7.414-5.132,13.632-11.999,15.429c1.289,0.336,2.609,0.57,4,0.57c8.796,0,15.999-7.199,15.999-15.999
		s-7.203-15.999-15.999-15.999c-1.391,0-2.711,0.234-4,0.57C174.856,226.354,179.988,232.572,179.988,239.986z"/>
</g>
<path style="fill:#AAB2BD;" d="M194.87,240.224l1.117-0.238c31.998,0,47.997-8,47.997-8s4.242-15.999-7.999-31.998
	c-14.319,21.518-41.6,23.76-47.036,23.999v-0.961c22.639-22.639,28.318-39.595,28.318-39.595s-8.319-14.319-28.318-16.96
	c4.719,23.518-10.242,43.197-15.28,49.036h-1.68c-0.078-31.678-8-47.517-8-47.517s-15.999-4.238-31.998,8
	c21.358,14.237,23.679,41.279,23.921,46.958l-0.883,0.078c-22.64-22.639-39.6-28.318-39.6-28.318s-14.319,8.319-16.96,28.318
	c25.124-5.039,45.764,12.319,50.083,16.159l-0.563,0.801c-31.998,0-47.997,8-47.997,8s-4.241,16,8,31.998
	c14.241-21.357,41.278-23.678,46.958-23.92l0.078,0.883c-22.64,22.639-28.318,39.6-28.318,39.6s8.319,14.311,28.318,16.951
	c-5.039-25.115,12.319-45.747,16.163-50.07l0.797,0.559c0,31.998,7.999,47.996,7.999,47.996s15.999,4.234,31.998-7.999
	c-21.521-14.319-23.756-41.599-23.998-47.036h0.961c22.639,22.639,39.599,28.318,39.599,28.318s14.319-8.319,16.96-28.318
	C218.869,262.305,197.19,242.384,194.87,240.224z M171.989,255.985c-8.797,0-15.999-7.199-15.999-15.999s7.202-15.999,15.999-15.999
	c8.796,0,15.999,7.199,15.999,15.999S180.785,255.985,171.989,255.985z"/>
<g style="opacity:0.2;">
	<path d="M209.268,183.431c0,0-5.68,16.956-28.319,39.595v0.961c1.406-0.063,4.281-0.266,8-0.891v-0.07
		c22.639-22.639,28.318-39.595,28.318-39.595s-8.319-14.319-28.318-16.96c0.133,0.676,0.203,1.336,0.305,2.004
		C203.213,173.228,209.268,183.431,209.268,183.431z"/>
	<path d="M235.985,231.986c0,0-15.999,8-47.997,8c0,0.391-0.086,0.758-0.117,1.141c4.625,4.098,22.498,18.565,44.716,16.538
		c-20.437-1.602-35.787-15.644-37.717-17.44l1.117-0.238c31.998,0,47.997-8,47.997-8s4.242-15.999-7.999-31.998
		c-1.352,2.035-2.852,3.847-4.414,5.55C239.251,219.487,235.985,231.986,235.985,231.986z"/>
	<path d="M237.329,257.794c-2.086,13.706-9.547,21.721-13.788,25.236c3.108,1.547,5.007,2.234,5.007,2.234
		s14.319-8.319,16.96-28.318C242.718,257.508,239.993,257.739,237.329,257.794z"/>
	<path d="M188.777,264.313c-2.523-2.242-5.125-4.668-7.828-7.367h-0.961c0.242,5.438,2.477,32.717,23.999,47.036
		c-7.664,5.859-15.28,7.897-21.187,8.476c5.273,0.617,17.226,0.672,29.186-8.476C195.698,293.147,190.464,274.906,188.777,264.313z"
		/>
</g>
<g>
	<g style="opacity:0.5;">
		<path style="fill:#FFFFFF;" d="M155.13,215.597c2.539,2.25,5.172,4.703,7.897,7.429l0.883-0.078
			c-0.242-5.679-2.562-32.721-23.92-46.958c7.663-5.863,15.28-7.898,21.187-8.476c-5.273-0.613-17.226-0.672-29.187,8.476
			C148.209,186.801,153.443,204.98,155.13,215.597z"/>
		<path style="fill:#FFFFFF;" d="M120.437,196.934c-3.109-1.535-5.008-2.227-5.008-2.227s-14.319,8.319-16.96,28.318
			c2.789-0.559,5.516-0.805,8.188-0.859C108.743,208.468,116.203,200.461,120.437,196.934z"/>
		<path style="fill:#FFFFFF;" d="M134.71,296.546c0,0,5.68-16.961,28.318-39.6l-0.078-0.883c-1.444,0.063-4.28,0.262-7.921,0.871
			v0.012c-22.64,22.639-28.318,39.6-28.318,39.6s8.319,14.311,28.318,16.951c-0.133-0.672-0.195-1.328-0.297-2
			C140.764,306.748,134.71,296.546,134.71,296.546z"/>
		<path style="fill:#FFFFFF;" d="M107.993,247.985c0,0,15.999-8,47.997-8c0-0.406,0.094-0.789,0.117-1.188
			c-4.695-4.105-22.335-18.319-44.341-16.495c18.85,1.609,33.256,13.745,36.786,16.882l-0.563,0.801c-31.998,0-47.997,8-47.997,8
			s-4.241,16,8,31.998c1.359-2.03,2.859-3.843,4.414-5.546C104.727,260.489,107.993,247.985,107.993,247.985z"/>
	</g>
	<path style="fill:#FFFFFF;" d="M379.976,239.986c0-7.414,5.133-13.632,11.999-15.429c-1.289-0.336-2.609-0.57-4-0.57
		c-8.796,0-15.999,7.199-15.999,15.999s7.203,15.999,15.999,15.999c1.391,0,2.711-0.234,4-0.57
		C385.109,253.618,379.976,247.4,379.976,239.986z"/>
</g>
<g style="opacity:0.3;">
	<path d="M395.975,239.986c0,7.414-5.133,13.632-11.999,15.429c1.289,0.336,2.608,0.57,3.999,0.57
		c8.797,0,15.999-7.199,15.999-15.999s-7.202-15.999-15.999-15.999c-1.391,0-2.71,0.234-3.999,0.57
		C390.842,226.354,395.975,232.572,395.975,239.986z"/>
</g>
<g style="opacity:0.2;">
	<path d="M425.255,183.431c0,0-5.68,16.956-28.318,39.595v0.961c1.405-0.063,4.28-0.266,7.999-0.891v-0.07
		c22.64-22.639,28.318-39.595,28.318-39.595s-8.319-14.319-28.318-16.96c0.133,0.676,0.203,1.336,0.305,2.004
		C419.2,173.228,425.255,183.431,425.255,183.431z"/>
	<path d="M451.971,231.986c0,0-15.999,8-47.997,8c0,0.391-0.086,0.758-0.117,1.141c4.625,4.098,22.499,18.565,44.717,16.538
		c-20.437-1.602-35.787-15.644-37.717-17.44l1.117-0.238c31.998,0,47.997-8,47.997-8s4.241-15.999-8-31.998
		c-1.352,2.035-2.851,3.847-4.413,5.55C455.237,219.487,451.971,231.986,451.971,231.986z"/>
	<path d="M453.315,257.794c-2.086,13.706-9.546,21.721-13.788,25.236c3.109,1.547,5.008,2.234,5.008,2.234
		s14.319-8.319,16.96-28.318C458.706,257.508,455.979,257.739,453.315,257.794z"/>
	<path d="M404.763,264.313c-2.523-2.242-5.125-4.668-7.827-7.367h-0.961c0.242,5.438,2.476,32.717,23.998,47.036
		c-7.663,5.859-15.28,7.897-21.187,8.476c5.273,0.617,17.227,0.672,29.187-8.476C411.685,293.147,406.451,274.906,404.763,264.313z"
		/>
</g>
<g style="opacity:0.5;">
	<path style="fill:#FFFFFF;" d="M371.117,215.597c2.539,2.25,5.172,4.703,7.898,7.429l0.883-0.078
		c-0.242-5.679-2.563-32.721-23.921-46.958c7.664-5.863,15.28-7.898,21.187-8.476c-5.273-0.613-17.226-0.672-29.186,8.476
		C364.196,186.801,369.429,204.98,371.117,215.597z"/>
	<path style="fill:#FFFFFF;" d="M336.423,196.934c-3.108-1.535-5.007-2.227-5.007-2.227s-14.319,8.319-16.96,28.318
		c2.789-0.559,5.516-0.805,8.187-0.859C324.729,208.468,332.19,200.461,336.423,196.934z"/>
	<path style="fill:#FFFFFF;" d="M350.697,296.546c0,0,5.679-16.961,28.318-39.6l-0.078-0.883c-1.445,0.063-4.281,0.262-7.922,0.871
		v0.012c-22.639,22.639-28.318,39.6-28.318,39.6s8.32,14.311,28.318,16.951c-0.133-0.672-0.195-1.328-0.297-2
		C356.751,306.748,350.697,296.546,350.697,296.546z"/>
	<path style="fill:#FFFFFF;" d="M323.979,247.985c0,0,15.999-8,47.997-8c0-0.406,0.094-0.789,0.117-1.188
		c-4.695-4.105-22.334-18.319-44.341-16.495c18.851,1.609,33.256,13.745,36.787,16.882l-0.563,0.801c-31.998,0-47.997,8-47.997,8
		s-4.242,16,7.999,31.998c1.359-2.03,2.859-3.843,4.414-5.546C320.714,260.489,323.979,247.985,323.979,247.985z"/>
</g>
<g style="opacity:0.3;">
	<rect x="83.994" y="119.995" width="423.98" height="8"/>
</g>
<g style="opacity:0.3;">
	<rect x="99.994" y="351.975" width="31.998" height="8"/>
</g>
<g style="opacity:0.3;">
	<rect x="35.994" y="351.975" width="15.999" height="8"/>
</g>
<g style="opacity:0.3;">
	<rect x="35.994" y="119.995" width="31.998" height="8"/>
</g>
<g style="opacity:0.3;">
	<rect x="147.054" y="351.975" width="112.93" height="8"/>
</g>
<rect x="19.994" y="127.995" style="fill:#FFFFFF;" width="8" height="223.99"/>
<g style="opacity:0.2;">
	<rect x="43.994" y="127.995" width="7.999" height="223.99"/>
</g>
<g style="opacity:0.3;">
	<rect x="51.994" y="127.995" width="8" height="223.99"/>
</g>
<g style="opacity:0.3;">
	<rect x="499.964" y="127.995" width="8" height="223.99"/>
</g>
<g style="opacity:0.5;">
	<rect x="35.994" y="359.975" style="fill:#FFFFFF;" width="8" height="7.999"/>
</g>
<g style="opacity:0.5;">
	<rect x="99.994" y="359.975" style="fill:#FFFFFF;" width="8" height="15.998"/>
</g>
<g style="opacity:0.3;">
	<rect x="83.994" y="111.995" style="fill:#FFFFFF;" width="8" height="8"/>
</g>
<g style="opacity:0.3;">
	<rect x="499.964" y="111.995" width="8" height="8"/>
</g>
<g style="opacity:0.3;">
	<rect x="123.994" y="359.975" width="7.999" height="15.998"/>
</g>
<g style="opacity:0.2;">
	<rect x="35.994" y="103.995" style="fill:#FFFFFF;" width="8" height="15.999"/>
</g>
<g style="opacity:0.3;">
	<rect x="59.994" y="103.995" width="7.999" height="15.999"/>
</g>
<g style="opacity:0.5;">
	<rect x="147.994" y="359.975" style="fill:#FFFFFF;" width="8" height="15.998"/>
</g>
<g style="opacity:0.3;">
	<rect x="251.984" y="359.975" width="7.999" height="15.998"/>
</g>
<g>
	<path style="fill:#3A3847;" d="M507.968,355.979c-2.211,0-4-1.789-4-4V127.993c0-2.211,1.789-4,4-4s4,1.789,4,4v223.986
		C511.968,354.19,510.179,355.979,507.968,355.979z"/>
	<path style="fill:#3A3847;" d="M19.998,411.975c-2.21,0-3.999-1.789-3.999-4V127.993c0-2.211,1.789-4,3.999-4c2.211,0,4,1.789,4,4
		v279.982C23.998,410.186,22.209,411.975,19.998,411.975z"/>
	<path style="fill:#3A3847;" d="M507.968,131.993H19.998c-2.21,0-3.999-1.789-3.999-4c0-2.211,1.789-4,3.999-4h487.971
		c2.211,0,4,1.789,4,4C511.969,130.204,510.179,131.993,507.968,131.993z"/>
	<path style="fill:#3A3847;" d="M507.968,355.979H19.998c-2.21,0-3.999-1.789-3.999-4s1.789-4,3.999-4h487.971c2.211,0,4,1.789,4,4
		S510.179,355.979,507.968,355.979z"/>
	<path style="fill:#3A3847;" d="M19.998,163.991H3.999c-2.21,0-3.999-1.789-3.999-4s1.789-4,3.999-4h15.999c2.211,0,4,1.789,4,4
		S22.209,163.991,19.998,163.991z"/>
	<path style="fill:#3A3847;" d="M51.996,347.979c-2.21,0-3.999-1.789-3.999-4V135.992c0-2.21,1.789-4,3.999-4c2.211,0,4,1.789,4,4
		v207.987C55.996,346.19,54.207,347.979,51.996,347.979z"/>
	<path style="fill:#3A3847;" d="M35.997,171.99c-2.21,0-3.999-1.789-3.999-4v-23.999c0-2.211,1.789-4,3.999-4c2.211,0,4,1.789,4,4
		v23.999C39.997,170.201,38.208,171.99,35.997,171.99z"/>
	<path style="fill:#3A3847;" d="M3.999,339.98c-2.21,0-3.999-1.789-3.999-4v-23.999c0-2.21,1.789-3.999,3.999-3.999
		c2.211,0,4,1.789,4,3.999v23.999C7.999,338.191,6.21,339.98,3.999,339.98z"/>
	<path style="fill:#3A3847;" d="M19.998,299.982h-7.999c-2.211,0-4-1.789-4-3.999c0-2.211,1.789-4,4-4h7.999c2.211,0,4,1.789,4,4
		C23.998,298.193,22.209,299.982,19.998,299.982z"/>
	<path style="fill:#3A3847;" d="M19.998,355.979h-7.999c-2.211,0-4-1.789-4-4s1.789-4,4-4h7.999c2.211,0,4,1.789,4,4
		S22.209,355.979,19.998,355.979z"/>
	<path style="fill:#3A3847;" d="M51.996,371.978c-2.21,0-3.999-1.789-3.999-4v-7.999c0-2.211,1.789-4,3.999-4c2.211,0,4,1.789,4,4
		v7.999C55.996,370.189,54.207,371.978,51.996,371.978z"/>
	<path style="fill:#3A3847;" d="M51.996,371.978H35.997c-2.21,0-3.999-1.789-3.999-4s1.789-4,3.999-4h15.999c2.211,0,4,1.789,4,4
		S54.207,371.978,51.996,371.978z"/>
	<path style="fill:#3A3847;" d="M35.997,371.978c-2.21,0-3.999-1.789-3.999-4v-7.999c0-2.211,1.789-4,3.999-4c2.211,0,4,1.789,4,4
		v7.999C39.997,370.189,38.208,371.978,35.997,371.978z"/>
	<path style="fill:#3A3847;" d="M35.997,123.993c-2.21,0-3.999-1.789-3.999-4v-15.999c0-2.21,1.789-4,3.999-4c2.211,0,4,1.789,4,4
		v15.999C39.997,122.204,38.208,123.993,35.997,123.993z"/>
	<path style="fill:#3A3847;" d="M67.995,107.994H35.997c-2.21,0-3.999-1.789-3.999-4s1.789-4,3.999-4h31.998c2.211,0,4,1.789,4,4
		S70.206,107.994,67.995,107.994z"/>
	<path style="fill:#3A3847;" d="M67.995,123.993c-2.21,0-3.999-1.789-3.999-4v-15.999c0-2.21,1.789-4,3.999-4c2.211,0,4,1.789,4,4
		v15.999C71.995,122.204,70.206,123.993,67.995,123.993z"/>
	<path style="fill:#3A3847;" d="M51.996,115.994c-2.21,0-3.999-1.789-3.999-4v-8c0-2.21,1.789-4,3.999-4c2.211,0,4,1.789,4,4v8
		C55.996,114.205,54.207,115.994,51.996,115.994z"/>
	<path style="fill:#3A3847;" d="M19.998,131.993c-2.21,0-3.999-1.789-3.999-4v-8c0-2.21,1.789-4,3.999-4c2.211,0,4,1.789,4,4v8
		C23.998,130.204,22.209,131.993,19.998,131.993z"/>
	<path style="fill:#3A3847;" d="M83.994,123.993c-2.21,0-3.999-1.789-3.999-4v-8c0-2.211,1.789-4,3.999-4c2.211,0,4,1.789,4,4v8
		C87.994,122.204,86.205,123.993,83.994,123.993z"/>
	<path style="fill:#3A3847;" d="M123.992,123.993c-0.602,0-1.211-0.137-1.789-0.422l-15.999-7.999
		c-1.977-0.988-2.773-3.391-1.789-5.367c1-1.973,3.391-2.766,5.367-1.789l15.999,8c1.977,0.988,2.773,3.39,1.789,5.367
		C126.867,123.184,125.453,123.993,123.992,123.993z"/>
	<path style="fill:#3A3847;" d="M155.99,123.993c-0.602,0-1.211-0.137-1.789-0.422l-15.999-7.999
		c-1.977-0.988-2.773-3.391-1.789-5.367c0.992-1.973,3.391-2.766,5.367-1.789l15.999,8c1.977,0.988,2.773,3.39,1.789,5.367
		C158.865,123.184,157.451,123.993,155.99,123.993z"/>
	<path style="fill:#3A3847;" d="M187.988,123.993c-0.602,0-1.211-0.137-1.789-0.422l-15.999-7.999
		c-1.977-0.988-2.773-3.391-1.789-5.367c0.992-1.973,3.398-2.766,5.367-1.789l15.999,8c1.977,0.988,2.773,3.39,1.789,5.367
		C190.863,123.184,189.449,123.993,187.988,123.993z"/>
	<path style="fill:#3A3847;" d="M219.986,123.993c-0.602,0-1.211-0.137-1.789-0.422l-15.999-7.999
		c-1.977-0.988-2.773-3.391-1.789-5.367c1-1.973,3.391-2.766,5.367-1.789l15.999,8c1.977,0.988,2.773,3.39,1.789,5.367
		C222.861,123.184,221.447,123.993,219.986,123.993z"/>
	<path style="fill:#3A3847;" d="M251.984,123.993c-0.602,0-1.211-0.137-1.789-0.422l-15.999-7.999
		c-1.977-0.988-2.773-3.391-1.789-5.367c0.992-1.973,3.391-2.766,5.367-1.789l15.999,8c1.977,0.988,2.773,3.39,1.789,5.367
		C254.859,123.184,253.445,123.993,251.984,123.993z"/>
	<path style="fill:#3A3847;" d="M283.982,123.993c-0.602,0-1.211-0.137-1.789-0.422l-15.999-7.999
		c-1.977-0.988-2.773-3.391-1.789-5.367c0.992-1.973,3.398-2.766,5.367-1.789l15.999,8c1.977,0.988,2.773,3.39,1.789,5.367
		C286.857,123.184,285.443,123.993,283.982,123.993z"/>
	<path style="fill:#3A3847;" d="M315.98,123.993c-0.602,0-1.211-0.137-1.789-0.422l-15.999-7.999
		c-1.977-0.988-2.773-3.391-1.789-5.367c1-1.973,3.391-2.766,5.367-1.789l15.999,8c1.977,0.988,2.773,3.39,1.789,5.367
		C318.855,123.184,317.441,123.993,315.98,123.993z"/>
	<path style="fill:#3A3847;" d="M347.978,123.993c-0.602,0-1.211-0.137-1.789-0.422l-15.999-7.999
		c-1.977-0.988-2.773-3.391-1.789-5.367c0.992-1.973,3.391-2.766,5.367-1.789l15.999,8c1.977,0.988,2.773,3.39,1.789,5.367
		C350.853,123.184,349.439,123.993,347.978,123.993z"/>
	<path style="fill:#3A3847;" d="M379.976,123.993c-0.602,0-1.211-0.137-1.789-0.422l-15.999-7.999
		c-1.977-0.988-2.773-3.391-1.789-5.367c0.992-1.973,3.398-2.766,5.367-1.789l15.999,8c1.977,0.988,2.773,3.39,1.789,5.367
		C382.851,123.184,381.437,123.993,379.976,123.993z"/>
	<path style="fill:#3A3847;" d="M411.974,123.993c-0.602,0-1.211-0.137-1.789-0.422l-15.999-7.999
		c-1.977-0.988-2.773-3.391-1.789-5.367c1-1.973,3.391-2.766,5.367-1.789l15.999,8c1.977,0.988,2.773,3.39,1.789,5.367
		C414.849,123.184,413.435,123.993,411.974,123.993z"/>
	<path style="fill:#3A3847;" d="M443.972,123.993c-0.602,0-1.211-0.137-1.789-0.422l-15.999-7.999
		c-1.977-0.988-2.773-3.391-1.789-5.367c0.992-1.973,3.391-2.766,5.367-1.789l15.999,8c1.977,0.988,2.773,3.39,1.789,5.367
		C446.847,123.184,445.433,123.993,443.972,123.993z"/>
	<path style="fill:#3A3847;" d="M475.97,123.993c-0.602,0-1.211-0.137-1.789-0.422l-15.999-7.999
		c-1.977-0.988-2.773-3.391-1.789-5.367c0.992-1.973,3.398-2.766,5.367-1.789l15.999,8c1.977,0.988,2.773,3.39,1.789,5.367
		C478.845,123.184,477.431,123.993,475.97,123.993z"/>
	<path style="fill:#3A3847;" d="M507.968,123.993c-2.211,0-4-1.789-4-4v-8c0-2.211,1.789-4,4-4s4,1.789,4,4v8
		C511.968,122.204,510.179,123.993,507.968,123.993z"/>
	<path style="fill:#3A3847;" d="M507.968,115.994H83.994c-2.21,0-3.999-1.789-3.999-4s1.789-4,3.999-4h423.975c2.211,0,4,1.789,4,4
		S510.179,115.994,507.968,115.994z"/>
	<path style="fill:#3A3847;" d="M171.989,331.98c-50.724,0-91.994-41.263-91.994-91.994c0-50.728,41.271-91.994,91.994-91.994
		s91.994,41.267,91.994,91.994C263.983,290.717,222.713,331.98,171.989,331.98z M171.989,155.991
		c-46.317,0-83.995,37.682-83.995,83.995c0,46.31,37.678,83.995,83.995,83.995s83.995-37.685,83.995-83.995
		C255.984,193.673,218.306,155.991,171.989,155.991z"/>
	<path style="fill:#3A3847;" d="M171.989,215.987h-4c-0.078-30.631-7.507-46.067-7.585-46.22c-0.969-1.977-0.164-4.375,1.812-5.355
		c1.984-0.992,4.367-0.172,5.352,1.789c0.344,0.68,8.344,17.05,8.422,49.294L171.989,215.987z"/>
	<path style="fill:#3A3847;" d="M155.99,227.964c-0.008,0-0.016,0-0.023,0c-2.203-0.012-3.977-1.777-3.977-3.977
		c-0.016-0.105-0.07-0.766-0.078-0.867c-0.211-4.992-2.273-30.561-22.139-43.802c-1.836-1.227-2.336-3.707-1.109-5.547
		c1.234-1.84,3.718-2.32,5.546-1.109c23.085,15.386,25.46,44.447,25.702,50.114c0.086,0.625,0.078,1.211,0.078,1.211
		C159.966,226.178,158.177,227.964,155.99,227.964z"/>
	<path style="fill:#3A3847;" d="M131.991,179.99c-1.203,0-2.39-0.539-3.179-1.57c-1.336-1.754-1.008-4.266,0.75-5.605
		c17.35-13.284,34.716-8.878,35.45-8.69c2.133,0.566,3.406,2.757,2.844,4.89c-0.563,2.132-2.734,3.41-4.891,2.843
		c-0.563-0.148-14.405-3.507-28.545,7.309C133.694,179.72,132.842,179.99,131.991,179.99z"/>
	<path style="fill:#3A3847;" d="M171.989,259.985c-11.03,0-19.999-8.973-19.999-19.999s8.969-19.999,19.999-19.999
		s19.999,8.973,19.999,19.999S183.019,259.985,171.989,259.985z M171.989,227.987c-6.617,0-11.999,5.382-11.999,11.999
		s5.382,11.999,11.999,11.999c6.616,0,11.999-5.382,11.999-11.999S178.605,227.987,171.989,227.987z"/>
	<path style="fill:#3A3847;" d="M179.988,315.981c-1.469,0-2.874-0.813-3.577-2.211c-0.344-0.688-8.422-17.217-8.422-49.785
		c0-2.211,1.789-4,4-4s4,1.789,4,4c0,30.467,7.507,46.059,7.585,46.215c0.969,1.984,0.164,4.375-1.813,5.359
		C181.191,315.84,180.582,315.981,179.988,315.981z"/>
	<path style="fill:#3A3847;" d="M211.986,307.982c-0.766,0-1.531-0.219-2.218-0.672c-23.093-15.358-25.522-44.501-25.772-50.185
		l-0.008-1.14c0-2.211,1.789-4,4-4s4,1.789,4,4v0.961c0.219,4.832,2.335,30.482,22.217,43.708c1.836,1.219,2.336,3.703,1.109,5.547
		C214.548,307.357,213.275,307.982,211.986,307.982z"/>
	<path style="fill:#3A3847;" d="M186.964,316.7c-4.664,0-7.703-0.773-8-0.852c-2.132-0.57-3.405-2.758-2.843-4.891
		c0.57-2.132,2.741-3.397,4.89-2.843c0.555,0.133,14.397,3.507,28.546-7.305c1.757-1.344,4.257-1.016,5.608,0.742
		c1.336,1.758,1.008,4.266-0.75,5.602C204.104,315.044,193.793,316.7,186.964,316.7z"/>
	<path style="fill:#3A3847;" d="M155.029,227.026c-1.023,0-2.047-0.391-2.828-1.172c-21.562-21.562-37.889-27.303-38.053-27.358
		c-2.085-0.71-3.21-2.98-2.499-5.07c0.703-2.09,2.968-3.203,5.054-2.512c0.727,0.242,18.116,6.242,41.154,29.283
		c1.563,1.563,1.563,4.094,0,5.656C157.076,226.635,156.052,227.026,155.029,227.026z"/>
	<path style="fill:#3A3847;" d="M149.349,243.986c-1.016,0-2.023-0.383-2.805-1.148l-0.843-0.844
		c-5.094-4.523-24.14-19.53-46.443-15.046c-2.14,0.445-4.272-0.961-4.71-3.137c-0.438-2.164,0.969-4.273,3.133-4.707
		c25.928-5.222,47.536,11.761,53.527,17.093l0.945,0.938c1.578,1.551,1.594,4.082,0.047,5.656
		C151.42,243.588,150.38,243.986,149.349,243.986z"/>
	<path style="fill:#3A3847;" d="M98.477,227.026c-0.18,0-0.352-0.012-0.53-0.035c-2.188-0.289-3.734-2.297-3.445-4.488
		c2.867-21.698,18.265-30.873,18.921-31.252c1.89-1.105,4.351-0.473,5.468,1.449c1.109,1.91,0.461,4.355-1.453,5.464
		c-0.5,0.301-12.671,7.718-14.999,25.385C102.172,225.561,100.454,227.026,98.477,227.026z"/>
	<path style="fill:#3A3847;" d="M228.547,289.264c-0.422,0-0.852-0.063-1.273-0.203c-0.727-0.25-18.115-6.25-41.153-29.287
		c-1.563-1.563-1.563-4.094,0-5.656s4.094-1.563,5.656,0c21.561,21.562,37.888,27.303,38.052,27.357
		c2.086,0.711,3.211,2.977,2.5,5.07C231.766,288.217,230.212,289.264,228.547,289.264z"/>
	<path style="fill:#3A3847;" d="M236.352,261.856c-22.819,0-40.514-15.261-44.208-18.706l2.483-3.164l2.828-2.828
		c3.859,3.602,23.577,20.663,47.263,15.866c2.141-0.445,4.273,0.961,4.711,3.133c0.438,2.164-0.969,4.273-3.133,4.711
		C242.898,261.551,239.579,261.856,236.352,261.856z"/>
	<path style="fill:#3A3847;" d="M228.547,289.264c-1.375,0-2.718-0.711-3.46-1.992c-1.109-1.914-0.461-4.352,1.452-5.461
		c0.5-0.305,12.672-7.718,15-25.389c0.289-2.195,2.343-3.746,4.491-3.441c2.188,0.289,3.734,2.297,3.445,4.488
		c-2.867,21.701-18.265,30.873-18.921,31.248C229.922,289.092,229.235,289.264,228.547,289.264z"/>
	<path style="fill:#3A3847;" d="M100.001,251.981c-1.469,0-2.89-0.813-3.585-2.222c-0.977-1.973-0.18-4.367,1.788-5.351
		c0.688-0.344,17.218-8.422,49.786-8.422c2.211,0,4,1.789,4,4s-1.789,4-4,4c-30.467,0-46.067,7.507-46.216,7.581
		C101.204,251.848,100.594,251.981,100.001,251.981z"/>
	<path style="fill:#3A3847;" d="M107.993,283.983c-0.766,0-1.539-0.219-2.219-0.672c-1.836-1.227-2.336-3.711-1.109-5.546
		c15.39-23.081,44.45-25.456,50.114-25.698c0.641-0.094,1.211-0.102,1.211-0.082c2.203,0.027,3.992,1.824,3.977,4.023
		s-1.774,3.977-3.977,3.977c-0.102,0.012-0.766,0.07-0.867,0.074c-4.992,0.215-30.561,2.281-43.802,22.143
		C110.547,283.358,109.282,283.983,107.993,283.983z"/>
	<path style="fill:#3A3847;" d="M107.993,283.983c-1.203,0-2.391-0.539-3.18-1.57c-13.28-17.357-8.882-34.72-8.687-35.451
		c0.563-2.132,2.726-3.414,4.89-2.843c2.141,0.566,3.406,2.757,2.844,4.89c-0.141,0.566-3.508,14.414,7.313,28.545
		c1.336,1.757,1.008,4.265-0.75,5.601C109.696,283.717,108.844,283.983,107.993,283.983z"/>
	<path style="fill:#3A3847;" d="M195.987,243.986c-2.21,0-3.999-1.789-3.999-4s1.789-4,3.999-4c30.467,0,46.067-7.507,46.216-7.581
		c1.984-0.969,4.383-0.172,5.359,1.808c0.977,1.973,0.18,4.367-1.789,5.351C245.086,235.908,228.555,243.986,195.987,243.986z"/>
	<path style="fill:#3A3847;" d="M187.988,227.987c-2.211,0-4-1.789-4-4s1.789-4,4-4h0.961c4.828-0.215,30.467-2.316,43.708-22.213
		c1.219-1.848,3.703-2.328,5.547-1.117c1.836,1.227,2.336,3.707,1.109,5.546c-15.382,23.116-44.506,25.53-50.192,25.78
		L187.988,227.987z"/>
	<path style="fill:#3A3847;" d="M243.984,235.986c-0.336,0-0.68-0.043-1.023-0.133c-2.14-0.566-3.405-2.757-2.843-4.89
		c0.141-0.566,3.507-14.413-7.313-28.545c-1.336-1.753-1.008-4.265,0.75-5.604c1.75-1.336,4.266-1.016,5.609,0.746
		c13.28,17.358,8.882,34.72,8.687,35.451C247.375,234.802,245.757,235.986,243.984,235.986z"/>
	<path style="fill:#3A3847;" d="M126.711,300.537c-0.422,0-0.859-0.07-1.281-0.211c-2.086-0.703-3.211-2.968-2.508-5.054
		c0.242-0.727,6.242-18.116,29.279-41.154c1.563-1.563,4.094-1.563,5.656,0s1.563,4.094,0,5.656
		c-21.562,21.561-27.304,37.889-27.358,38.053C129.929,299.482,128.375,300.537,126.711,300.537z"/>
	<path style="fill:#3A3847;" d="M155.021,317.497c-1.859,0-3.531-1.313-3.914-3.211c-5.21-25.975,11.765-47.536,17.093-53.52
		l0.984-0.992c1.578-1.543,4.109-1.531,5.656,0.047c1.547,1.574,1.531,4.105-0.047,5.656l-0.75,0.757
		c-4.57,5.141-19.577,24.14-15.093,46.481c0.438,2.164-0.969,4.273-3.133,4.703C155.552,317.481,155.287,317.497,155.021,317.497z"
		/>
	<path style="fill:#3A3847;" d="M155.037,317.497c-0.18,0-0.352-0.008-0.531-0.031c-21.694-2.859-30.873-18.265-31.256-18.921
		c-1.109-1.905-0.461-4.351,1.453-5.46c1.898-1.109,4.352-0.477,5.468,1.445c0.297,0.5,7.719,12.671,25.382,15.007
		c2.188,0.289,3.734,2.296,3.445,4.491C158.732,316.036,157.013,317.497,155.037,317.497z"/>
	<path style="fill:#3A3847;" d="M188.949,227.026c-1.023,0-2.047-0.391-2.828-1.172c-1.563-1.563-1.563-4.094,0-5.656
		c21.562-21.561,27.303-37.888,27.357-38.048c0.711-2.085,2.977-3.203,5.07-2.503c2.086,0.707,3.211,2.964,2.508,5.054
		c-0.242,0.73-6.242,18.116-29.279,41.154C190.996,226.635,189.972,227.026,188.949,227.026z"/>
	<path style="fill:#3A3847;" d="M171.997,221.339c-1.023,0-2.047-0.391-2.828-1.168c-1.563-1.559-1.57-4.085-0.016-5.648
		c0.055-0.051,0.609-0.617,1.492-1.636c4.477-5.184,18.757-23.823,14.382-45.63c-0.438-2.164,0.969-4.273,3.133-4.707
		c2.141-0.434,4.273,0.965,4.711,3.137c5.085,25.361-11.094,46.548-16.171,52.434c-1.164,1.344-1.883,2.055-1.883,2.055
		C174.036,220.952,173.012,221.339,171.997,221.339z"/>
	<path style="fill:#3A3847;" d="M217.267,187.43c-1.375,0-2.719-0.711-3.461-1.992c-0.297-0.5-7.718-12.671-25.381-15.003
		c-2.188-0.289-3.734-2.296-3.445-4.487c0.289-2.195,2.328-3.734,4.492-3.441c21.693,2.863,30.873,18.261,31.256,18.917
		c1.109,1.91,0.461,4.355-1.453,5.464C218.642,187.255,217.955,187.43,217.267,187.43z"/>
	<path style="fill:#3A3847;" d="M387.975,331.98c-50.724,0-91.994-41.263-91.994-91.994c0-50.728,41.271-91.994,91.994-91.994
		s91.995,41.267,91.995,91.994C479.97,290.717,438.699,331.98,387.975,331.98z M387.975,155.991
		c-46.317,0-83.995,37.682-83.995,83.995c0,46.31,37.678,83.995,83.995,83.995s83.995-37.686,83.995-83.995
		C471.97,193.673,434.293,155.991,387.975,155.991z"/>
	<path style="fill:#3A3847;" d="M387.975,215.987h-3.999c-0.078-30.631-7.508-46.067-7.586-46.22
		c-0.969-1.977-0.164-4.375,1.813-5.355c1.992-0.992,4.367-0.172,5.352,1.789c0.344,0.68,8.343,17.05,8.421,49.294L387.975,215.987z
		"/>
	<path style="fill:#3A3847;" d="M371.976,227.964c-0.008,0-0.016,0-0.023,0c-2.203-0.012-3.977-1.777-3.977-3.977
		c-0.016-0.105-0.07-0.766-0.078-0.867c-0.211-4.992-2.272-30.561-22.139-43.802c-1.836-1.227-2.336-3.707-1.109-5.547
		s3.727-2.32,5.547-1.109c23.084,15.386,25.459,44.447,25.701,50.114c0.086,0.625,0.078,1.211,0.078,1.211
		C375.953,226.178,374.164,227.964,371.976,227.964z"/>
	<path style="fill:#3A3847;" d="M347.978,179.99c-1.203,0-2.391-0.539-3.18-1.57c-1.336-1.754-1.008-4.266,0.75-5.605
		c17.351-13.284,34.725-8.878,35.451-8.69c2.133,0.566,3.406,2.757,2.844,4.89c-0.57,2.132-2.742,3.41-4.891,2.843
		c-0.563-0.148-14.405-3.507-28.545,7.309C349.681,179.72,348.83,179.99,347.978,179.99z"/>
	<path style="fill:#3A3847;" d="M387.975,259.985c-11.03,0-19.999-8.973-19.999-19.999s8.969-19.999,19.999-19.999
		s19.999,8.973,19.999,19.999S399.005,259.985,387.975,259.985z M387.975,227.987c-6.616,0-11.999,5.382-11.999,11.999
		s5.383,11.999,11.999,11.999c6.617,0,11.999-5.382,11.999-11.999S394.592,227.987,387.975,227.987z"/>
	<path style="fill:#3A3847;" d="M395.975,315.981c-1.469,0-2.875-0.813-3.578-2.211c-0.344-0.688-8.421-17.217-8.421-49.785
		c0-2.211,1.789-4,3.999-4c2.211,0,4,1.789,4,4c0,30.467,7.507,46.059,7.585,46.215c0.969,1.984,0.164,4.375-1.812,5.359
		C397.178,315.84,396.569,315.981,395.975,315.981z"/>
	<path style="fill:#3A3847;" d="M427.973,307.982c-0.766,0-1.531-0.219-2.219-0.672c-23.093-15.358-25.522-44.501-25.772-50.185
		l-0.008-1.14c0-2.211,1.789-4,4-4s4,1.789,4,4v0.961c0.219,4.832,2.336,30.482,22.217,43.708c1.836,1.219,2.336,3.703,1.109,5.547
		C430.535,307.357,429.262,307.982,427.973,307.982z"/>
	<path style="fill:#3A3847;" d="M402.951,316.7c-4.664,0-7.702-0.773-7.999-0.852c-2.133-0.57-3.406-2.758-2.844-4.891
		c0.563-2.132,2.727-3.397,4.891-2.843c0.555,0.133,14.405,3.507,28.545-7.305c1.758-1.344,4.266-1.016,5.608,0.742
		c1.336,1.758,1.008,4.266-0.75,5.602C420.09,315.044,409.779,316.7,402.951,316.7z"/>
	<path style="fill:#3A3847;" d="M371.015,227.026c-1.023,0-2.047-0.391-2.828-1.172c-21.561-21.562-37.888-27.303-38.052-27.358
		c-2.086-0.71-3.211-2.98-2.5-5.07s2.961-3.203,5.055-2.512c0.727,0.242,18.116,6.242,41.153,29.283
		c1.563,1.563,1.563,4.094,0,5.656C373.062,226.635,372.039,227.026,371.015,227.026z"/>
	<path style="fill:#3A3847;" d="M365.337,243.986c-1.016,0-2.023-0.383-2.805-1.148l-0.844-0.844
		c-5.094-4.523-24.163-19.53-46.442-15.046c-2.141,0.445-4.273-0.961-4.711-3.137c-0.438-2.164,0.969-4.273,3.133-4.707
		c25.928-5.222,47.536,11.761,53.527,17.093l0.945,0.938c1.578,1.551,1.594,4.082,0.047,5.656
		C367.406,243.588,366.367,243.986,365.337,243.986z"/>
	<path style="fill:#3A3847;" d="M314.464,227.026c-0.18,0-0.352-0.012-0.531-0.035c-2.188-0.289-3.734-2.297-3.445-4.488
		c2.867-21.698,18.265-30.873,18.921-31.252c1.891-1.105,4.352-0.473,5.468,1.449c1.109,1.91,0.461,4.355-1.452,5.464
		c-0.5,0.301-12.671,7.718-14.999,25.385C318.16,225.561,316.441,227.026,314.464,227.026z"/>
	<path style="fill:#3A3847;" d="M444.535,289.264c-0.422,0-0.852-0.063-1.273-0.203c-0.727-0.25-18.116-6.25-41.154-29.287
		c-1.563-1.563-1.563-4.094,0-5.656s4.094-1.563,5.656,0c21.562,21.562,37.889,27.303,38.053,27.357
		c2.086,0.711,3.211,2.977,2.5,5.07C447.754,288.217,446.199,289.264,444.535,289.264z"/>
	<path style="fill:#3A3847;" d="M452.338,261.856c-22.818,0-40.513-15.261-44.208-18.706l2.484-3.164l2.828-2.828
		c3.859,3.602,23.568,20.663,47.263,15.866c2.14-0.445,4.272,0.961,4.71,3.133c0.438,2.164-0.969,4.273-3.133,4.711
		C458.885,261.551,455.565,261.856,452.338,261.856z"/>
	<path style="fill:#3A3847;" d="M444.535,289.264c-1.375,0-2.719-0.711-3.461-1.992c-1.109-1.914-0.461-4.352,1.453-5.461
		c0.5-0.305,12.671-7.718,14.999-25.389c0.289-2.195,2.344-3.746,4.491-3.441c2.188,0.289,3.734,2.297,3.445,4.488
		c-2.867,21.701-18.264,30.873-18.92,31.248C445.91,289.092,445.222,289.264,444.535,289.264z"/>
	<path style="fill:#3A3847;" d="M315.988,251.981c-1.469,0-2.891-0.813-3.586-2.222c-0.977-1.973-0.18-4.367,1.789-5.351
		c0.688-0.344,17.218-8.422,49.786-8.422c2.21,0,3.999,1.789,3.999,4s-1.789,4-3.999,4c-30.467,0-46.067,7.507-46.216,7.581
		C317.191,251.848,316.582,251.981,315.988,251.981z"/>
	<path style="fill:#3A3847;" d="M323.979,283.983c-0.766,0-1.539-0.219-2.218-0.672c-1.836-1.227-2.336-3.711-1.109-5.546
		c15.389-23.081,44.45-25.456,50.113-25.698c0.641-0.094,1.211-0.102,1.211-0.082c2.203,0.027,3.992,1.824,3.977,4.023
		s-1.774,3.977-3.977,3.977c-0.102,0.012-0.766,0.07-0.867,0.074c-4.992,0.215-30.561,2.281-43.802,22.143
		C326.534,283.358,325.268,283.983,323.979,283.983z"/>
	<path style="fill:#3A3847;" d="M323.979,283.983c-1.203,0-2.39-0.539-3.179-1.57c-13.281-17.357-8.883-34.72-8.688-35.451
		c0.57-2.132,2.742-3.414,4.891-2.843c2.141,0.566,3.406,2.757,2.844,4.89c-0.141,0.566-3.508,14.414,7.312,28.545
		c1.336,1.757,1.008,4.265-0.75,5.601C325.682,283.717,324.831,283.983,323.979,283.983z"/>
	<path style="fill:#3A3847;" d="M411.974,243.986c-2.211,0-4-1.789-4-4s1.789-4,4-4c30.467,0,46.067-7.507,46.216-7.581
		c1.992-0.969,4.39-0.172,5.358,1.808c0.977,1.973,0.18,4.367-1.788,5.351C461.073,235.908,444.543,243.986,411.974,243.986z"/>
	<path style="fill:#3A3847;" d="M403.974,227.987c-2.211,0-4-1.789-4-4s1.789-4,4-4h0.961c4.828-0.215,30.467-2.316,43.709-22.213
		c1.219-1.848,3.694-2.328,5.546-1.117c1.836,1.227,2.336,3.707,1.109,5.546c-15.382,23.116-44.505,25.53-50.192,25.78
		L403.974,227.987z"/>
	<path style="fill:#3A3847;" d="M459.971,235.986c-0.336,0-0.68-0.043-1.023-0.133c-2.141-0.566-3.406-2.757-2.844-4.89
		c0.141-0.566,3.508-14.413-7.312-28.545c-1.336-1.753-1.008-4.265,0.75-5.604c1.749-1.336,4.257-1.016,5.608,0.746
		c13.28,17.358,8.882,34.72,8.687,35.451C463.361,234.802,461.745,235.986,459.971,235.986z"/>
	<path style="fill:#3A3847;" d="M342.697,300.537c-0.422,0-0.859-0.07-1.281-0.211c-2.086-0.703-3.211-2.968-2.508-5.054
		c0.242-0.727,6.242-18.116,29.279-41.154c1.563-1.563,4.094-1.563,5.656,0s1.563,4.094,0,5.656
		c-21.561,21.561-27.303,37.889-27.357,38.053C345.916,299.482,344.361,300.537,342.697,300.537z"/>
	<path style="fill:#3A3847;" d="M371.007,317.497c-1.859,0-3.531-1.313-3.914-3.211c-5.21-25.975,11.766-47.536,17.094-53.52
		l0.984-0.992c1.569-1.543,4.101-1.531,5.655,0.047c1.547,1.574,1.531,4.105-0.047,5.656l-0.75,0.757
		c-4.569,5.141-19.577,24.14-15.093,46.481c0.438,2.164-0.969,4.273-3.133,4.703C371.539,317.481,371.273,317.497,371.007,317.497z"
		/>
	<path style="fill:#3A3847;" d="M371.023,317.497c-0.18,0-0.352-0.008-0.531-0.031c-21.693-2.859-30.873-18.265-31.256-18.921
		c-1.109-1.905-0.461-4.351,1.453-5.46c1.898-1.109,4.352-0.477,5.469,1.445c0.297,0.5,7.719,12.671,25.381,15.007
		c2.188,0.289,3.734,2.296,3.445,4.491C374.718,316.036,373,317.497,371.023,317.497z"/>
	<path style="fill:#3A3847;" d="M404.935,227.026c-1.023,0-2.047-0.391-2.828-1.172c-1.563-1.563-1.563-4.094,0-5.656
		c21.562-21.561,27.304-37.888,27.358-38.048c0.718-2.085,2.991-3.203,5.069-2.503c2.086,0.707,3.211,2.964,2.508,5.054
		c-0.242,0.73-6.242,18.116-29.279,41.154C406.982,226.635,405.959,227.026,404.935,227.026z"/>
	<path style="fill:#3A3847;" d="M387.983,221.339c-1.023,0-2.046-0.391-2.827-1.168c-1.563-1.559-1.57-4.085-0.016-5.648
		c0.055-0.051,0.609-0.617,1.491-1.636c4.477-5.184,18.757-23.823,14.382-45.63c-0.438-2.164,0.969-4.273,3.133-4.707
		c2.141-0.434,4.273,0.965,4.711,3.137c5.086,25.361-11.093,46.548-16.171,52.434c-1.164,1.344-1.883,2.055-1.883,2.055
		C390.022,220.952,388.999,221.339,387.983,221.339z"/>
	<path style="fill:#3A3847;" d="M433.254,187.43c-1.375,0-2.719-0.711-3.46-1.992c-0.297-0.5-7.719-12.671-25.382-15.003
		c-2.188-0.289-3.734-2.296-3.445-4.487c0.289-2.195,2.328-3.734,4.492-3.441c21.694,2.863,30.873,18.261,31.256,18.917
		c1.109,1.91,0.461,4.355-1.453,5.464C434.629,187.255,433.941,187.43,433.254,187.43z"/>
	<path style="fill:#3A3847;" d="M99.993,379.977c-2.21,0-3.999-1.789-3.999-4v-15.998c0-2.211,1.789-4,3.999-4c2.211,0,4,1.789,4,4
		v15.998C103.993,378.188,102.204,379.977,99.993,379.977z"/>
	<path style="fill:#3A3847;" d="M131.991,379.977H99.993c-2.21,0-3.999-1.789-3.999-4c0-2.21,1.789-3.999,3.999-3.999h31.998
		c2.211,0,4,1.789,4,3.999C135.991,378.188,134.202,379.977,131.991,379.977z"/>
	<path style="fill:#3A3847;" d="M131.991,379.977c-2.21,0-3.999-1.789-3.999-4v-15.998c0-2.211,1.789-4,3.999-4c2.211,0,4,1.789,4,4
		v15.998C135.991,378.188,134.202,379.977,131.991,379.977z"/>
	<path style="fill:#3A3847;" d="M147.99,379.977c-2.21,0-3.999-1.789-3.999-4v-15.998c0-2.211,1.789-4,3.999-4c2.211,0,4,1.789,4,4
		v15.998C151.99,378.188,150.201,379.977,147.99,379.977z"/>
	<path style="fill:#3A3847;" d="M259.983,379.977H147.99c-2.21,0-3.999-1.789-3.999-4c0-2.21,1.789-3.999,3.999-3.999h111.993
		c2.211,0,4,1.789,4,3.999C263.983,378.188,262.194,379.977,259.983,379.977z"/>
	<path style="fill:#3A3847;" d="M259.983,379.977c-2.21,0-3.999-1.789-3.999-4v-15.998c0-2.211,1.789-4,3.999-4c2.211,0,4,1.789,4,4
		v15.998C263.983,378.188,262.194,379.977,259.983,379.977z"/>
	<path style="fill:#3A3847;" d="M275.982,371.978c-2.211,0-4-1.789-4-4v-7.999c0-2.211,1.789-4,4-4s4,1.789,4,4v7.999
		C279.982,370.189,278.193,371.978,275.982,371.978z"/>
	<path style="fill:#3A3847;" d="M27.998,411.975h-8c-2.21,0-3.999-1.789-3.999-4c0-2.21,1.789-3.999,3.999-3.999h8
		c2.211,0,4,1.789,4,3.999C31.998,410.186,30.209,411.975,27.998,411.975z"/>
	<path style="fill:#3A3847;" d="M163.989,379.977c-2.21,0-3.999-1.789-3.999-4v-3.999c0-2.211,1.789-4,3.999-4c2.211,0,4,1.789,4,4
		v3.999C167.989,378.188,166.2,379.977,163.989,379.977z"/>
	<path style="fill:#3A3847;" d="M115.992,379.977c-2.21,0-3.999-1.789-3.999-4v-3.999c0-2.211,1.789-4,3.999-4c2.211,0,4,1.789,4,4
		v3.999C119.992,378.188,118.203,379.977,115.992,379.977z"/>
	<path style="fill:#3A3847;" d="M179.988,379.977c-2.21,0-3.999-1.789-3.999-4v-3.999c0-2.211,1.789-4,3.999-4c2.211,0,4,1.789,4,4
		v3.999C183.988,378.188,182.199,379.977,179.988,379.977z"/>
	<path style="fill:#3A3847;" d="M195.987,379.977c-2.21,0-3.999-1.789-3.999-4v-3.999c0-2.211,1.789-4,3.999-4c2.211,0,4,1.789,4,4
		v3.999C199.987,378.188,198.198,379.977,195.987,379.977z"/>
	<path style="fill:#3A3847;" d="M211.986,379.977c-2.21,0-3.999-1.789-3.999-4v-3.999c0-2.211,1.789-4,3.999-4c2.211,0,4,1.789,4,4
		v3.999C215.986,378.188,214.197,379.977,211.986,379.977z"/>
	<path style="fill:#3A3847;" d="M227.985,379.977c-2.21,0-3.999-1.789-3.999-4v-3.999c0-2.211,1.789-4,3.999-4c2.211,0,4,1.789,4,4
		v3.999C231.985,378.188,230.196,379.977,227.985,379.977z"/>
	<path style="fill:#3A3847;" d="M243.984,379.977c-2.21,0-3.999-1.789-3.999-4v-3.999c0-2.211,1.789-4,3.999-4c2.211,0,4,1.789,4,4
		v3.999C247.984,378.188,246.195,379.977,243.984,379.977z"/>
	<path style="fill:#3A3847;" d="M284.623,371.978h-8.641c-2.211,0-4-1.789-4-4s1.789-4,4-4h8.641c2.211,0,4,1.789,4,4
		S286.834,371.978,284.623,371.978z"/>
</g>
<g>
</g>
<g>
</g>
<g>
</g>
<g>
</g>
<g>
</g>
<g>
</g>
<g>
</g>
<g>
</g>
<g>
</g>
<g>
</g>
<g>
</g>
<g>
</g>
<g>
</g>
<g>
</g>
<g>
</g>
</svg>
